<?xml version="1.0" encoding="UTF-8"?>
<svg id="Layer_1" data-name="Layer 1" xmlns="http://www.w3.org/2000/svg" viewBox="0 0 196.97 50.88">
  <defs>
    <style>
      .cls-1 {
        font-family: TimesNewRomanPS-ItalicMT, 'Times New Roman';
        font-size: 10.78px;
        font-style: italic;
        letter-spacing: .02em;
      }

      .cls-1, .cls-2 {
        fill: #231f20;
      }
    </style>
  </defs>
  <g>
    <path d="m173.57,0c.48.17.65.57.61,1.01-.06.77-.16,1.54-.3,2.3-.15.85-.35,1.68-.54,2.52-.1.41-.24.81-.34,1.23-.11.46-.19.93-.32,1.39-.2.73-.43,1.46-.64,2.19-.38,1.31-.75,2.63-1.14,3.94-.2.69-.43,1.37-.65,2.06-.1.31-.07.36.24.36.45,0,.9-.04,1.36-.04.38,0,.8-.12,1.05.4.25-.73.48-1.38.71-2.04.28-.82.56-1.64.83-2.46.33-.98.65-1.97.98-2.95.22-.65.48-1.28.71-1.93.22-.63.42-1.26.64-1.89.06-.17.15-.34.2-.51.24-.7.47-1.41.72-2.11.27-.78.55-1.56.84-2.33.15-.41.52-.59.89-.49.38.11.59.41.51.85-.08.41-.23.82-.36,1.22-.27.8-.55,1.61-.83,2.41-.32.91-.66,1.81-.97,2.71-.29.83-.56,1.68-.85,2.51-.25.72-.53,1.43-.79,2.15-.24.67-.47,1.35-.7,2.03-.3.9-.59,1.8-.88,2.7-.24.74-.48,1.48-.72,2.23-.28.85-.57,1.69-.83,2.54-.21.68-.39,1.38-.59,2.07-.17.58-.36,1.16-.53,1.74-.12.39-.23.78-.34,1.17-.01.04,0,.1.02.2.1-.07.19-.11.24-.17.61-.75,1.21-1.51,1.83-2.25.12-.14.3-.22.44-.33.1-.08.24-.17.28-.28.16-.45.27-.91.42-1.37.27-.87.54-1.74.82-2.6.25-.78.51-1.56.77-2.34.3-.91.58-1.83.89-2.74.23-.66.49-1.31.72-1.98.26-.75.5-1.51.75-2.27.26-.78.52-1.56.79-2.33.25-.7.51-1.4.76-2.09.29-.81.57-1.61.85-2.42.25-.7.51-1.4.76-2.11.1-.28.21-.55.28-.83.07-.3.43-.48.86-.43.24.03.51.34.52.62,0,.21-.02.44-.08.64-.32.94-.66,1.87-.99,2.81-.4,1.13-.79,2.27-1.18,3.41-.28.8-.57,1.6-.85,2.4-.42,1.22-.82,2.45-1.24,3.67-.25.74-.52,1.47-.77,2.21-.21.61-.39,1.22-.59,1.83-.17.53-.36,1.06-.53,1.6-.27.86-.53,1.72-.8,2.58-.2.63-.4,1.26-.59,1.89-.14.46-.28.93-.41,1.39-.12.43-.23.87-.34,1.3-.01.05,0,.1,0,.22.12-.14.2-.24.29-.32.72-.63,1.2-1.45,1.79-2.18.26-.32.71-.44,1.02-.23.34.23.46.73.24,1.07-.79,1.18-1.64,2.31-2.72,3.22-.32.27-.71.47-1.1.63-.66.26-1.26-.15-1.29-.87,0-.28.07-.57.1-.85,0-.05.02-.11-.02-.19-.1.11-.21.21-.31.33-.5.59-1.06,1.11-1.75,1.46-.18.09-.37.17-.56.21-.49.08-1.01-.25-1.02-.82,0-.5.08-1,.18-1.49.12-.61.27-1.22.45-1.81.45-1.53.91-3.05,1.38-4.58.22-.72.45-1.43.68-2.14.02-.08.04-.16.06-.23-.89.06-1.76.11-2.64.17-.19.01-.27.13-.32.29-.36,1.1-.73,2.2-1.08,3.3-.36,1.13-.68,2.26-1.04,3.39-.26.83-.54,1.66-.81,2.49-.33,1.01-.65,2.01-.97,3.02-.1.3-.21.59-.31.88-.1.31-.18.63-.3.94-.18.43-.62.64-.97.48-.34-.16-.64-.65-.46-1.12.34-.88.62-1.78.92-2.67.27-.81.55-1.63.82-2.45.34-1.03.66-2.06.99-3.09.29-.9.58-1.81.87-2.71.13-.4.3-.79.42-1.19.14-.44.25-.9.36-1.35.04-.17-.1-.2-.24-.19-.65.03-1.3.07-1.96.1-.96.05-1.91.1-2.87.15-.31.01-.43.23-.55.46-.43.8-.85,1.61-1.28,2.41-.8,1.51-1.6,3.02-2.41,4.52-.28.52-.57,1.03-.87,1.55-.22.38-.58.25-.9.22-.29-.02-.29-.3-.33-.52-.12-.56.2-.99.43-1.44.54-1.03,1.1-2.05,1.65-3.08.39-.72.8-1.44,1.19-2.17.31-.58.61-1.18.93-1.8-.1-.03-.17-.07-.24-.07-1.15.05-2.3.11-3.44.15-.6.02-1.21.02-1.81,0-.23,0-.41-.12-.5-.36-.22-.56-.02-.97.57-1.11.22-.05.44-.08.67-.09.94-.03,1.88-.04,2.82-.06.69-.01,1.38-.05,2.06-.05.51,0,.82-.18,1.07-.64.72-1.33,1.49-2.63,2.24-3.95.7-1.23,1.37-2.47,2.07-3.7.48-.85.96-1.69,1.46-2.52.78-1.28,1.58-2.56,2.4-3.81.46-.7.97-1.36,1.49-2.02.33-.43.71-.8,1.33-.74.02,0,.04-.02.06-.04.16,0,.31,0,.47,0Zm-1.02,2.23l-.04-.02c-.13.18-.27.35-.39.54-.56.83-1.13,1.65-1.67,2.49-.41.64-.79,1.31-1.18,1.96-.45.75-.91,1.5-1.36,2.26-.26.45-.51.91-.77,1.36-.41.7-.83,1.39-1.22,2.09-.44.78-.84,1.57-1.27,2.36-.35.64-.72,1.27-1.09,1.94.25.02.48.06.71.05.85-.03,1.7-.08,2.56-.1.54-.01,1.08,0,1.61-.15.15-.04.24-.09.28-.25.2-.73.41-1.45.63-2.17.13-.43.28-.86.4-1.29.27-.94.52-1.88.78-2.82.31-1.08.64-2.16.95-3.24.21-.73.44-1.46.61-2.2.15-.63.23-1.28.34-1.92.05-.29.09-.59.13-.88Z"/>
    <path d="m106.19,34.17c-.42-.47-.84-.95-1.29-1.41-.26-.26-.87-.83-1.11-1.03-.58-.5-1.14-1.03-1.77-1.47-1.17-.83-2.35-1.64-3.57-2.39-.88-.54-1.82-.97-2.74-1.44-.57-.29-1.14-.57-1.73-.82-.54-.23-1.1-.41-1.65-.6-.72-.25-1.44-.5-2.16-.74-.51-.17-1.03-.32-1.54-.46-.39-.11-.79-.2-1.18-.3-.21-.06-.35,0-.42.23-.13.43-.26.86-.41,1.29-.23.66-.5,1.3-.73,1.96-.09.26-.13.53-.19.8-.1.39-.19.77-.29,1.16-.13.46-.26.92-.41,1.37-.13.38-.49.55-.9.45-.38-.1-.57-.35-.49-.76.12-.61.27-1.22.44-1.81.23-.8.47-1.59.72-2.38.25-.8.51-1.6.78-2.4.07-.22.02-.31-.21-.33-.34-.03-.67-.05-1.01-.11-.18-.03-.34-.11-.51-.19-.22-.11-.35-.56-.22-.84.11-.25.28-.43.6-.47.62-.08,1.24-.18,1.85-.3.26-.05.4-.25.49-.5.19-.54.39-1.07.58-1.61.28-.77.56-1.54.86-2.3.39-1.02.8-2.03,1.21-3.04.32-.8.65-1.6.98-2.41.3-.74.6-1.47.89-2.21.18-.44.34-.89.51-1.33.04-.11.1-.22.18-.39-.15.08-.25.12-.34.18-.97.74-1.96,1.46-2.82,2.33-.42.42-.82.86-1.23,1.29-.37.38-.73.43-1.05.15-.33-.28-.4-.8-.09-1.15.48-.56.99-1.1,1.52-1.62.53-.51,1.06-1.02,1.65-1.45.9-.66,1.85-1.26,2.79-1.86.46-.3.81-.64.94-1.2.07-.33.26-.64.4-.95.32-.71.62-1.43.96-2.13.13-.27.32-.51.7-.49.52.03.9.52.7,1.01-.27.66-.57,1.3-.86,1.95-.02.05-.04.09-.1.2.13-.02.22-.01.29-.04.83-.35,1.65-.72,2.5-1.04.62-.24,1.27-.44,1.91-.61.75-.2,1.5-.36,2.26-.5.47-.08.95-.07,1.43-.12.21-.02.41-.08.61-.1.52-.05,1.01.09,1.52.17.4.07.76.2,1.1.42.66.44.94,1.09,1.02,1.85.1.99-.11,1.93-.49,2.84-.51,1.23-1.13,2.41-1.96,3.46-.65.83-1.29,1.67-2,2.45-.72.8-1.51,1.56-2.29,2.3-.66.62-1.35,1.21-2.05,1.78-1.02.84-2.11,1.59-3.25,2.27-.5.29-1.01.57-1.51.86-.3.17-.59.36-.89.53-.37.2-.74.41-1.13.58-.79.35-1.58.7-2.39,1.02-.39.16-.8.25-1.25.39.29.08.54.16.8.23.43.12.87.22,1.3.35.53.16,1.06.33,1.57.52.7.26,1.39.52,2.07.82,1.11.47,2.23.94,3.32,1.46.74.35,1.44.78,2.14,1.21.79.48,1.58.98,2.33,1.52,1.3.94,2.56,1.93,3.69,3.08.55.56,1.1,1.12,1.66,1.7.61.57-.22,1.81-1.09,1.15Zm-17.96-13.65s.08.03.12.02c.2-.05.4-.11.59-.18.34-.14.68-.28,1.02-.43.6-.26,1.2-.5,1.78-.77,1.27-.6,2.51-1.28,3.65-2.09,1.2-.85,2.38-1.73,3.52-2.66,1.31-1.07,2.49-2.27,3.58-3.56,1.22-1.45,2.34-2.98,3.15-4.71.33-.7.56-1.41.49-2.2-.03-.32-.13-.61-.41-.8-.5-.33-1.07-.42-1.65-.39-.59.03-1.17.19-1.75.23-.97.07-1.9.32-2.81.62-1.22.4-2.41.88-3.6,1.35-.45.17-.88.38-1.31.59-.58.29-.76.87-.99,1.41-.28.66-.55,1.33-.83,1.99-.33.79-.67,1.58-.99,2.37-.26.65-.49,1.31-.75,1.97-.27.69-.56,1.37-.83,2.05-.26.66-.51,1.33-.77,1.99-.32.83-.65,1.65-.97,2.48-.09.22-.15.45-.24.72Z"/>
    <path d="m49.83,30.25c.08-.36.14-.72.25-1.08.16-.52.31-1.05.53-1.55.7-1.6,1.63-3.07,2.76-4.4.62-.72,1.3-1.39,1.99-2.04.4-.38.86-.71,1.48-.64.33.04.59.24.67.59.06.27-.08.59-.35.73-1.01.5-1.74,1.32-2.45,2.16-.79.93-1.49,1.93-2.09,3-.57,1.01-1.07,2.05-1.32,3.19-.08.37-.03.74.2,1.05.1.13.26.25.42.29.77.2,1.51.05,2.18-.36,1.17-.73,2.08-1.72,2.89-2.83.6-.83,1.1-1.71,1.59-2.59.5-.91.94-1.84,1.36-2.79.38-.85.71-1.72,1.02-2.6.44-1.22.85-2.45,1.24-3.69.23-.73.38-1.49.57-2.23.16-.63.35-1.25.49-1.88.07-.3.07-.62.11-.93.08-.51.17-1.01.25-1.51.22-1.32.22-2.66.18-4-.01-.39-.08-.78-.16-1.16-.12-.52-.56-.67-.97-.35-.74.59-1.32,1.31-1.87,2.07-.61.83-1.21,1.66-1.76,2.52-.54.82-1.03,1.67-1.52,2.52-.79,1.37-1.57,2.74-2.33,4.12-.69,1.26-1.35,2.55-2.02,3.82-.16.31-.3.64-.47.96-.22.41-.48.52-.93.41-.28-.07-.47-.31-.5-.62-.05-.63.06-1.25.26-1.85.31-.98.63-1.97.98-2.94.36-1,.77-1.99,1.15-2.98.32-.83.64-1.66.98-2.49.28-.68.57-1.36.85-2.04.32-.78.64-1.56.96-2.33.44-1.04.89-2.09,1.33-3.13.13-.31.58-.46.95-.33.34.12.55.51.44.9-.09.29-.22.57-.34.85-.34.8-.69,1.59-1.02,2.39-.52,1.23-1.03,2.46-1.54,3.7-.2.49-.39,1-.54,1.51.28-.48.56-.96.85-1.43.68-1.08,1.34-2.17,2.06-3.23.45-.66,1.02-1.23,1.47-1.89.37-.55.79-1.03,1.3-1.45.21-.17.41-.35.64-.49,1.07-.67,2.09-.24,2.69.75.3.5.44,1.04.45,1.63,0,.57.14,1.14.13,1.71-.01.89-.08,1.78-.15,2.66-.05.57-.15,1.14-.26,1.7-.04.23-.16.44-.2.67-.06.32-.06.66-.14.97-.13.52-.31,1.03-.44,1.55-.21.81-.37,1.63-.59,2.44-.17.64-.37,1.27-.57,1.91-.17.53-.35,1.06-.52,1.59-.06.18-.13.36-.21.53-.49,1.15-.97,2.3-1.46,3.45-.55,1.3-1.32,2.47-2.03,3.68-.88,1.5-1.98,2.8-3.41,3.81-.51.36-1.06.61-1.68.78-.49.13-.96.19-1.46.18-1.25-.01-2.22-.9-2.34-2.14,0-.04-.03-.08-.05-.11,0-.23,0-.45,0-.68Z"/>
    <path d="m196.12,5.61c-.09.44-.16.89-.26,1.33-.22.97-.53,1.91-1.05,2.76-.26.43-.63.53-1.05.32-.41-.2-.55-.69-.29-1.14.68-1.16,1.03-2.4,1.13-3.73.02-.21.02-.43,0-.65,0-.05-.06-.1-.09-.16-.05.03-.11.05-.13.1-.4.8-.8,1.6-1.19,2.4-.28.58-.54,1.17-.78,1.76-.4.98-.8,1.96-1.18,2.95-.26.68-.5,1.36-.76,2.04-.21.55-.44,1.1-.66,1.65-.02.04-.02.08-.03.17.33.02.65.05.97.05.56,0,1.12,0,1.68,0,.58-.01,1.17-.05,1.75-.06.48,0,.76.29.75.77,0,.44-.32.74-.76.75-.88.01-1.76.03-2.64.05-.64.01-1.29.01-1.93.03-.38,0-.47.09-.6.46-.28.78-.58,1.55-.86,2.34-.28.79-.53,1.59-.81,2.38-.23.64-.48,1.28-.71,1.92-.28.78-.54,1.56-.81,2.34-.2.57-.41,1.14-.6,1.71-.19.56-.37,1.13-.56,1.69-.09.28-.22.55-.31.83-.24.68-1.52,3.29-1.75,3.95-.43.68-1.43.13-1.24-.41.26-.77,1.48-3.91,1.81-4.85.4-1.13.81-2.25,1.22-3.38.24-.66.47-1.32.7-1.98.18-.53.34-1.06.52-1.59.09-.26.2-.51.31-.76-.02-.01-.04-.03-.06-.04-.15.11-.29.23-.44.34-.5.36-1.03.65-1.67.59-.27-.02-.58.01-.81-.1-.39-.2-.57-.59-.57-1.04,0-.18,0-.36,0-.61-.33.28-.6.51-.88.74-.38.3-.8.53-1.28.67-.66.2-1.54-.34-1.56-1.25-.01-.72.21-1.39.48-2.03.36-.84.9-1.58,1.61-2.19.7-.6,1.82-.84,2.66-.21.12.09.21.07.29-.05.09-.15.18-.3.27-.45.26-.46.7-.47.98-.34.37.18.52.69.34,1.08-.19.42-.41.84-.57,1.28-.28.79-.52,1.59-.78,2.39,0,.02,0,.03,0,.05,0,.13-.2.3,0,.39.11.05.3-.04.43-.11.79-.44,1.36-1.12,1.94-1.79.48-.56.89-1.15,1.22-1.87-.13-.02-.24-.06-.35-.06-.47-.02-.83-.36-.83-.8,0-.43.37-.77.85-.77.21,0,.42,0,.63,0,.22.01.34-.11.41-.29.2-.52.39-1.04.59-1.55.34-.89.68-1.78,1.03-2.67.35-.89.7-1.77,1.07-2.65.3-.74.6-1.48.94-2.2.43-.91.89-1.8,1.35-2.69.09-.17.25-.31.36-.48.46-.7,1.72-.56,2.11.17.2.36.32.76.47,1.14v1.36Zm-13.48,12.36c-.35-.41-.38-.42-.8-.13-.13.09-.25.19-.37.29-.67.58-.97,1.39-1.32,2.16-.02.05.01.12.02.23.99-.73,1.83-1.52,2.47-2.55Z"/>
    <path d="m140.11,17.24c-.2-.18-.43-.38-.66-.58-.2.29-.36.58-.57.83-.72.88-1.44,1.76-2.17,2.63-.7.83-1.46,1.6-2.4,2.15-.58.34-1.22.36-1.86.26-.17-.03-.38-.22-.45-.39-.18-.4-.43-.79-.3-1.31-.32.26-.6.47-.86.7-.43.38-.93.63-1.48.73-.52.09-1.21-.31-1.3-.96-.05-.33-.02-.67,0-1.01,0-.15-.05-.2-.19-.2-.67,0-1.27-.21-1.81-.62-.17-.13-.26-.02-.33.11-.21.4-.38.82-.61,1.21-.44.74-.88,1.47-1.62,1.97-.6.4-1.46.2-1.82-.29-.18-.24-.29-.53-.43-.79-.04-.07-.08-.15-.15-.29-.16.24-.3.43-.43.63-.64,1-1.36,1.92-2.3,2.65-.5.39-1.06.67-1.75.59-.27-.03-.54.04-.79-.14-.38-.27-.55-.64-.57-1.09-.03-.76.19-1.46.46-2.15.19-.49.39-.98.61-1.46.11-.24.25-.47.4-.74-.34.26-.68.45-.92.72-.17.18-.2.49-.29.74-.47,1.26-1.03,2.46-2.1,3.34-.47.38-.98.69-1.63.62-.12-.01-.25-.02-.37,0-.53.08-1-.45-1.02-.96-.02-.35.05-.67.22-.98.41-.73,1-1.3,1.61-1.84.65-.58,1.34-1.11,1.97-1.71.2-.19.27-.53.33-.82.05-.29.03-.59,0-.89,0-.13-.09-.25-.14-.39-.51.33-.85.75-1.16,1.19-.5.69-.99,1.39-1.45,2.11-.53.84-1.01,1.7-1.5,2.56-.29.51-.59.6-1.16.4-.27-.09-.43-.56-.31-.91.14-.42.3-.83.44-1.25.13-.38.26-.77.4-1.19-.07.04-.14.06-.18.1-.75.58-1.59,1.01-2.49,1.27-.72.21-1.46.42-2.25.24-.92-.2-1.4-.79-1.62-1.65-.13-.52-.07-1.04.07-1.55.16-.62.37-1.22.74-1.76.47-.69,1.08-1.2,1.9-1.37,1.45-.31,2.42.85,2.12,2.12-.2.87-.74,1.49-1.52,1.92-.25.14-.49.19-.76.19-.25,0-.51-.01-.76,0-.1,0-.2.06-.31.09.06.12.11.25.19.35.04.05.14.08.21.08.49,0,.97,0,1.46-.16.79-.27,1.55-.61,2.22-1.09.87-.62,1.72-1.29,2.2-2.29.24-.5.36-1.06.54-1.59.27-.8.55-1.6.83-2.41.33-.97.66-1.93,1-2.9.3-.87.6-1.74.91-2.62.34-.97.67-1.95,1.03-2.91.23-.6.85-.71,1.28-.24.23.25.14.56.1.85-.02.17-.12.34-.17.51-.25.76-.49,1.52-.75,2.28-.29.85-.6,1.7-.9,2.55-.22.64-.42,1.28-.64,1.92-.19.55-.4,1.08-.59,1.63-.24.69-.46,1.38-.69,2.07-.12.36-.26.72-.35,1.11.19-.19.39-.37.58-.56.28-.27.58-.48.97-.58.88-.24,1.69.27,1.84,1.18.05.31.17.61.28,1,.33-.25.63-.44.88-.68.26-.24.53-.28.84-.16.14.05.2.02.27-.1.47-.77.93-1.55,1.41-2.32.07-.11.14-.22.23-.31.43-.44,1.16-.24,1.32.36.08.32-.11.58-.25.83-.66,1.13-1.36,2.24-2,3.38-.51.91-.99,1.83-1.44,2.77-.23.49-.37,1.02-.54,1.54-.02.06-.01.17.03.2.05.03.16.02.21-.02.32-.23.65-.44.93-.71.68-.66,1.2-1.45,1.67-2.26.41-.71.78-1.43,1.17-2.15.16-.29.32-.57.71-.58.38-.01.69.22.75.61.06.38.05.77.11,1.15.06.46.15.92.24,1.37.02.08.08.15.15.29.19-.21.37-.37.5-.56.7-.98,1.17-2.08,1.61-3.18.21-.53.48-.72,1.04-.61.28.06.39.32.49.56.32.77,1.18,1.08,1.86.82.25-.1.5-.3.67-.52.43-.55.92-1.03,1.5-1.4.72-.45,1.47-.48,2.21-.02.27.17.3.16.45-.12.05-.08.08-.18.12-.26.24-.41.62-.57.98-.42.34.14.54.56.41.97-.12.38-.29.74-.44,1.11-.15.39-.28.8-.45,1.18-.23.54-.39,1.11-.49,1.68-.02.09.02.19.04.29.09-.02.19-.04.28-.07.64-.25,1.04-.79,1.5-1.25.58-.57,1.08-1.18,1.47-1.89.12-.22.33-.39.52-.57.68-.63,1.18-1.38,1.51-2.25.13-.35.33-.67.53-.99.21-.34.7-.47,1.04-.3.3.14.43.48.33.9-.16.69.08,1.2.71,1.54.13.07.26.14.39.21.45.24.56.67.31,1.11-.47.83-.94,1.66-1.38,2.51-.13.25-.16.56-.2.84,0,.07.13.22.22.23.18.02.39.02.56-.04.66-.24,1.22-.64,1.74-1.12.67-.63,1.23-1.33,1.67-2.13.27-.49.95-.55,1.27-.08.12.18.15.7.01.93-.88,1.39-1.88,2.66-3.31,3.53-.73.45-1.54.61-2.39.52-.68-.07-1.21-.71-1.25-1.43-.04-.76.14-1.47.46-2.16.27-.56.52-1.13.79-1.71Zm-10.62,3.03c.03.06.06.17.09.17.1,0,.21-.03.28-.09.24-.21.43-.46.69-.64.59-.42.99-.99,1.38-1.58.04-.07.04-.23-.01-.29-.1-.11-.21-.3-.4-.18-.23.14-.49.26-.65.46-.43.54-.81,1.12-1.2,1.7-.08.12-.11.29-.17.45Zm-24.54-1.99c.14.05.27.12.39.12.43-.02.98-.47,1.09-.9.02-.09.01-.24-.04-.28-.07-.05-.22-.06-.31-.02-.48.22-.83.58-1.13,1.08Z"/>
    <path d="m69.05,17.24c-.19-.17-.42-.37-.69-.61-.28.36-.54.71-.82,1.05-.26.31-.52.64-.82.9-.38.34-.74.3-1.05-.05-.3-.34-.29-.76.04-1.1.19-.19.4-.36.58-.56.62-.67,1-1.48,1.36-2.3.06-.14.14-.28.21-.42.28-.53.64-.61,1.17-.56.33.03.55.49.43.91-.09.32-.14.63.04.94.2.36.54.56.89.74.54.28.67.72.37,1.27-.45.81-.91,1.62-1.34,2.44-.11.21-.14.48-.18.72-.04.23.1.33.31.37.31.05.6-.03.87-.18,1.02-.55,1.84-1.33,2.48-2.3.21-.32.4-.65.64-.95.27-.34.69-.39.99-.17.41.3.51.69.25,1.09-.29.44-.61.85-.9,1.28-.43.62-.92,1.2-1.53,1.63-.7.5-1.39,1.05-2.28,1.17-.52.07-1.07.1-1.55-.2-.43-.27-.69-.67-.72-1.18-.02-.29.03-.58.07-.86.04-.26.05-.54.15-.78.33-.75.69-1.49,1.05-2.26Z"/>
  </g>
  <path d="m26.95,24.95c.28-.56.54-1.12.84-1.67.19-.35.4-.7.64-1.02.22-.3.5-.54.91-.47.43.08.68.36.82.74.13.35.23.72.39,1.05.34.74.86.85,1.4.25.49-.55.88-1.2,1.3-1.81.13-.19.19-.42.34-.59.13-.16.36-.39.5-.36.23.05.49.25.61.45.34.63.33.66,1.06.61,1.11-.07,2.07-.55,2.97-1.14.81-.53,1.57-1.16,2.34-1.75.29-.22.54-.52,1.06-.51-.08.26-.11.49-.21.69-.43.84-1.11,1.45-1.89,1.93-.88.55-1.78,1.1-2.73,1.5-1.02.43-2.09.51-3.06-.28-.32.49-.62.97-.94,1.42-.17.24-.37.47-.58.66-.89.8-2.06.63-2.75-.43-.27-.41-.46-.87-.7-1.35-.09.1-.21.18-.27.3-.4.77-.79,1.55-1.19,2.32-.12.24-.28.45-.43.68-.16.25-.39.5-.68.36-.26-.13-.56-.39-.62-.64-.14-.61-.19-1.24-.2-1.87-.02-1.14,0-2.28.02-3.41,0-.06,0-.12-.09-.2-.08.27-.18.55-.24.83-.34,1.43-.64,2.88-1.01,4.3-.35,1.34-1.04,2.52-1.98,3.54-.22.25-.45.5-.71.7-.86.68-1.45.58-2.17-.42-.16-.21-.25-.47-.39-.75-.27.15-.52.32-.78.45-.93.46-1.87.34-2.67-.21-.84-.58-1.61-1.28-2.35-1.99-.74-.71-.7-.72-1.59-.21-.48.28-.99.54-1.51.73-.65.23-1.1.07-1.59-.49-.13.56-.24,1.09-.38,1.61-.5,1.93-.99,3.87-2.17,5.53-.15.22-.33.42-.52.61-.24.23-.54.19-.76-.07-.39-.45-.41-1-.34-1.52.16-1.21.38-2.41.59-3.6.51-2.87,1.33-5.65,2.6-8.28.68-1.4,1.32-2.85,2.5-3.95.78-.72,1.57-1.42,2.63-1.71.76-.21,1.4-.07,1.99.5.71.69,1.09,1.54,1.2,2.48.14,1.22.29,2.44-.12,3.66-.35,1.03-.96,1.87-1.71,2.63-.26.27-.54.51-.72.68.75.81,1.45,1.61,2.2,2.37.2.21.52.32.8.43.81.34,2.12-.47,2.51-1.2.07-.13.05-.31.06-.47.04-1.19.21-2.35.81-3.41.17-.29.27-.71.76-.64.38.06.7.37.75.88.04.39.05.82-.08,1.18-.32.92-.7,1.82-1.09,2.72-.22.52-.04,1.5.42,1.96.68-.3,1.12-.88,1.57-1.44.92-1.13,1.5-2.44,1.88-3.83.54-1.99,1.06-3.98,1.56-5.98.1-.39.1-.79.17-1.19.02-.12.07-.3.15-.33.11-.04.34,0,.39.07.17.26.38.55.39.84.04,1.02,0,2.03,0,3.05-.01,1.41-.03,2.81-.04,4.22,0,.07.02.15.03.22.04.01.08.02.13.04Zm-18.03,1.33s.05.02.08.03c.06-.07.11-.14.17-.2.83-.84,1.7-1.58,3.02-1.24.13.03.32-.03.43-.12,1.7-1.3,2.77-2.92,2.62-5.17-.07-.95-.06-1.91-.63-2.74-.38-.55-.67-.65-1.3-.4-1.36.54-2.45,1.41-3.27,2.62-.36.54-.69,1.01-.64,1.78.08,1.2-.11,2.43-.22,3.64-.05.6-.17,1.2-.26,1.8Zm-.27-4.61c-1.9,3.44-2.46,7.22-2.91,11.04,1.86-3.45,2.37-7.25,2.91-11.04Z"/>
  <text class="cls-1" transform="translate(49.76 47.58) scale(.94 1)"><tspan x="0" y="0">ORTHOPEDIC &amp; HAND CLINIC</tspan></text>
  <rect class="cls-2" x="49.83" y="35.9" width="147.15" height=".74"/>
  <path d="m45.21,24.42c0,13.08-10.12,23.68-22.61,23.68S0,37.5,0,24.42,10.12.74,22.61.74s22.61,10.6,22.61,23.68ZM22.61,1.55C10.55,1.55.78,11.79.78,24.42s9.77,22.87,21.83,22.87,21.83-10.24,21.83-22.87S34.66,1.55,22.61,1.55Z"/>
</svg>