<?xml version="1.0" encoding="UTF-8"?>
<svg id="Layer_1" data-name="Layer 1" xmlns="http://www.w3.org/2000/svg" viewBox="0 0 195.88 49.72">
  <defs>
    <style>
      .cls-1 {
        fill: #10202a;
        font-size: 3.32px;
      }

      .cls-1, .cls-2 {
        font-family: Algerian, Algerian;
      }

      .cls-2 {
        font-size: 3.92px;
      }

      .cls-2, .cls-3, .cls-4 {
        fill: #fbfae4;
      }

      .cls-4 {
        font-family: TimesNewRomanPS-ItalicMT, 'Times New Roman';
        font-size: 10.58px;
        font-style: italic;
        letter-spacing: .02em;
      }
    </style>
  </defs>
  <g>
    <path class="cls-3" d="m171.74.57c.47.16.63.56.6.99-.06.76-.16,1.51-.29,2.26-.15.83-.34,1.65-.53,2.47-.09.4-.23.8-.33,1.2-.11.45-.19.91-.31,1.36-.2.72-.42,1.43-.63,2.15-.37,1.29-.74,2.58-1.12,3.86-.2.68-.42,1.35-.64,2.02-.1.3-.07.36.24.35.44,0,.89-.04,1.33-.04.37,0,.79-.12,1.03.39.25-.71.47-1.35.69-2,.27-.8.55-1.61.82-2.41.32-.97.63-1.94.96-2.9.22-.64.47-1.26.69-1.89.22-.62.42-1.24.63-1.86.06-.17.14-.33.2-.5.24-.69.47-1.38.71-2.07.27-.76.54-1.53.82-2.28.15-.4.51-.58.87-.48.37.11.58.4.5.84-.08.41-.22.8-.35,1.19-.27.79-.54,1.58-.82,2.36-.31.89-.64,1.77-.95,2.66-.29.82-.55,1.64-.84,2.46-.25.71-.52,1.4-.77,2.11-.24.66-.47,1.33-.69,1.99-.29.88-.58,1.77-.86,2.65-.24.73-.47,1.46-.71,2.18-.27.83-.56,1.66-.81,2.49-.21.67-.38,1.35-.58,2.03-.17.57-.35,1.13-.52,1.7-.12.38-.23.76-.33,1.15-.01.04,0,.09.01.2.1-.07.19-.11.24-.17.6-.73,1.19-1.48,1.8-2.21.11-.14.29-.21.43-.33.1-.08.23-.16.27-.27.15-.44.27-.9.41-1.34.27-.85.53-1.7.81-2.55.25-.77.5-1.53.75-2.3.29-.9.57-1.8.88-2.69.22-.65.48-1.29.7-1.94.25-.74.49-1.48.73-2.22.25-.76.51-1.53.77-2.29.24-.69.5-1.37.75-2.05.28-.79.56-1.58.84-2.37.25-.69.5-1.38.74-2.07.1-.27.21-.54.28-.82.07-.29.42-.47.84-.42.23.03.51.33.51.61,0,.21-.02.43-.08.63-.31.92-.65,1.84-.97,2.75-.39,1.11-.77,2.23-1.16,3.34-.27.79-.56,1.57-.83,2.36-.41,1.2-.81,2.4-1.22,3.6-.25.72-.51,1.44-.76,2.17-.2.6-.38,1.2-.57,1.8-.17.52-.35,1.04-.52,1.57-.27.84-.52,1.69-.78,2.53-.19.62-.39,1.23-.58,1.85-.14.45-.28.91-.41,1.37-.12.42-.23.85-.34,1.28-.01.05,0,.1,0,.22.12-.13.19-.23.28-.31.71-.61,1.18-1.42,1.75-2.14.25-.32.69-.43,1-.22.33.22.45.72.23,1.05-.77,1.15-1.61,2.26-2.67,3.16-.31.26-.7.46-1.08.62-.65.26-1.24-.15-1.26-.86,0-.28.07-.56.1-.84,0-.05.02-.11-.02-.19-.1.11-.21.21-.3.32-.49.58-1.04,1.09-1.72,1.43-.17.09-.36.17-.55.2-.48.08-.99-.25-1-.81,0-.49.08-.98.18-1.46.12-.6.27-1.19.44-1.78.44-1.5.9-3,1.35-4.49.21-.7.44-1.4.66-2.1.02-.08.04-.16.05-.23-.87.06-1.73.11-2.59.16-.19.01-.26.13-.31.29-.35,1.08-.71,2.16-1.06,3.24-.35,1.11-.67,2.22-1.02,3.32-.26.82-.53,1.63-.79,2.44-.32.99-.63,1.97-.96,2.96-.09.29-.21.58-.31.87-.1.31-.18.62-.3.92-.17.42-.61.63-.95.47-.34-.16-.63-.64-.45-1.1.34-.86.61-1.74.9-2.62.27-.8.54-1.6.8-2.4.33-1.01.65-2.02.98-3.04.28-.89.57-1.77.86-2.66.13-.39.29-.77.41-1.17.13-.44.25-.88.35-1.32.04-.16-.1-.2-.23-.19-.64.03-1.28.06-1.92.1-.94.05-1.88.1-2.81.15-.3.01-.42.23-.54.45-.42.79-.84,1.58-1.26,2.37-.79,1.48-1.57,2.96-2.37,4.44-.27.51-.56,1.01-.85,1.52-.21.37-.57.24-.88.22-.28-.02-.28-.29-.33-.51-.11-.55.2-.97.43-1.41.53-1.01,1.08-2.01,1.62-3.02.38-.71.78-1.41,1.16-2.12.31-.57.6-1.15.91-1.77-.1-.03-.17-.07-.23-.06-1.13.05-2.25.11-3.38.15-.59.02-1.18.02-1.77,0-.23,0-.4-.12-.49-.35-.22-.55-.02-.95.56-1.09.21-.05.44-.08.65-.09.92-.03,1.85-.04,2.77-.06.68-.01,1.35-.05,2.02-.04.5,0,.81-.18,1.05-.63.71-1.3,1.46-2.58,2.19-3.87.68-1.21,1.35-2.42,2.03-3.63.47-.83.94-1.66,1.44-2.47.77-1.26,1.55-2.51,2.36-3.74.45-.68.96-1.33,1.46-1.98.33-.42.7-.79,1.3-.72.02,0,.04-.02.06-.04.15,0,.31,0,.46,0Zm-1,2.19l-.04-.02c-.13.18-.26.35-.39.53-.55.81-1.11,1.62-1.64,2.44-.4.63-.77,1.28-1.16,1.92-.44.74-.89,1.47-1.33,2.21-.26.44-.5.89-.76,1.33-.4.69-.81,1.36-1.2,2.05-.43.76-.83,1.54-1.25,2.31-.34.63-.7,1.24-1.07,1.9.24.02.47.06.69.05.84-.03,1.67-.08,2.51-.1.53-.01,1.06,0,1.57-.15.15-.04.23-.09.28-.25.2-.71.4-1.42.61-2.13.13-.42.27-.84.39-1.26.26-.92.51-1.84.77-2.76.3-1.06.62-2.12.93-3.18.21-.72.43-1.43.6-2.16.15-.62.23-1.25.34-1.88.05-.29.09-.58.13-.87Z"/>
    <path class="cls-3" d="m105.65,34.09c-.41-.47-.83-.94-1.26-1.38-.26-.26-.86-.82-1.09-1.01-.57-.49-1.12-1.01-1.73-1.44-1.14-.81-2.3-1.61-3.5-2.34-.86-.53-1.79-.95-2.69-1.41-.56-.28-1.12-.56-1.7-.8-.53-.22-1.07-.4-1.62-.59-.7-.25-1.41-.49-2.12-.72-.5-.16-1.01-.31-1.51-.45-.38-.11-.77-.2-1.16-.3-.21-.05-.34,0-.41.22-.13.42-.25.85-.4,1.26-.23.64-.49,1.28-.71,1.92-.09.25-.13.52-.19.79-.09.38-.18.76-.29,1.13-.13.45-.26.9-.4,1.34-.12.38-.48.54-.88.44-.38-.1-.56-.34-.48-.75.12-.6.27-1.19.43-1.78.22-.78.46-1.56.71-2.34.25-.79.5-1.57.76-2.36.07-.22.02-.3-.2-.32-.33-.03-.66-.05-.99-.11-.17-.03-.34-.11-.5-.18-.22-.1-.34-.55-.22-.82.11-.25.28-.43.59-.46.61-.07,1.21-.18,1.81-.29.26-.05.4-.25.48-.49.19-.53.38-1.05.57-1.58.28-.75.55-1.51.84-2.26.39-1,.79-1.99,1.18-2.98.32-.79.64-1.57.96-2.36.29-.72.58-1.44.87-2.17.17-.43.33-.87.5-1.3.04-.11.1-.21.18-.39-.14.08-.25.11-.33.18-.95.72-1.92,1.43-2.77,2.29-.41.42-.8.85-1.2,1.27-.36.38-.71.42-1.03.15-.32-.27-.39-.78-.08-1.13.48-.55.97-1.08,1.49-1.59.52-.5,1.04-1,1.62-1.42.89-.65,1.82-1.23,2.74-1.83.45-.29.79-.63.92-1.18.07-.32.26-.63.39-.93.31-.7.61-1.4.94-2.09.13-.26.32-.5.69-.48.51.03.88.51.69.99-.26.65-.56,1.28-.84,1.91-.02.05-.04.09-.09.2.13-.02.21-.01.28-.04.82-.34,1.62-.7,2.45-1.02.61-.23,1.24-.43,1.88-.6.73-.19,1.47-.36,2.22-.49.46-.08.94-.07,1.4-.12.2-.02.4-.08.6-.1.51-.05,1,.08,1.49.17.4.07.75.19,1.07.42.64.43.92,1.07,1,1.81.1.97-.11,1.89-.48,2.79-.5,1.21-1.11,2.36-1.92,3.4-.64.81-1.27,1.64-1.96,2.41-.71.79-1.48,1.53-2.25,2.26-.65.61-1.33,1.19-2.02,1.75-1.01.82-2.07,1.56-3.18,2.22-.49.29-.99.56-1.48.85-.29.17-.58.35-.88.52-.36.2-.73.4-1.11.57-.77.35-1.55.69-2.34,1-.38.15-.79.25-1.23.38.28.08.53.16.79.23.42.11.85.21,1.27.34.52.16,1.04.32,1.54.51.68.25,1.36.51,2.03.8,1.09.46,2.19.92,3.26,1.44.72.35,1.41.77,2.1,1.19.77.48,1.55.96,2.29,1.49,1.28.92,2.51,1.9,3.62,3.02.54.55,1.08,1.1,1.63,1.66.6.55-.22,1.78-1.07,1.13Zm-17.62-13.39s.08.03.11.02c.19-.05.39-.11.58-.18.34-.13.67-.28,1-.42.58-.25,1.18-.49,1.75-.76,1.25-.59,2.46-1.25,3.58-2.05,1.18-.83,2.34-1.7,3.46-2.61,1.28-1.04,2.45-2.22,3.51-3.49,1.2-1.43,2.3-2.92,3.09-4.62.32-.69.55-1.39.48-2.15-.03-.31-.13-.6-.4-.79-.49-.33-1.05-.42-1.61-.38-.58.03-1.14.19-1.72.23-.95.06-1.86.32-2.76.61-1.2.39-2.36.87-3.54,1.32-.44.17-.87.37-1.29.58-.57.28-.75.86-.97,1.39-.27.65-.54,1.3-.81,1.95-.32.78-.66,1.55-.97,2.33-.26.64-.48,1.29-.73,1.93-.26.67-.55,1.34-.82,2.01-.26.65-.5,1.3-.76,1.95-.32.81-.64,1.62-.95,2.44-.08.22-.15.44-.23.7Z"/>
    <path class="cls-3" d="m50.36,30.25c.08-.35.14-.71.24-1.05.15-.51.31-1.03.52-1.52.69-1.57,1.6-3.02,2.71-4.32.6-.71,1.27-1.36,1.95-2,.39-.37.84-.7,1.45-.63.33.04.58.24.66.58.06.27-.07.58-.34.71-.99.49-1.7,1.29-2.4,2.12-.78.92-1.46,1.9-2.05,2.94-.56.99-1.05,2.01-1.29,3.13-.08.36-.03.72.2,1.03.1.13.26.25.41.29.76.2,1.48.05,2.13-.36,1.15-.71,2.04-1.68,2.84-2.78.59-.81,1.08-1.67,1.56-2.54.49-.89.92-1.81,1.33-2.74.37-.83.7-1.69,1-2.55.43-1.2.84-2.41,1.22-3.62.22-.72.37-1.46.56-2.19.16-.62.34-1.22.48-1.84.07-.3.06-.61.11-.91.08-.5.17-.99.25-1.49.21-1.3.21-2.61.18-3.92-.01-.38-.07-.76-.16-1.14-.11-.51-.55-.66-.95-.34-.72.58-1.3,1.29-1.84,2.03-.59.81-1.18,1.63-1.73,2.47-.53.81-1.01,1.64-1.49,2.48-.77,1.34-1.54,2.69-2.28,4.05-.68,1.24-1.33,2.5-1.98,3.75-.16.31-.29.63-.46.94-.21.4-.47.51-.91.4-.28-.07-.46-.3-.49-.61-.05-.62.06-1.23.25-1.81.31-.96.62-1.93.96-2.88.35-.98.75-1.95,1.13-2.92.32-.82.63-1.63.96-2.44.27-.67.56-1.33.84-2,.32-.76.62-1.53.94-2.29.43-1.02.87-2.05,1.31-3.07.13-.3.57-.45.93-.32.34.12.54.5.43.88-.08.28-.22.55-.33.83-.33.78-.67,1.56-1,2.34-.51,1.21-1.01,2.42-1.51,3.63-.2.48-.38.98-.53,1.48.28-.47.55-.94.84-1.4.67-1.06,1.31-2.13,2.02-3.17.44-.65,1-1.21,1.44-1.86.37-.54.78-1.01,1.28-1.42.2-.17.4-.35.63-.48,1.05-.66,2.05-.24,2.64.73.3.49.44,1.02.44,1.6,0,.56.13,1.12.13,1.68-.01.87-.07,1.74-.15,2.61-.05.56-.15,1.11-.25,1.67-.04.22-.16.43-.2.66-.06.31-.06.64-.13.95-.12.51-.3,1.01-.43,1.52-.2.8-.37,1.6-.57,2.4-.17.63-.37,1.25-.56,1.87-.16.52-.34,1.04-.51,1.56-.06.18-.13.35-.2.52-.48,1.13-.96,2.25-1.43,3.38-.54,1.27-1.3,2.43-1.99,3.61-.87,1.47-1.95,2.75-3.34,3.73-.5.35-1.04.6-1.65.76-.48.13-.95.18-1.43.18-1.22-.01-2.18-.88-2.29-2.1,0-.04-.03-.07-.05-.11,0-.22,0-.45,0-.67Z"/>
    <path class="cls-3" d="m193.86,6.07c-.09.43-.16.87-.26,1.3-.22.95-.52,1.87-1.03,2.71-.26.42-.62.52-1.03.32-.4-.19-.54-.68-.28-1.11.66-1.13,1.01-2.36,1.1-3.66.02-.21.02-.42,0-.63,0-.05-.06-.1-.09-.15-.05.03-.11.05-.13.09-.39.78-.79,1.57-1.16,2.36-.27.57-.53,1.14-.77,1.72-.4.96-.78,1.92-1.16,2.89-.26.66-.49,1.34-.75,2-.21.54-.43,1.08-.64,1.62-.01.04-.02.08-.03.17.33.02.64.05.95.05.55,0,1.1,0,1.65,0,.57-.01,1.14-.05,1.72-.05.47,0,.74.29.74.76,0,.43-.31.73-.75.74-.86.01-1.73.03-2.59.05-.63.01-1.26.01-1.89.03-.37,0-.46.09-.59.45-.28.77-.57,1.53-.84,2.29-.27.77-.52,1.56-.8,2.33-.22.63-.48,1.25-.7,1.88-.27.76-.53,1.53-.79,2.29-.2.56-.4,1.12-.59,1.68-.19.55-.36,1.11-.55,1.66-.09.27-.21.54-.31.81-.23.67-1.49,3.23-1.72,3.88-.42.66-1.4.13-1.22-.41.25-.76,1.45-3.84,1.77-4.76.39-1.11.8-2.21,1.19-3.31.23-.65.46-1.29.69-1.94.18-.52.33-1.04.51-1.56.09-.25.2-.5.3-.74-.02-.01-.04-.03-.06-.04-.14.11-.28.22-.43.33-.49.35-1.01.64-1.64.58-.27-.02-.57.01-.79-.1-.38-.2-.56-.58-.56-1.02,0-.18,0-.35,0-.6-.32.27-.59.5-.87.72-.38.3-.78.52-1.25.66-.65.19-1.51-.34-1.53-1.23-.01-.71.2-1.37.48-1.99.36-.83.89-1.55,1.58-2.15.69-.59,1.78-.82,2.61-.2.12.09.21.06.28-.05.09-.14.18-.29.26-.44.25-.45.69-.46.97-.33.37.17.51.68.34,1.06-.19.42-.4.82-.56,1.25-.27.77-.51,1.56-.76,2.34,0,.02,0,.03,0,.05,0,.13-.2.3,0,.38.11.05.3-.04.42-.11.78-.43,1.34-1.1,1.91-1.76.47-.55.88-1.13,1.19-1.84-.12-.02-.23-.06-.34-.06-.46-.02-.82-.36-.81-.78,0-.42.37-.76.83-.76.21,0,.41,0,.62,0,.22.01.33-.11.4-.29.19-.51.38-1.02.58-1.52.33-.87.66-1.75,1.01-2.62.34-.87.69-1.73,1.05-2.6.3-.72.59-1.45.93-2.15.42-.89.88-1.77,1.33-2.64.09-.17.24-.31.35-.47.45-.69,1.69-.55,2.07.16.19.35.31.75.46,1.12v1.34Zm-13.23,12.12c-.35-.41-.37-.41-.78-.12-.13.09-.24.19-.36.29-.66.56-.95,1.36-1.3,2.12-.02.05.01.12.02.22.97-.72,1.8-1.49,2.42-2.5Z"/>
    <path class="cls-3" d="m138.92,17.48c-.2-.18-.42-.37-.64-.57-.2.29-.36.57-.56.81-.7.86-1.41,1.72-2.13,2.58-.68.82-1.43,1.57-2.36,2.11-.57.33-1.2.35-1.82.25-.17-.03-.37-.21-.44-.38-.18-.39-.42-.77-.29-1.29-.31.25-.59.46-.84.69-.42.37-.91.61-1.45.71-.51.09-1.18-.3-1.28-.94-.05-.32-.02-.66,0-.99,0-.15-.05-.2-.19-.2-.66,0-1.25-.21-1.77-.61-.17-.13-.26-.02-.32.11-.2.39-.37.8-.6,1.18-.43.72-.86,1.44-1.59,1.93-.59.39-1.43.2-1.79-.28-.17-.24-.28-.52-.42-.78-.04-.07-.08-.15-.15-.28-.16.23-.3.42-.42.62-.63.98-1.33,1.89-2.26,2.6-.49.38-1.04.66-1.72.58-.26-.03-.53.04-.78-.14-.37-.27-.54-.62-.56-1.07-.03-.74.18-1.43.45-2.11.19-.48.38-.96.59-1.44.1-.24.24-.46.39-.73-.34.25-.67.44-.91.71-.16.18-.19.48-.29.72-.46,1.23-1.01,2.41-2.06,3.27-.46.38-.96.68-1.6.61-.12-.01-.24-.02-.36,0-.52.08-.98-.44-1-.94-.02-.34.05-.66.22-.96.4-.72.98-1.27,1.58-1.81.64-.57,1.32-1.09,1.93-1.68.19-.18.27-.52.32-.81.05-.28.02-.58,0-.87,0-.12-.09-.24-.14-.39-.5.32-.83.74-1.14,1.17-.49.68-.97,1.36-1.42,2.07-.52.82-.99,1.67-1.47,2.51-.29.5-.58.59-1.14.39-.26-.09-.42-.55-.31-.9.13-.41.29-.82.43-1.22.13-.38.26-.76.4-1.17-.07.04-.13.06-.18.09-.74.57-1.56.99-2.45,1.25-.71.21-1.43.41-2.21.24-.9-.2-1.37-.77-1.58-1.62-.13-.51-.07-1.02.07-1.52.16-.61.36-1.2.73-1.73.46-.68,1.06-1.17,1.86-1.35,1.42-.31,2.37.84,2.08,2.08-.2.86-.73,1.46-1.49,1.88-.24.13-.48.19-.75.18-.25,0-.5-.01-.75,0-.1,0-.2.06-.3.08.06.12.1.25.18.35.04.05.14.08.21.07.48,0,.95,0,1.44-.16.78-.26,1.52-.6,2.18-1.07.85-.61,1.69-1.27,2.16-2.25.23-.49.35-1.04.53-1.56.27-.79.54-1.57.81-2.36.33-.95.65-1.9.98-2.85.29-.86.59-1.71.89-2.57.33-.95.66-1.91,1.01-2.85.22-.59.84-.7,1.26-.24.22.24.13.55.1.83-.02.17-.11.33-.17.5-.25.74-.49,1.49-.74,2.23-.29.84-.59,1.67-.88,2.5-.22.63-.41,1.26-.63,1.88-.18.54-.39,1.06-.58,1.6-.23.67-.45,1.35-.67,2.03-.12.35-.25.7-.35,1.09.19-.18.38-.36.57-.55.27-.27.57-.47.95-.57.87-.24,1.66.27,1.81,1.15.05.3.16.6.27.98.33-.25.62-.43.87-.66.25-.23.52-.27.82-.16.14.05.2.02.26-.1.46-.76.92-1.52,1.38-2.27.07-.11.14-.22.23-.31.43-.43,1.14-.24,1.29.35.08.31-.11.57-.25.81-.65,1.11-1.33,2.2-1.97,3.32-.5.89-.97,1.8-1.41,2.72-.23.48-.36,1-.53,1.51-.02.06-.01.17.03.19.05.03.15.02.2-.02.31-.22.64-.43.91-.7.67-.65,1.18-1.42,1.64-2.22.4-.69.77-1.4,1.15-2.11.15-.28.32-.56.69-.57.37,0,.68.22.73.6.05.37.05.75.1,1.12.06.45.15.9.24,1.35.02.08.07.15.15.29.19-.21.36-.36.49-.55.69-.96,1.15-2.04,1.58-3.12.21-.52.47-.71,1.02-.6.28.06.38.31.48.55.31.75,1.16,1.06,1.82.81.25-.1.49-.29.66-.51.42-.54.9-1.01,1.47-1.37.7-.44,1.44-.48,2.17-.02.26.16.3.16.45-.12.04-.08.07-.17.12-.25.23-.4.6-.56.97-.41.33.14.53.55.4.96-.11.37-.29.72-.43,1.09-.15.39-.28.78-.44,1.16-.23.53-.38,1.09-.48,1.65-.02.09.02.19.04.29.09-.02.19-.04.28-.07.63-.24,1.02-.78,1.47-1.23.56-.55,1.06-1.16,1.44-1.85.12-.22.33-.39.51-.56.67-.62,1.16-1.35,1.48-2.21.13-.34.33-.66.52-.97.21-.33.68-.46,1.02-.3.29.14.42.47.33.88-.15.68.07,1.18.69,1.51.13.07.25.14.38.21.44.23.55.66.3,1.09-.46.82-.92,1.63-1.35,2.46-.13.25-.16.55-.19.83,0,.07.13.22.21.23.18.02.38.02.55-.04.65-.24,1.2-.63,1.71-1.1.66-.61,1.21-1.31,1.64-2.09.26-.48.94-.53,1.25-.08.12.18.15.69.01.91-.86,1.36-1.85,2.61-3.25,3.47-.72.44-1.51.6-2.34.51-.66-.07-1.19-.7-1.22-1.41-.04-.75.13-1.44.45-2.11.26-.55.51-1.1.78-1.68Zm-10.42,2.97c.03.06.06.17.09.16.09,0,.21-.03.27-.08.23-.2.43-.45.67-.63.58-.41.97-.97,1.35-1.55.04-.07.04-.23-.01-.28-.1-.11-.21-.29-.4-.18-.22.13-.48.26-.63.45-.42.53-.8,1.1-1.18,1.66-.08.12-.11.28-.16.44Zm-24.07-1.95c.14.05.26.12.38.12.42-.02.96-.46,1.07-.88.02-.09.01-.24-.04-.28-.07-.05-.21-.06-.3-.02-.47.21-.81.57-1.11,1.06Z"/>
    <path class="cls-3" d="m69.21,17.48c-.19-.17-.41-.37-.67-.6-.28.35-.53.7-.8,1.03-.25.31-.51.62-.8.89-.37.33-.73.29-1.03-.05-.3-.33-.29-.74.04-1.08.18-.19.39-.35.57-.55.61-.65.98-1.45,1.33-2.26.06-.14.13-.28.2-.41.27-.52.63-.6,1.15-.55.33.03.53.48.42.89-.09.31-.13.62.04.92.2.35.53.55.88.72.53.27.66.71.36,1.24-.44.79-.9,1.59-1.32,2.39-.11.21-.14.47-.18.71-.04.23.1.33.3.36.31.05.58-.03.86-.18,1-.54,1.8-1.31,2.43-2.26.21-.31.39-.64.62-.93.26-.33.68-.38.97-.17.4.3.5.68.24,1.07-.28.43-.6.83-.89,1.25-.42.61-.9,1.17-1.5,1.6-.68.49-1.37,1.03-2.24,1.14-.51.07-1.05.1-1.52-.2-.42-.26-.67-.66-.71-1.15-.02-.28.03-.57.07-.85.04-.26.05-.53.15-.77.32-.74.68-1.46,1.03-2.22Z"/>
  </g>
  <text class="cls-4" transform="translate(50.3 47.24) scale(.94 1)"><tspan x="0" y="0">ORTHOPEDIC &amp; HAND CLINIC</tspan></text>
  <rect class="cls-3" x="50.36" y="35.79" width="144.34" height=".72"/>
  <path class="cls-3" d="m48.12,25.53c0,13.29-10.77,24.06-24.06,24.06S0,38.81,0,25.53,10.77,1.47,24.06,1.47s24.06,10.77,24.06,24.06ZM24.06,2.39C11.28,2.39.92,12.75.92,25.53s10.36,23.14,23.14,23.14,23.14-10.36,23.14-23.14S36.84,2.39,24.06,2.39Z"/>
  <g>
    <path class="cls-3" d="m2.28,33.48s5.26,15.3,21.62,15.43c17.36.14,21.92-15.53,21.92-15.53l-2.55-.73s-.27-.07-.54-.07-.4.6-.4.6c0,0-4.29,11.93-18.04,12.21-12.81.27-18.51-12.21-18.51-12.21,0,0-.2-.46-.4-.6s-.8.13-.8.13l-2.31.76Z"/>
    <g>
      <path class="cls-3" d="m43.6,22.5c.72.46,1.27.96,1.51,1.72.06.2.06.43.03.63-.01.09-.15.19-.25.23-.07.03-.22-.02-.26-.09-.26-.42-.53-.83-.73-1.28-.15-.36-.2-.76-.31-1.22Z"/>
      <path class="cls-3" d="m45.03,19.31c-.73-.71-.87-2.14-.42-2.96.7.59.93,2.18.42,2.96Z"/>
      <path class="cls-3" d="m44.03,20.22c-1.05-.52-1.2-1.54-1.5-2.56.66.49,1.25.96,1.64,1.63.19.32.14.62-.14.93Z"/>
      <path class="cls-3" d="m43.23,20.33c.61.3,1.18.64,1.47,1.3.06.13.12.27.11.41,0,.14-.05.32-.15.42-.16.16-.35.05-.46-.09-.27-.36-.54-.72-.76-1.11-.15-.26-.2-.58-.29-.87l.07-.06Z"/>
      <path class="cls-3" d="m46.75,22.47c.32.75-.02,2.2-.6,2.56-.46-.74-.35-1.38.6-2.56Z"/>
      <path class="cls-3" d="m43.61,26.8c.47.56.94,1.03,1.14,1.68.12.4.04.7-.28.86-.76-.66-.83-1.55-.86-2.54Z"/>
      <path class="cls-3" d="m45.89,22.9c-.66-1.01.03-1.76.41-2.59.41.79.21,2.1-.41,2.59Z"/>
      <path class="cls-3" d="m43.76,25.01c.53.35.93.69,1.16,1.21.22.49.2.64-.16,1.13-.74-.58-.82-1.43-1-2.33Z"/>
      <path class="cls-3" d="m46.91,24.89c.05.91-.04,1.77-.79,2.39-.07-.11-.15-.2-.21-.31-.24-.49.07-.88.3-1.25.19-.3.46-.56.69-.83Z"/>
      <path class="cls-3" d="m45.88,29.37c-.52-.72-.11-1.22.32-1.7.2-.22.43-.4.71-.64-.11.94-.28,1.77-1.03,2.34Z"/>
      <path class="cls-3" d="m45.58,31.4c-.43-.64-.32-.69.05-1.17.33-.43.73-.82,1.14-1.18-.15.92-.38,1.77-1.19,2.35Z"/>
      <path class="cls-3" d="m43.58,28.96c.29.5.6.99.86,1.51.15.3.04.61-.22.87-.72-.63-.75-1.47-.77-2.32.04-.02.08-.04.13-.06Z"/>
      <path class="cls-3" d="m45.63,20.78c-.36-.12-.35-.41-.29-.69.12-.53.28-1.06.43-1.64.42.76.34,1.75-.14,2.33Z"/>
    </g>
    <g>
      <path class="cls-3" d="m4.84,22.5c-.27,1.06-.33,2.14-1.36,2.74-.45-.49-.25-.97-.01-1.42.29-.56.76-.96,1.37-1.32Z"/>
      <path class="cls-3" d="m3.82,16.3c.26.54.35,1.09.22,1.63-.12.51-.35.99-.55,1.54-.58-.86-.43-2.19.33-3.17Z"/>
      <path class="cls-3" d="m5.92,17.76c-.29.92-.37,1.96-1.43,2.43-.33-.4-.38-.66-.07-1.04.43-.52.92-.99,1.38-1.49l.12.09Z"/>
      <path class="cls-3" d="m5.32,20.24c-.21.84-.44,1.56-1.03,2.11-.18.17-.38.21-.53.06-.11-.11-.15-.34-.12-.5.09-.46.37-.82.75-1.09.27-.2.57-.36.93-.58Z"/>
      <path class="cls-3" d="m4.05,29.31c-.47-.27-.47-.29-.39-.78.13-.72.66-1.16,1.14-1.73-.01.96-.1,1.81-.76,2.51Z"/>
      <path class="cls-3" d="m3.34,26.9c-.01-.85.57-1.39,1.29-1.89-.07.79-.14,1.53-.67,2.13-.18.2-.32.19-.44-.07-.02-.05-.08-.08-.17-.17Z"/>
      <path class="cls-3" d="m2.29,25.12c-.74-.75-.83-1.67-.68-2.71.65.83,1.21,1.61.68,2.71Z"/>
      <path class="cls-3" d="m2.86,31.41c-.82-.59-1.11-1.42-1.29-2.31.02-.02.05-.04.07-.06.41.44.83.87,1.23,1.32.29.33.27.68,0,1.04Z"/>
      <path class="cls-3" d="m2.4,22.82c-.6-.74-.57-1.61-.38-2.54.69,1.02.89,1.77.67,2.44-.09.03-.17.06-.29.11Z"/>
      <path class="cls-3" d="m2.53,29.32c-.71-.58-.96-1.35-1.05-2.27.62.45,1.12.93,1.31,1.63.07.24.02.49-.26.64Z"/>
      <path class="cls-3" d="m1.53,24.85c.31.45.63.9.92,1.37.15.24.21.5-.04.75-.05.05,0,.2,0,.35-.84-.64-.97-1.5-.98-2.41.04-.02.07-.03.11-.05Z"/>
      <path class="cls-3" d="m4.96,29.03c-.02.63-.03,1.27-.36,1.84-.07.12-.15.26-.27.32-.07.04-.29-.02-.3-.07-.05-.27-.2-.54-.02-.82.28-.44.56-.89.84-1.33.04.02.07.03.11.05Z"/>
      <path class="cls-3" d="m2.62,18.5c.13.43.29.83.38,1.25.09.39.22.81-.14,1.16-.43-.33-.71-1.71-.24-2.4Z"/>
    </g>
    <g>
      <text class="cls-2" transform="translate(7.63 14.25) rotate(-48.65)"><tspan x="0" y="0">D</tspan></text>
      <text class="cls-2" transform="translate(9.15 12.52) rotate(-43.43)"><tspan x="0" y="0">r</tspan></text>
      <text class="cls-2" transform="translate(10.96 10.84) rotate(-39.5)"><tspan x="0" y="0"> </tspan></text>
      <text class="cls-2" transform="translate(11.65 10.23) rotate(-35.41)"><tspan x="0" y="0">R</tspan></text>
      <text class="cls-2" transform="translate(13.63 8.82) rotate(-28.92)"><tspan x="0" y="0">e</tspan></text>
      <text class="cls-2" transform="translate(15.7 7.66) rotate(-21.63)"><tspan x="0" y="0">b</tspan></text>
      <text class="cls-2" transform="translate(17.94 6.74) rotate(-12.65)"><tspan x="0" y="0">w</tspan></text>
      <text class="cls-2" transform="translate(20.88 6.08) rotate(-2.29)"><tspan x="0" y="0">a</tspan></text>
      <text class="cls-2" transform="translate(23.76 5.98) rotate(5.11)"><tspan x="0" y="0">r</tspan></text>
      <text class="cls-2" transform="translate(26.2 6.23) rotate(9.6)"><tspan x="0" y="0"> </tspan></text>
      <text class="cls-2" transform="translate(27.11 6.33) rotate(14.69)"><tspan x="0" y="0">A</tspan></text>
      <text class="cls-2" transform="translate(29.93 7.12) rotate(19.92)"><tspan x="0" y="0">.</tspan></text>
      <text class="cls-2" transform="translate(30.88 7.46) rotate(22.49)"><tspan x="0" y="0"> </tspan></text>
      <text class="cls-2" transform="translate(31.76 7.78) rotate(27.45)"><tspan x="0" y="0">A</tspan></text>
      <text class="cls-2" transform="translate(34.33 9.13) rotate(33.62)"><tspan x="0" y="0">l</tspan></text>
      <text class="cls-2" transform="translate(36.05 10.28) rotate(38.51)"><tspan x="0" y="0">l</tspan></text>
      <text class="cls-2" transform="translate(37.7 11.56) rotate(44.3)"><tspan x="0" y="0">a</tspan></text>
      <text class="cls-2" transform="translate(39.78 13.61) rotate(50.56)"><tspan x="0" y="0">f</tspan></text>
    </g>
    <path class="cls-3" d="m28,27.16c.3-.5.59-1.01.9-1.5.2-.32.42-.62.65-.9.22-.26.48-.46.83-.35.35.11.53.41.61.79.07.35.11.7.21,1.04.2.73.63.9,1.16.38.48-.47.88-1.05,1.31-1.59.13-.16.21-.38.35-.53.13-.14.35-.33.46-.29.19.07.39.28.46.49.22.63.21.66.82.69.94.04,1.81-.31,2.64-.78.75-.42,1.46-.94,2.18-1.42.27-.18.52-.44.95-.38-.09.24-.15.45-.26.63-.46.75-1.11,1.26-1.82,1.64-.81.43-1.63.86-2.48,1.15-.91.31-1.82.27-2.55-.58-.33.44-.64.86-.96,1.26-.17.21-.36.4-.57.57-.84.67-1.81.39-2.27-.69-.18-.42-.29-.87-.44-1.35-.09.08-.2.15-.26.26-.43.69-.84,1.39-1.27,2.08-.13.21-.29.4-.44.6-.17.22-.39.43-.62.27-.2-.15-.43-.43-.45-.67-.05-.59-.02-1.2.05-1.79.11-1.08.27-2.16.4-3.24,0-.06,0-.12-.05-.2-.1.25-.21.5-.3.76-.45,1.33-.87,2.66-1.35,3.98-.45,1.24-1.17,2.28-2.08,3.16-.22.21-.44.42-.68.59-.8.56-1.29.4-1.79-.62-.11-.22-.15-.47-.24-.75-.24.12-.47.25-.71.35-.84.34-1.62.14-2.23-.47-.64-.64-1.21-1.38-1.76-2.13-.54-.74-.51-.76-1.32-.36-.44.22-.9.42-1.36.54-.58.15-.94-.05-1.29-.63-.18.52-.33,1.01-.5,1.49-.65,1.78-1.28,3.57-2.47,5.03-.16.19-.33.37-.51.52-.23.2-.48.12-.64-.14-.28-.47-.23-.99-.11-1.48.28-1.13.6-2.24.91-3.36.76-2.67,1.77-5.23,3.14-7.59.73-1.26,1.44-2.57,2.56-3.49.74-.61,1.49-1.18,2.42-1.36.67-.12,1.19.07,1.62.67.53.73.74,1.57.73,2.48-.02,1.17-.03,2.34-.52,3.46-.41.95-1.02,1.68-1.74,2.33-.25.22-.52.43-.68.57.54.85,1.04,1.68,1.59,2.48.15.22.4.35.63.49.65.4,1.85-.23,2.26-.89.07-.12.08-.29.1-.44.17-1.12.45-2.21,1.07-3.15.17-.26.31-.65.72-.53.32.09.55.42.53.91-.01.37-.05.78-.2,1.11-.37.84-.8,1.66-1.23,2.47-.24.47-.2,1.42.13,1.9.61-.22,1.05-.73,1.5-1.21.91-.98,1.55-2.16,2.03-3.44.68-1.83,1.35-3.67,2-5.51.13-.36.18-.74.28-1.11.03-.11.09-.28.16-.3.1-.03.29.03.32.11.11.26.26.56.24.83-.08.97-.23,1.93-.35,2.89-.17,1.33-.35,2.67-.52,4,0,.07,0,.14,0,.22.03.02.07.03.1.05Zm-15.4-.57s.04.02.06.03c.05-.06.11-.12.16-.18.8-.72,1.62-1.32,2.7-.87.1.04.27,0,.38-.07,1.59-1.06,2.68-2.49,2.8-4.64.05-.91.17-1.82-.22-2.66-.26-.56-.5-.68-1.05-.51-1.21.37-2.23,1.09-3.06,2.16-.37.48-.7.89-.75,1.62-.07,1.15-.37,2.29-.6,3.43-.11.57-.28,1.12-.43,1.68Zm.29-4.4c-2,3.07-2.91,6.6-3.72,10.18,1.96-3.08,2.83-6.64,3.72-10.18Z"/>
    <g>
      <text class="cls-1" transform="translate(3.26 35.58) rotate(61.15) scale(1.04 1)"><tspan x="0" y="0">O</tspan></text>
      <text class="cls-1" transform="translate(4.38 37.59) rotate(56.07) scale(1.04 1)"><tspan x="0" y="0">r</tspan></text>
      <text class="cls-1" transform="translate(5.67 39.49) rotate(51.23) scale(1.04 1)"><tspan x="0" y="0">t</tspan></text>
      <text class="cls-1" transform="translate(7.01 41.16) rotate(46.15) scale(1.04 1)"><tspan x="0" y="0">h</tspan></text>
      <text class="cls-1" transform="translate(8.62 42.83) rotate(40.56) scale(1.04 1)"><tspan x="0" y="0">o</tspan></text>
      <text class="cls-1" transform="translate(10.39 44.33) rotate(34.8) scale(1.04 1)"><tspan x="0" y="0">p</tspan></text>
      <text class="cls-1" transform="translate(12.2 45.58) rotate(28.85) scale(1.04 1)"><tspan x="0" y="0">e</tspan></text>
      <text class="cls-1" transform="translate(14.2 46.67) rotate(22.77) scale(1.04 1)"><tspan x="0" y="0">d</tspan></text>
      <text class="cls-1" transform="translate(16.27 47.51) rotate(18.17) scale(1.04 1)"><tspan x="0" y="0">i</tspan></text>
      <text class="cls-1" transform="translate(17.36 47.88) rotate(13.89) scale(1.04 1)"><tspan x="0" y="0">c</tspan></text>
      <text class="cls-1" transform="translate(19.42 48.37) rotate(9.94) scale(1.04 1)"><tspan x="0" y="0"> </tspan></text>
      <text class="cls-1" transform="translate(20.38 48.57) rotate(5.42) scale(1.04 1)"><tspan x="0" y="0">a</tspan></text>
      <text class="cls-1" transform="translate(23.11 48.82) rotate(-1.04) scale(1.04 1)"><tspan x="0" y="0">n</tspan></text>
      <text class="cls-1" transform="translate(25.36 48.79) rotate(-5.3) scale(1.04 1)"><tspan x="0" y="0">d</tspan></text>
      <text class="cls-1" transform="translate(27.52 48.57) rotate(-9.12) scale(1.04 1)"><tspan x="0" y="0"> </tspan></text>
      <text class="cls-1" transform="translate(28.49 48.43) rotate(-13.26) scale(1.04 1)"><tspan x="0" y="0">H</tspan></text>
      <text class="cls-1" transform="translate(30.77 47.9) rotate(-20.02) scale(1.04 1)"><tspan x="0" y="0">a</tspan></text>
      <text class="cls-1" transform="translate(33.38 46.92) rotate(-26.78) scale(1.04 1)"><tspan x="0" y="0">n</tspan></text>
      <text class="cls-1" transform="translate(35.37 45.9) rotate(-32.68) scale(1.04 1)"><tspan x="0" y="0">d</tspan></text>
      <text class="cls-1" transform="translate(37.2 44.7) rotate(-36.74) scale(1.04 1)"><tspan x="0" y="0"> </tspan></text>
      <text class="cls-1" transform="translate(37.99 44.13) rotate(-40.59) scale(1.04 1)"><tspan x="0" y="0">C</tspan></text>
      <text class="cls-1" transform="translate(39.6 42.74) rotate(-45.54) scale(1.04 1)"><tspan x="0" y="0">l</tspan></text>
      <text class="cls-1" transform="translate(40.98 41.3) rotate(-49.14) scale(1.04 1)"><tspan x="0" y="0">i</tspan></text>
      <text class="cls-1" transform="translate(41.75 40.43) rotate(-52.84) scale(1.04 1)"><tspan x="0" y="0">n</tspan></text>
      <text class="cls-1" transform="translate(43.04 38.71) rotate(-56.42) scale(1.04 1)"><tspan x="0" y="0">i</tspan></text>
      <text class="cls-1" transform="translate(43.69 37.74) rotate(-60.09) scale(1.04 1)"><tspan x="0" y="0">c</tspan></text>
    </g>
  </g>
</svg>