<?xml version="1.0" encoding="UTF-8"?>
<svg id="Layer_1" data-name="Layer 1" xmlns="http://www.w3.org/2000/svg" viewBox="0 0 4233.14 1054">
  <defs>
    <style>
      .cls-1, .cls-2 {
        fill: #17479c;
      }

      .cls-3 {
        fill: #4476bb;
      }

      .cls-2 {
        font-family: TimesNewRomanPS-ItalicMT, 'Times New Roman';
        font-size: 228.13px;
        font-style: italic;
        letter-spacing: .02em;
      }

      .cls-4 {
        fill: none;
        stroke: #4476bb;
        stroke-miterlimit: 10;
        stroke-width: 20px;
      }
    </style>
  </defs>
  <g>
    <path class="cls-1" d="m3738.08,11.88c10.18,3.52,13.67,11.99,12.98,21.3-1.21,16.29-3.4,32.58-6.26,48.67-3.18,17.88-7.4,35.58-11.49,53.29-2.02,8.73-4.97,17.23-7.13,25.93-2.42,9.74-4.04,19.69-6.67,29.37-4.21,15.51-9.02,30.86-13.49,46.3-8.04,27.78-15.88,55.61-24.06,83.34-4.3,14.58-9.06,29.04-13.76,43.5-2.1,6.46-1.55,7.67,5.11,7.56,9.57-.16,19.13-.86,28.7-.91,8.02-.05,17.01-2.62,22.15,8.5,5.33-15.36,10.18-29.19,14.92-43.06,5.93-17.32,11.82-34.65,17.63-52.01,6.97-20.82,13.66-41.74,20.8-62.5,4.71-13.71,10.15-27.17,14.98-40.84,4.69-13.28,8.98-26.7,13.55-40.02,1.25-3.64,3.07-7.09,4.33-10.73,5.13-14.83,10.03-29.74,15.24-44.54,5.78-16.45,11.61-32.89,17.79-49.2,3.26-8.6,11.05-12.51,18.85-10.3,8.06,2.28,12.52,8.73,10.69,18.04-1.72,8.75-4.79,17.26-7.65,25.75-5.73,17.02-11.65,33.98-17.64,50.91-6.78,19.16-13.86,38.21-20.57,57.39-6.17,17.64-11.88,35.45-18.08,53.08-5.36,15.23-11.25,30.26-16.69,45.46-5.1,14.27-10.04,28.61-14.82,42.99-6.33,19.02-12.44,38.1-18.64,57.16-5.11,15.7-10.19,31.4-15.32,47.09-5.85,17.91-11.98,35.74-17.54,53.74-4.47,14.48-8.17,29.19-12.42,43.74-3.59,12.28-7.52,24.46-11.22,36.7-2.49,8.22-4.88,16.47-7.21,24.74-.26.93.13,2.04.32,4.26,2.2-1.53,4.04-2.3,5.16-3.67,12.95-15.83,25.68-31.85,38.77-47.57,2.44-2.93,6.32-4.61,9.37-7.08,2.15-1.75,5.03-3.5,5.84-5.85,3.3-9.52,5.81-19.3,8.81-28.93,5.72-18.36,11.52-36.71,17.4-55.02,5.32-16.55,10.83-33.05,16.22-49.58,6.29-19.32,12.34-38.72,18.87-57.95,4.77-14.04,10.35-27.81,15.19-41.83,5.48-15.9,10.49-31.96,15.8-47.92,5.48-16.48,10.94-32.97,16.67-49.36,5.18-14.83,10.8-29.51,16.09-44.31,6.09-17.03,11.99-34.13,18.05-51.18,5.28-14.86,10.69-29.68,16.01-44.53,2.09-5.84,4.5-11.62,5.98-17.63,1.56-6.3,9.04-10.07,18.16-9.05,5.04.57,10.89,7.13,10.98,13.05.07,4.52-.35,9.3-1.79,13.53-6.77,19.88-14.05,39.59-21,59.41-8.42,24-16.66,48.07-25.06,72.08-5.93,16.96-12.13,33.83-17.95,50.82-8.86,25.84-17.44,51.78-26.27,77.63-5.34,15.62-11.09,31.11-16.38,46.75-4.34,12.84-8.2,25.84-12.38,38.74-3.67,11.3-7.63,22.51-11.21,33.85-5.73,18.18-11.22,36.44-16.86,54.65-4.13,13.31-8.39,26.58-12.49,39.89-3.01,9.8-5.96,19.62-8.74,29.49-2.57,9.14-4.92,18.34-7.28,27.53-.25.98.05,2.11.17,4.68,2.6-2.87,4.18-5.02,6.14-6.73,15.21-13.23,25.34-30.62,37.78-46.11,5.46-6.81,14.92-9.24,21.47-4.85,7.1,4.76,9.73,15.47,4.98,22.58-16.63,24.88-34.61,48.76-57.64,68.14-6.75,5.68-15.02,10.02-23.26,13.32-13.96,5.6-26.75-3.26-27.23-18.45-.19-5.98,1.41-12.02,2.22-18.03.15-1.15.42-2.28-.47-4.12-2.19,2.3-4.52,4.49-6.56,6.92-10.5,12.57-22.36,23.52-37.11,30.94-3.74,1.88-7.75,3.66-11.82,4.35-10.31,1.75-21.42-5.33-21.59-17.42-.14-10.48,1.75-21.12,3.8-31.48,2.55-12.9,5.74-25.71,9.44-38.33,9.48-32.35,19.33-64.59,29.16-96.83,4.62-15.16,9.57-30.21,14.33-45.33.53-1.68.83-3.42,1.17-4.85-18.81,1.21-37.29,2.43-55.78,3.56-4.05.25-5.68,2.77-6.78,6.16-7.59,23.29-15.41,46.51-22.78,69.87-7.52,23.83-14.47,47.84-21.92,71.69-5.5,17.59-11.46,35.05-17.14,52.58-6.9,21.27-13.68,42.57-20.61,63.83-2.05,6.28-4.51,12.43-6.61,18.69-2.21,6.58-3.78,13.4-6.41,19.79-3.77,9.15-13.07,13.54-20.47,10.13-7.28-3.36-13.49-13.83-9.64-23.62,7.27-18.52,13.11-37.59,19.48-56.46,5.81-17.23,11.64-34.46,17.28-51.75,7.11-21.79,14.03-43.64,21.03-65.46,6.14-19.12,12.19-38.27,18.46-57.35,2.78-8.46,6.31-16.67,8.94-25.17,2.91-9.39,5.38-18.94,7.62-28.52.82-3.52-2.19-4.21-4.99-4.07-13.79.66-27.57,1.39-41.36,2.11-20.23,1.06-40.46,2.22-60.7,3.16-6.49.3-9.09,4.94-11.62,9.64-9.11,16.98-18.07,34.05-27.12,51.06-16.99,31.92-33.95,63.85-51.04,95.7-5.91,11.02-12.13,21.87-18.35,32.72-4.59,8.02-12.34,5.24-18.96,4.68-6.14-.52-6.1-6.32-7.06-10.93-2.45-11.82,4.24-20.99,9.19-30.46,11.39-21.83,23.21-43.43,34.94-65.07,8.3-15.31,16.87-30.47,25.07-45.82,6.6-12.35,12.84-24.88,19.62-38.08-2.1-.61-3.57-1.45-5-1.39-24.29,1.02-48.56,2.32-72.85,3.19-12.74.45-25.5.38-38.25.14-4.88-.09-8.62-2.64-10.58-7.55-4.76-11.88-.5-20.54,12.15-23.56,4.6-1.1,9.39-1.79,14.12-1.92,19.9-.55,39.8-.78,59.7-1.2,14.56-.31,29.12-1.14,43.67-.96,10.75.14,17.42-3.9,22.69-13.62,15.24-28.11,31.57-55.63,47.29-83.48,14.7-26.04,29.08-52.27,43.8-78.3,10.12-17.89,20.24-35.8,30.98-53.32,16.6-27.09,33.36-54.1,50.79-80.65,9.68-14.75,20.62-28.7,31.46-42.66,7.01-9.02,15.1-16.95,28.12-15.56.42.04.9-.51,1.35-.79,3.33,0,6.65,0,9.98,0Zm-21.61,47.21c-.3-.16-.6-.31-.9-.47-2.78,3.77-5.69,7.46-8.31,11.34-11.83,17.51-23.84,34.91-35.26,52.69-8.73,13.57-16.65,27.66-24.97,41.5-9.56,15.91-19.25,31.74-28.7,47.71-5.6,9.47-10.77,19.2-16.29,28.73-8.57,14.79-17.51,29.38-25.86,44.29-9.23,16.48-17.87,33.3-26.97,49.85-7.42,13.5-15.13,26.83-23.11,40.94,5.2.39,10.09,1.21,14.96,1.06,18.03-.56,36.03-1.73,54.06-2.09,11.43-.23,22.78,0,33.95-3.16,3.22-.91,5.02-1.97,5.96-5.38,4.24-15.36,8.73-30.65,13.25-45.92,2.7-9.11,5.84-18.09,8.43-27.23,5.63-19.82,10.9-39.74,16.58-59.55,6.57-22.91,13.47-45.73,20.11-68.61,4.49-15.45,9.3-30.84,12.99-46.48,3.15-13.34,4.95-27,7.25-40.53,1.06-6.21,1.88-12.45,2.81-18.68Z"/>
    <path class="cls-1" d="m2312.92,734.71c-8.94-10.05-17.81-20.18-27.27-29.72-5.51-5.56-18.44-17.59-23.41-21.83-12.34-10.53-24.22-21.74-37.4-31.1-24.68-17.53-49.68-34.71-75.46-50.55-18.57-11.42-38.55-20.59-58.04-30.48-12.04-6.11-24.17-12.1-36.6-17.35-11.38-4.81-23.16-8.66-34.84-12.75-15.18-5.32-30.38-10.6-45.67-15.6-10.79-3.53-21.7-6.69-32.63-9.77-8.26-2.33-16.63-4.25-24.93-6.41-4.48-1.17-7.38,0-8.79,4.79-2.7,9.14-5.46,18.27-8.65,27.25-4.95,13.88-10.48,27.55-15.36,41.45-1.92,5.46-2.73,11.32-4.12,16.97-2.01,8.17-3.94,16.36-6.19,24.46-2.71,9.72-5.53,19.41-8.68,28.99-2.67,8.09-10.38,11.71-19.08,9.47-8.13-2.09-12.05-7.37-10.28-16.16,2.59-12.9,5.8-25.71,9.37-38.38,4.76-16.9,10-33.67,15.25-50.43,5.32-16.98,10.79-33.92,16.47-50.79,1.58-4.68.34-6.53-4.34-6.94-7.12-.62-14.27-1.12-21.3-2.29-3.7-.62-7.29-2.34-10.74-3.98-4.67-2.22-7.31-11.9-4.66-17.75,2.43-5.36,6-9.17,12.69-9.98,13.09-1.6,26.12-3.85,39.1-6.28,5.52-1.03,8.55-5.39,10.41-10.53,4.09-11.35,8.17-22.71,12.36-34.03,6.01-16.27,11.94-32.57,18.21-48.74,8.35-21.51,16.96-42.93,25.55-64.35,6.81-17,13.78-33.94,20.64-50.92,6.3-15.58,12.61-31.15,18.82-46.77,3.71-9.34,7.19-18.78,10.84-28.14.93-2.37,2.13-4.63,3.86-8.35-3.1,1.63-5.37,2.45-7.2,3.84-20.55,15.63-41.49,30.81-59.64,49.33-8.78,8.97-17.25,18.24-25.96,27.28-7.81,8.11-15.34,9.14-22.28,3.26-6.97-5.89-8.37-16.83-1.82-24.4,10.24-11.83,20.97-23.3,32.21-34.18,11.12-10.76,22.44-21.54,34.9-30.62,19.13-13.93,39.18-26.62,59.1-39.43,9.75-6.27,17.14-13.52,19.79-25.49,1.55-7,5.52-13.48,8.49-20.16,6.71-15.07,13.16-30.27,20.38-45.1,2.78-5.7,6.82-10.85,14.83-10.45,11.1.56,18.97,10.97,14.79,21.3-5.63,13.92-12.05,27.51-18.14,41.25-.43.98-.93,1.93-2.05,4.21,2.71-.37,4.57-.24,6.11-.88,17.61-7.31,35-15.19,52.81-21.99,13.2-5.04,26.78-9.27,40.45-12.85,15.8-4.14,31.8-7.67,47.88-10.5,9.93-1.75,20.19-1.57,30.27-2.51,4.34-.41,8.6-1.72,12.94-2.17,10.97-1.14,21.46,1.83,32.16,3.64,8.55,1.44,16.13,4.2,23.18,8.95,13.86,9.35,19.94,23.05,21.61,39.1,2.18,20.98-2.35,40.86-10.3,60.12-10.78,26.12-23.97,50.93-41.43,73.23-13.74,17.56-27.3,35.35-42.22,51.87-15.33,16.98-31.86,32.94-48.54,48.64-13.96,13.13-28.6,25.59-43.46,37.71-21.67,17.68-44.57,33.7-68.68,47.92-10.56,6.22-21.3,12.13-31.92,18.25-6.33,3.65-12.49,7.61-18.89,11.12-7.85,4.31-15.7,8.68-23.85,12.34-16.71,7.49-33.51,14.79-50.5,21.61-8.23,3.3-16.96,5.35-26.45,8.26,6.1,1.78,11.52,3.44,16.99,4.92,9.13,2.48,18.37,4.58,27.42,7.31,11.19,3.37,22.35,6.9,33.31,10.94,14.74,5.43,29.42,11.1,43.88,17.24,23.56,10.01,47.21,19.89,70.27,30.96,15.57,7.47,30.43,16.52,45.18,25.56,16.71,10.25,33.38,20.66,49.28,32.1,27.55,19.81,54.14,40.91,78.01,65.17,11.65,11.83,23.22,23.73,35.12,35.9,12.86,11.97-4.69,38.29-23.14,24.39Zm-379.88-288.84c.55.12,1.62.69,2.46.45,4.19-1.15,8.43-2.27,12.46-3.86,7.25-2.86,14.37-6.02,21.53-9.1,12.59-5.41,25.36-10.47,37.72-16.37,26.85-12.79,53.01-27.03,77.26-44.23,25.37-17.99,50.41-36.56,74.51-56.2,27.65-22.53,52.75-47.94,75.71-75.25,25.86-30.74,49.56-62.99,66.7-99.7,6.96-14.89,11.92-29.89,10.39-46.47-.62-6.74-2.8-13.01-8.73-16.98-10.52-7.06-22.65-8.95-34.8-8.25-12.4.72-24.65,4.02-37.06,4.87-20.54,1.4-40.2,6.82-59.46,13.07-25.78,8.37-50.95,18.68-76.25,28.48-9.46,3.66-18.68,7.99-27.79,12.48-12.34,6.08-16.09,18.45-20.92,29.91-5.9,14.01-11.62,28.1-17.47,42.13-6.99,16.74-14.22,33.39-20.99,50.22-5.53,13.76-10.38,27.79-15.8,41.59-5.7,14.52-11.83,28.88-17.58,43.39-5.55,13.99-10.83,28.08-16.29,42.1-6.83,17.53-13.79,35-20.57,52.55-1.82,4.7-3.21,9.57-5.05,15.16Z"/>
    <path class="cls-1" d="m1120.55,651.84c1.7-7.59,2.97-15.31,5.22-22.74,3.34-11.03,6.63-22.18,11.26-32.7,14.89-33.87,34.43-65.04,58.44-93.12,13.02-15.23,27.49-29.31,42.05-43.12,8.51-8.08,18.18-15.07,31.34-13.62,7.03.78,12.49,5.14,14.18,12.48,1.32,5.73-1.59,12.45-7.35,15.34-21.29,10.67-36.72,27.87-51.75,45.64-16.72,19.77-31.48,40.93-44.14,63.44-11.97,21.3-22.62,43.32-27.83,67.45-1.7,7.86-.63,15.63,4.26,22.13,2.07,2.76,5.5,5.34,8.78,6.2,16.37,4.27,31.89,1.06,46.02-7.72,24.8-15.41,44.01-36.28,61.17-59.95,12.71-17.53,23.28-36.1,33.6-54.86,10.54-19.16,19.91-39.01,28.77-59.01,7.97-17.98,15.03-36.41,21.64-54.94,9.23-25.87,18.08-51.89,26.27-78.11,4.84-15.5,8.01-31.52,12.06-47.27,3.41-13.27,7.31-26.42,10.41-39.75,1.48-6.38,1.38-13.11,2.37-19.63,1.63-10.7,3.6-21.35,5.36-32.03,4.61-28.02,4.57-56.27,3.8-84.52-.22-8.21-1.59-16.49-3.36-24.53-2.45-11.09-11.83-14.22-20.44-7.34-15.56,12.44-28.01,27.77-39.66,43.7-12.81,17.51-25.49,35.16-37.33,53.34-11.33,17.39-21.79,35.37-32.14,53.38-16.65,28.94-33.18,57.95-49.22,87.23-14.65,26.74-28.63,53.85-42.8,80.85-3.48,6.64-6.34,13.61-9.85,20.24-4.57,8.64-10.18,10.92-19.65,8.57-5.95-1.48-10.01-6.54-10.5-13.16-1-13.43,1.34-26.46,5.4-39.14,6.65-20.78,13.28-41.58,20.68-62.1,7.65-21.2,16.19-42.07,24.37-63.07,6.84-17.58,13.58-35.2,20.63-52.69,5.82-14.43,12.1-28.69,18.08-43.06,6.84-16.44,13.47-32.96,20.37-49.36,9.3-22.1,18.72-44.14,28.18-66.17,2.82-6.56,12.23-9.7,20.09-6.96,7.28,2.54,11.69,10.84,9.27,18.99-1.82,6.13-4.67,11.96-7.19,17.88-7.19,16.87-14.54,33.66-21.65,50.56-10.95,26.03-21.82,52.09-32.58,78.2-4.31,10.45-8.24,21.06-11.51,31.97,6.02-10.07,11.86-20.24,18.08-30.17,14.34-22.87,28.35-45.99,43.52-68.3,9.49-13.95,21.61-26.11,31.16-40.03,7.92-11.55,16.8-21.85,27.57-30.64,4.41-3.6,8.69-7.44,13.48-10.45,22.56-14.14,44.12-5.11,56.84,15.8,6.37,10.48,9.39,21.93,9.54,34.45.15,12.1,2.9,24.2,2.74,36.27-.25,18.77-1.6,37.56-3.25,56.27-1.06,12.05-3.27,24.02-5.4,35.94-.87,4.84-3.36,9.37-4.29,14.21-1.31,6.79-1.26,13.87-2.88,20.56-2.67,11.02-6.52,21.74-9.31,32.73-4.35,17.17-7.9,34.54-12.39,51.67-3.56,13.58-7.92,26.95-12.12,40.35-3.54,11.28-7.3,22.49-11.08,33.69-1.28,3.81-2.81,7.55-4.38,11.26-10.27,24.32-20.61,48.6-30.87,72.92-11.59,27.48-27.93,52.3-42.96,77.89-18.68,31.8-41.97,59.25-72.1,80.5-10.69,7.54-22.52,12.99-35.57,16.41-10.35,2.71-20.41,3.96-30.92,3.86-26.35-.25-46.93-19.04-49.45-45.32-.08-.82-.7-1.6-1.06-2.39,0-4.81,0-9.61,0-14.42Z"/>
    <path class="cls-1" d="m4215,130.55c-1.85,9.35-3.48,18.76-5.6,28.04-4.69,20.49-11.17,40.38-22.19,58.44-5.55,9.08-13.34,11.17-22.28,6.85-8.58-4.16-11.56-14.7-6.09-24.03,14.33-24.43,21.79-50.86,23.81-78.96.33-4.54.34-9.12.18-13.67-.04-1.12-1.3-2.19-2-3.29-.97.66-2.39,1.1-2.85,2.01-8.46,16.91-16.98,33.78-25.11,50.85-5.83,12.25-11.37,24.66-16.57,37.2-8.56,20.68-16.88,41.47-25.03,62.32-5.59,14.29-10.6,28.81-16.08,43.14-4.48,11.71-9.27,23.29-13.89,34.95-.32.81-.35,1.73-.72,3.66,7.06.4,13.75,1.01,20.46,1.09,11.83.15,23.66.13,35.48-.1,12.34-.24,24.68-1.02,37.02-1.17,10.1-.12,16.02,6.22,15.96,16.34-.06,9.24-6.77,15.75-16.14,15.9-18.6.28-37.2.7-55.8,1.01-13.61.23-27.22.31-40.82.59-7.95.16-9.88,1.94-12.67,9.65-5.97,16.51-12.29,32.89-18.14,49.44-5.91,16.68-11.27,33.56-17.18,50.25-4.82,13.62-10.25,27.02-15.1,40.62-5.86,16.42-11.36,32.96-17.09,49.43-4.21,12.08-8.65,24.08-12.78,36.19-4.06,11.9-7.77,23.93-11.82,35.84-2.01,5.89-4.58,11.59-6.64,17.46-5.06,14.45-32.22,69.59-37.03,83.62-9.08,14.31-30.2,2.79-26.32-8.77,5.47-16.32,31.26-82.74,38.2-102.56,8.37-23.88,17.18-47.61,25.75-71.42,5-13.91,10.02-27.82,14.81-41.8,3.82-11.17,7.17-22.5,10.99-33.66,1.86-5.45,4.32-10.71,6.5-16.05-.4-.29-.8-.58-1.2-.87-3.1,2.37-6.14,4.82-9.3,7.11-10.55,7.63-21.69,13.73-35.35,12.57-5.76-.49-12.3.29-17.06-2.21-8.23-4.32-12.11-12.46-12.02-22.07.04-3.8,0-7.6,0-12.92-6.98,5.85-12.73,10.88-18.69,15.63-8.09,6.43-16.86,11.21-27.03,14.24-13.95,4.15-32.64-7.27-32.96-26.5-.25-15.22,4.41-29.46,10.26-42.99,7.71-17.84,19.1-33.33,34.08-46.26,14.8-12.78,38.48-17.74,56.37-4.39,2.49,1.86,4.48,1.38,6.05-1.04,1.99-3.09,3.89-6.24,5.69-9.44,5.42-9.65,14.87-9.94,20.83-7.12,7.87,3.74,11.03,14.58,7.23,22.93-4.09,8.98-8.7,17.77-11.98,27.04-5.91,16.7-11,33.68-16.42,50.55-.11.35-.14.73-.17,1.09-.21,2.83-4.24,6.42-.12,8.18,2.32,1,6.4-.79,9.15-2.31,16.78-9.26,28.85-23.67,41.14-37.89,10.16-11.75,18.88-24.35,25.75-39.58-2.69-.52-5.01-1.25-7.36-1.36-10-.47-17.6-7.67-17.55-16.85.05-9.15,7.88-16.3,17.96-16.36,4.43-.03,8.88-.16,13.3.06,4.67.24,7.13-2.29,8.62-6.21,4.17-10.93,8.26-21.9,12.43-32.83,7.21-18.86,14.33-37.75,21.72-56.54,7.36-18.73,14.87-37.4,22.55-55.99,6.44-15.58,12.78-31.22,19.98-46.45,9.08-19.2,18.88-38.07,28.64-56.95,1.91-3.7,5.26-6.63,7.58-10.16,9.78-14.91,36.35-11.89,44.69,3.51,4.13,7.63,6.73,16.08,10.02,24.16v28.84Zm-285.22,261.45c-7.51-8.77-7.98-8.89-16.91-2.65-2.71,1.89-5.27,4.03-7.79,6.19-14.24,12.18-20.43,29.34-27.97,45.64-.47,1.02.23,2.59.5,4.8,20.88-15.43,38.77-32.19,52.18-53.97Z"/>
    <path class="cls-1" d="m3030.43,376.49c-4.32-3.81-9.09-8.02-13.9-12.26-4.21,6.18-7.71,12.19-12.05,17.53-15.13,18.65-30.43,37.15-45.87,55.54-14.76,17.59-30.9,33.79-50.85,45.54-12.19,7.18-25.86,7.63-39.34,5.49-3.62-.57-7.97-4.63-9.57-8.17-3.78-8.38-9.06-16.65-6.34-27.81-6.76,5.48-12.64,9.94-18.18,14.79-9.1,7.97-19.73,13.25-31.37,15.36-11.05,2-25.5-6.49-27.51-20.24-1.02-6.97-.39-14.2-.19-21.3.09-3.16-.99-4.31-4.08-4.33-14.18-.09-26.96-4.45-38.2-13.09-3.69-2.83-5.55-.34-6.93,2.31-4.42,8.45-8.07,17.32-12.92,25.5-9.25,15.6-18.52,31.11-34.29,41.68-12.66,8.49-30.93,4.32-38.57-6.14-3.7-5.07-6.07-11.12-9.04-16.73-.83-1.58-1.64-3.17-3.16-6.09-3.46,5.02-6.41,9.06-9.11,13.26-13.52,21.06-28.78,40.72-48.63,56.16-10.64,8.27-22.43,14.19-36.99,12.46-5.71-.68-11.43.77-16.78-3.03-8.07-5.73-11.65-13.47-12.02-23.01-.62-15.99,3.97-30.92,9.65-45.57,4.04-10.42,8.29-20.76,12.8-30.98,2.25-5.1,5.28-9.85,8.47-15.71-7.24,5.47-14.39,9.47-19.55,15.24-3.49,3.9-4.17,10.31-6.15,15.58-9.98,26.56-21.87,52.01-44.42,70.55-9.89,8.13-20.75,14.68-34.55,13.05-2.55-.3-5.22-.38-7.75.01-11.29,1.76-21.06-9.55-21.55-20.25-.34-7.36,1.03-14.18,4.65-20.68,8.59-15.42,21.13-27.41,34.04-38.96,13.72-12.28,28.45-23.46,41.7-36.2,4.14-3.98,5.81-11.28,6.97-17.37,1.16-6.06.54-12.54.12-18.79-.18-2.64-1.84-5.19-3.04-8.34-10.88,6.93-17.89,15.96-24.5,25.19-10.49,14.64-21.01,29.31-30.57,44.56-11.12,17.73-21.34,36.04-31.75,54.22-6.18,10.8-12.54,12.66-24.57,8.43-5.7-2.01-9.03-11.76-6.59-19.33,2.86-8.89,6.28-17.59,9.37-26.41,2.84-8.12,5.55-16.29,8.57-25.15-1.57.8-2.89,1.22-3.91,2.02-15.87,12.33-33.67,21.35-52.73,26.9-15.28,4.45-30.87,8.84-47.56,5.12-19.4-4.32-29.58-16.67-34.16-34.84-2.76-10.97-1.46-21.92,1.4-32.7,3.49-13.16,7.82-25.87,15.68-37.32,10.01-14.58,22.77-25.32,40.11-29.08,30.62-6.63,51.16,18.05,44.9,44.88-4.31,18.48-15.67,31.42-32.19,40.52-5.28,2.91-10.39,4.08-16.15,3.93-5.36-.14-10.72-.32-16.07-.09-2.17.09-4.31,1.19-6.46,1.83,1.27,2.53,2.25,5.29,3.94,7.51.82,1.08,2.97,1.63,4.5,1.61,10.41-.16,20.55.07,30.98-3.44,16.79-5.64,32.71-12.85,46.94-22.97,18.43-13.12,36.47-27.36,46.5-48.45,5.05-10.62,7.6-22.41,11.42-33.62,5.79-17,11.72-33.95,17.56-50.92,7.04-20.45,14.04-40.92,21.08-61.37,6.36-18.45,12.71-36.91,19.15-55.33,7.18-20.55,14.16-41.17,21.8-61.55,4.79-12.77,18.05-15.08,27.1-5.11,4.78,5.27,2.9,11.87,2.13,17.92-.48,3.7-2.45,7.2-3.65,10.82-5.32,16.04-10.47,32.15-15.95,48.13-6.19,18.04-12.78,35.94-19,53.97-4.65,13.48-8.86,27.12-13.51,40.6-3.98,11.54-8.48,22.9-12.45,34.45-5,14.52-9.63,29.18-14.55,43.73-2.58,7.63-5.44,15.17-7.48,23.53,4.1-3.92,8.24-7.8,12.3-11.77,5.86-5.72,12.35-10.05,20.49-12.28,18.69-5.12,35.76,5.73,39.02,24.91,1.11,6.55,3.51,12.89,5.85,21.18,7.02-5.31,13.29-9.34,18.67-14.33,5.45-5.06,11.27-5.89,17.68-3.45,3.02,1.15,4.24.36,5.7-2.08,9.85-16.39,19.77-32.74,29.75-49.05,1.44-2.35,3.02-4.7,4.94-6.64,9.19-9.27,24.6-5.15,27.86,7.55,1.72,6.7-2.29,12.2-5.38,17.47-14.01,23.92-28.76,47.4-42.41,71.52-10.84,19.17-20.96,38.79-30.44,58.67-4.91,10.31-7.77,21.6-11.39,32.5-.42,1.27-.23,3.7.55,4.18,1.02.64,3.3.41,4.37-.36,6.71-4.83,13.83-9.31,19.7-15.03,14.35-13.98,25.4-30.61,35.35-47.9,8.6-14.94,16.5-30.28,24.79-45.41,3.31-6.05,6.81-12,14.94-12.21,8.08-.21,14.64,4.73,15.82,12.9,1.16,8.02,1.12,16.21,2.23,24.24,1.35,9.74,3.27,19.41,5.14,29.07.32,1.68,1.59,3.18,3.18,6.21,4.01-4.42,7.75-7.84,10.64-11.86,14.89-20.65,24.69-43.94,34.13-67.36,4.5-11.17,10.23-15.27,22.07-12.89,5.95,1.19,8.3,6.75,10.44,11.9,6.73,16.24,24.94,22.91,39.3,17.43,5.37-2.05,10.58-6.34,14.13-10.95,8.99-11.7,19.41-21.83,31.74-29.58,15.16-9.53,31.11-10.24,46.78-.37,5.61,3.54,6.37,3.35,9.61-2.6.96-1.77,1.6-3.73,2.6-5.48,4.98-8.7,13.04-12.11,20.81-8.87,7.12,2.96,11.34,11.9,8.65,20.62-2.47,8-6.21,15.61-9.26,23.45-3.24,8.32-6.02,16.84-9.54,25.03-4.93,11.48-8.18,23.4-10.43,35.62-.36,1.95.51,4.11.8,6.18,2-.49,4.09-.76,6-1.5,13.54-5.27,21.9-16.72,31.79-26.44,12.17-11.96,22.8-24.93,31.1-39.94,2.56-4.64,7.07-8.31,11.06-12.02,14.39-13.39,24.99-29.15,32.01-47.57,2.79-7.32,7.02-14.18,11.2-20.86,4.5-7.18,14.74-9.84,22.06-6.42,6.35,2.97,9.03,10.17,7.05,19-3.29,14.69,1.61,25.4,14.95,32.66,2.73,1.49,5.46,3,8.21,4.46,9.5,5.06,11.85,14.17,6.55,23.58-9.91,17.6-19.87,35.18-29.09,53.14-2.72,5.3-3.41,11.79-4.17,17.84-.19,1.5,2.8,4.65,4.61,4.89,3.88.52,8.26.49,11.88-.83,14.01-5.1,25.9-13.51,36.82-23.73,14.15-13.24,26.02-28.15,35.28-45.07,5.63-10.29,20.2-11.54,26.88-1.71,2.63,3.87,3.23,14.91.24,19.6-18.63,29.32-39.83,56.27-70.01,74.76-15.52,9.51-32.59,12.91-50.51,11-14.34-1.53-25.63-15.12-26.39-30.32-.8-16.07,2.88-31.14,9.77-45.59,5.64-11.83,11-23.81,16.71-36.23Zm-224.68,63.99c.62,1.24,1.33,3.56,1.84,3.51,2.02-.18,4.43-.57,5.87-1.82,5-4.34,9.18-9.76,14.53-13.54,12.47-8.81,20.93-20.93,29.12-33.32.95-1.43.82-4.88-.26-6.06-2.11-2.3-4.45-6.3-8.54-3.87-4.83,2.87-10.36,5.55-13.69,9.79-9.03,11.52-17.18,23.73-25.39,35.87-1.76,2.6-2.28,6.04-3.5,9.43Zm-519.01-42.05c3.01.98,5.64,2.63,8.21,2.52,9.14-.37,20.64-9.99,23.02-19.04.49-1.88.28-5.1-.89-5.96-1.49-1.09-4.63-1.19-6.46-.37-10.18,4.55-17.55,12.27-23.89,22.85Z"/>
    <path class="cls-1" d="m1527.2,376.62c-4.09-3.67-8.84-7.93-14.49-13.01-5.96,7.65-11.45,15.07-17.34,22.16-5.5,6.61-10.91,13.43-17.29,19.12-7.98,7.11-15.74,6.25-22.27-1.06-6.39-7.16-6.21-16.05.76-23.29,3.94-4.09,8.44-7.64,12.31-11.78,13.19-14.08,21.06-31.33,28.68-48.72,1.32-3.02,2.88-5.94,4.42-8.86,5.89-11.21,13.52-12.86,24.82-11.88,7.06.61,11.54,10.43,9.09,19.26-1.88,6.78-2.86,13.37.8,19.84,4.3,7.6,11.44,11.8,18.88,15.6,11.51,5.87,14.19,15.25,7.74,26.8-9.57,17.14-19.32,34.2-28.44,51.58-2.37,4.51-2.92,10.06-3.89,15.21-.91,4.9,2.08,7.02,6.51,7.73,6.64,1.07,12.61-.64,18.45-3.81,21.66-11.74,38.86-28.21,52.38-48.67,4.45-6.74,8.49-13.8,13.48-20.11,5.63-7.11,14.61-8.26,20.85-3.61,8.61,6.43,10.73,14.56,5.19,23.04-6.04,9.23-12.85,17.96-19.11,27.06-9.07,13.16-19.51,25.3-32.39,34.54-14.72,10.56-29.48,22.23-48.22,24.69-10.99,1.44-22.63,2.05-32.78-4.26-9.1-5.66-14.53-14.19-15.23-24.88-.4-6.03.73-12.21,1.55-18.27.76-5.57,1.09-11.47,3.27-16.51,6.89-15.91,14.57-31.48,22.28-47.9Z"/>
  </g>
  <text class="cls-2" transform="translate(1119.25 1018.28) scale(.94 1)"><tspan x="0" y="0">ORTHOPEDIC &amp; HAND CLINIC</tspan></text>
  <rect class="cls-1" x="1120.55" y="771.32" width="3112.59" height="15.55"/>
  <g>
    <path class="cls-1" d="m623.38,603.71c8.67-10.78,17.17-21.77,26.08-32.27,5.73-6.75,11.83-13.19,18.24-19.04,5.92-5.4,12.62-9.27,19.85-5.4,7.36,3.94,10.22,11.49,10.48,20.75.24,8.41-.33,16.98.4,25.27,1.58,18.03,10.33,23.38,24.31,12.91,12.65-9.47,23.91-21.72,35.62-32.96,3.55-3.41,6.23-8.24,9.97-11.21,3.47-2.76,9.21-6.6,11.48-5.19,3.88,2.41,7.52,8.04,8.28,13.21,2.31,15.74,1.96,16.3,15.62,19.11,20.86,4.29,41.71-1.07,62.01-9.22,18.42-7.39,36.32-17.12,54.38-26.05,6.83-3.38,13.32-8.52,22.83-5.6-3.05,5.25-5.15,10.18-8.28,14-13.23,16.13-29.77,25.95-47.16,32.5-19.77,7.44-39.85,14.67-60.01,18.52-21.52,4.11-41.8.12-54.6-22.59-9.15,9.15-17.63,18.01-26.48,26.32-4.65,4.36-9.73,8.3-14.98,11.47-21.52,12.97-41.96,2.84-47.92-24.19-2.3-10.45-2.85-21.59-4.34-33.53-2.23,1.65-4.98,2.95-6.86,5.2-12.36,14.78-24.45,29.85-36.8,44.63-3.79,4.54-8.11,8.49-12.24,12.63-4.58,4.6-10.47,8.89-14.89,4.25-3.94-4.14-7.84-11.57-7.3-17.48,1.3-14.09,4.5-28.34,8.27-42.16,6.86-25.16,14.69-50.06,22.1-75.08.4-1.36.66-2.77-.29-4.95-3.25,5.62-6.72,11.1-9.71,16.88-15.38,29.74-30.11,59.92-46.1,89.25-15.07,27.64-35.34,49.82-59.12,67.46-5.71,4.23-11.52,8.51-17.63,11.65-20.14,10.38-30.35,4.95-37.42-20.81-1.51-5.51-1.52-11.71-2.35-18.64-5.87,1.96-11.55,4.22-17.31,5.71-20.11,5.21-36.65-2.39-47.94-18.95-11.81-17.32-21.47-36.87-30.66-56.45-9.14-19.5-8.3-19.65-27.96-13.1-10.71,3.57-21.69,6.71-32.56,7.97-13.54,1.57-20.72-4.42-26.24-19.41-6.04,11.74-11.44,22.75-17.27,33.48-21.63,39.82-42.91,80-75.45,110.24-4.24,3.94-8.81,7.53-13.52,10.59-5.96,3.88-11.23,1.24-13.66-5.52-4.31-11.99-1.2-24.15,3.5-35.37,10.74-25.67,22.36-50.94,33.92-76.21,27.67-60.5,60.56-117.31,100.72-168.38,21.46-27.3,42.53-55.66,71.3-73.51,19-11.79,38.08-22.78,59.51-23.6,15.4-.59,26.28,5.92,33.51,21.57,8.78,19.04,10.24,39.78,6.25,61.04-5.17,27.52-10.12,55.28-25.53,79.92-13.06,20.9-29.6,36.16-48.28,48.88-6.52,4.44-13.25,8.38-17.58,11.09,8.57,21.87,16.48,43.28,25.39,64.04,2.42,5.64,7.56,9.72,11.97,13.79,12.8,11.77,42.17,1.02,53.92-13.05,2.12-2.53,2.95-6.64,4.08-10.12,8.4-25.94,18.96-50.62,36.64-70.67,4.93-5.59,9.5-14.28,18.11-10.05,6.74,3.32,10.49,11.9,8.17,23.36-1.77,8.78-4.37,18.27-8.97,25.56-11.74,18.6-24.62,36.31-37.4,54.04-7.34,10.19-10.25,32.89-4.79,45.37,14.52-3.01,26.33-13.49,38.25-23.3,24.23-19.94,43.27-45.63,59.17-74.28,22.68-40.87,44.89-82.06,66.99-123.31,4.27-7.98,7-16.95,10.73-25.31,1.13-2.53,3.22-6.25,4.87-6.43,2.34-.26,6.27,1.63,6.72,3.71,1.45,6.6,3.54,14.18,1.92,20.55-5.73,22.58-12.86,44.82-19.53,67.18-9.21,30.9-18.49,61.77-27.69,92.67-.49,1.64-.57,3.41-.83,5.13.7.49,1.41.98,2.11,1.48Zm-341.31-67.21c.43.32.86.65,1.29.97,1.46-1.21,2.85-2.57,4.39-3.61,20.68-14.14,41.43-25.64,63.68-11.16,2.14,1.39,6.11.95,8.72-.34,39.66-19.57,69.8-49.45,81.29-99.78,4.85-21.25,11.11-42.3,5.87-63.63-3.48-14.17-8.32-17.84-21.43-15.75-28.52,4.55-54.19,17.97-77.03,40.33-10.16,9.95-19.23,18.52-23.2,35.76-6.21,26.92-17.55,52.83-27.25,78.95-4.83,13-10.84,25.53-16.31,38.27Zm24.39-103.05c-57.03,65.6-91.58,145.89-124.09,227.54,56.26-65.98,90-146.94,124.09-227.54Z"/>
    <path class="cls-3" d="m603.75,59.53c-.95,2.52-1.21,4.78-2.46,6.08-1.29,1.33-3.9,2.79-5.34,2.33-24.57-7.78-50.04-9.82-75.46-11.46-30.75-1.98-24.07-.63-54.6,3.95-6.92,1.04-13.86,1.87-20.92,2.82-2.3-5.71,1.22-6.88,5.33-7.75,19.01-4.06,62.56-9.37,83.69-8.77,22.17.62,44.08,4.31,65.32,11.13,1.28.41,2.53.94,4.44,1.67Z"/>
    <path class="cls-3" d="m252.76,345.81c-8.21-1.06-12.88-4.82-15.29-12.62-3.03-9.8-7.37-19.2-11.22-28.97-7.26,3.74-14.17,7.31-22.69,11.7.72-2.53.66-4.54,1.59-5.24,9.43-7.06,19.04-13.87,31.07-16.61.12,1.01.44,1.84.21,2.05-5.32,4.72-3.71,9.58-1.04,15.07,4.1,8.43,7.36,17.26,11.32,25.77,1.42,3.06,3.83,5.66,6.06,8.87Z"/>
    <path class="cls-3" d="m183.13,258.82c-4.71-.1-8.72-4.4-8.58-9.2.14-4.83,4.44-8.87,9.24-8.7,5.01.18,8.82,4.52,8.66,9.88-.15,5.16-3.61,8.14-9.32,8.02Z"/>
    <g>
      <path class="cls-3" d="m341.06,210.84c5.97-13.29,14.49-24.88,24.53-36.98.73,8.46-13.26,29.23-24.53,36.98Z"/>
      <path class="cls-3" d="m392.68,212.38c-8.29-7.07-15.56-13.27-22.85-19.48,5.01-6.1,6.47-6.33,12.35-.12,3.3,3.49,6.31,7.36,8.81,11.45,1.25,2.04,1.09,4.96,1.69,8.14Z"/>
      <path class="cls-3" d="m372.89,224.39c-4.82-3.05-8.89-5.62-12.94-8.18,5.77-7.47,8.65-8.69,13.81-5.02,6.69,4.76.07,8.68-.87,13.2Z"/>
    </g>
    <g>
      <path class="cls-3" d="m304.82,257.77c-7.74-4.12-14.54-8.3-21.8-11.43-5.68-2.45-7.28-5.99-5.7-12.1,13.33.48,20.2,12.11,31.33,18.09,1.96-4.05,3.94-8.15,5.67-11.71-1.11-1.3-2.4-2.25-2.8-3.49-.22-.67,1.17-2.68,1.69-2.63,4.63.47,4.08-2.45,3.97-5.34-1.86.11-3.52.2-5.16.29q-.45-4.41,5.1-5.78c6-36.34-32.95-72.3-79.19-50.19,6.14-7.46,14.06-9.92,22.2-10.66,15.26-1.39,29.42,1.56,41.69,11.89,12.08,10.16,19.55,22.8,21.36,38.24,1.85,15.79-1,31.09-10.75,44.02-16.95,22.48-49.87,33.14-75.77,13.58-21.12-15.94-25.97-41.8-15.63-65.34,2.3-5.24,5.46-10.11,9.24-14.65-2.93,8.95-6.87,17.72-8.59,26.9-5.27,28.24,8,51.63,36.2,57.83,16.14,3.54,31.49-2.76,43.53-15,.77-.79,1.8-1.33,3.42-2.51Z"/>
      <path class="cls-3" d="m275.68,240.27c-9.37,3.93-17.77,7.12-25.86,10.96-7.98,3.79-14.4,1.44-16.78-6.93-.91-3.21.1-6.39,3.78-5.25,9.67,2.99,17.66-2.9,26.5-4.06,1.72-.23,3.42-.57,5.14-.83,5.87-.9,7.93,1.85,7.23,6.11Z"/>
      <path class="cls-3" d="m274.32,216.43c0,3.16,0,5.86-.01,7.91-9.49,2.47-18.78,5.01-28.13,7.27-6.82,1.65-12.43-4.64-12.09-12.57,13.22-.86,26.34-1.71,40.23-2.62Z"/>
      <path class="cls-3" d="m237.91,198.38c12.22.02,24.12.04,36.3.06,0,3.16,0,5.85-.01,9.05-8.32,1.33-16.81,3.09-25.39,3.94-8.8.87-13.47-5.61-10.9-13.04Z"/>
      <path class="cls-3" d="m263.51,185.38c-3.94-3.05-6.3-4.87-9.88-7.64,12-1.57,18.59,3.79,18.29,13.61-5.72.38-11.55.43-17.29,1.23-5.14.72-8.37-1.89-10.81-5.48-.97-1.42-.71-4.31.1-6.02.36-.76,3.54-.68,5.24-.23,4.39,1.14,8.66,2.7,14.35,4.53Z"/>
      <path class="cls-3" d="m295.6,194.53c.9,12.83-1.02,18.77-5.69,18.07-4.5-.68-9.48-1.88-12.91-4.57-1.96-1.53-1.25-6.48-1.78-10.2,7.14-1.16,13.56-2.2,20.38-3.3Z"/>
      <path class="cls-3" d="m296.01,233.88c-5.82-2.32-11.8-4.01-16.94-7.1-2.05-1.23-2.23-5.56-3.26-8.48,2.01-.29,4.11-1.12,6-.77,12.69,2.32,13.75,3.6,14.2,16.35Z"/>
      <path class="cls-3" d="m279.2,250.99c5.31,2.6,9.1,4.45,12.89,6.3-3.28,6.24-17.02,12.09-26.97,10.67,3.09-1.3,4.87-2.22,6.77-2.79,2.01-.61,4.12-.88,5.82-1.23.47-4.11.92-7.97,1.49-12.95Z"/>
      <path class="cls-3" d="m273.64,175.09c6.19,5.06,11.62,9.51,17.21,14.09-16.22,4.8-17.34,3.21-17.21-14.09Z"/>
      <path class="cls-3" d="m313.93,207.92c-5.99,3.98-7.51,3.4-8.5-2.9-.42-2.66-.95-5.3-1.53-8.47,6.7,1.59,8.24,6.57,10.03,11.38Z"/>
      <path class="cls-3" d="m308.53,224.27c1.9-4.5-4.14-8.71,1.86-11.2,1.25-.52,4.7,1.22,5.26,2.66,1.97,4.98-2.26,6.18-7.13,8.55Z"/>
    </g>
    <g>
      <path class="cls-3" d="m167.77,358.12c-4.94-1.52-9.87-3.04-14.01-4.32-.02,10.06-.03,21.55-.05,34.72,6.2-4.61,11.08-8.23,16.99-12.62.89,3.71,2.57,7.05,2.16,10.1-.38,2.81-3.02,5.32-4.89,8.32,2.48,1.98,3.46,4.76.28,8-3.18,3.24-4.2,3.16-12.63-1.85,0,2.23,0,4.25-.01,7.82,7.23-2.45,13.93-4.56,20.46-7.12,1.06-.42,2-2.96,1.83-4.38-.7-5.87-.56-12.35-3.14-17.38-4.15-8.09-2-16.09-2.26-24.18-1,15.19,11.39,27.85,8.32,43.7,9.21-5.01,13.65-13.7,17.22-22.85,6.61-16.93,4.92-33.3-4.48-48.79-5.5-9.05-14.28-13.37-24.1-16.3-4.72-1.41-11.45-.95-11.64-9.87,11.44,4.23,23.19,6.19,32.05,14.84,12.42,12.12,17.48,27,16.66,44.12-1.5,31.41-28.74,57.79-60.07,54.36-2.43-.27-4.62-2.8-7.32-4.53-.4,1.47-.78,2.85-1.15,4.17-17.94,2.33-47-21.92-49.18-51.66-2.54-34.63,16.89-56.2,50.67-60.52.31.49.61.98.92,1.46-3.71,2.19-7.16,5.45-11.16,6.4-19.17,4.53-31.79,16.34-35.24,35.21-4.99,27.32,8.71,55.44,39.95,61.29,3.11.58,6.28.88,10.33,1.43-1.09-5.62-5.19-7.29-7.41-5.38-4.65,3.99-6.92.07-10.83-.98,1.56-2.91,2.75-5.14,3.86-7.22-1.45-4.27-9.08-5.38-5.82-12.55,4.3,3.7,8.3,7.14,13.51,11.64-3.61-7.5-12-9.59-12.14-18.6,6.42,4.6,12.05,8.63,18.49,13.24.69-1.91,1.66-3.37,1.68-4.83.15-10.77.1-21.54.12-32.53-2.8,3.2-5.78,6.61-8.98,10.27-4.73-2.99-10.6-5.08-11.28-13,5.73,6.47,9.96,6.66,17.46.55-7.56.83-14.68,2-17.33-5.73,5.73.29,11.31.56,18.05.9.42-6.46.81-12.4,1.16-17.71-6.68-5.35-16.8-.59-21.69-8.46.21-.73.42-1.47.63-2.2,7.17,1.64,14.34,3.28,21.8,4.99.51-6.71.71-13.46-3.56-19.49-2.3-3.25-.65-5.52,2.46-5.97,2.76-.4,5.88.19,8.51,1.2,1.02.39,1.8,3.26,1.53,4.8-1.03,5.96-2.52,11.84-4.16,19.17,4.8-.75,7.58-1.6,10.35-1.53,7.08.17,14.17.63,21.23,1.28,1.13.1,3.12,1.86,3.04,2.69-1.46,15.21,5.46,28.69,8.61,42.94.51,2.33.85,4.7.56,7.22-8.98-12.99-15.51-26.81-16.59-43.05-1.2.22-2.44.44-3.94.71-.29-2.4-.57-4.66-.84-6.91-4.33,7.74-11.44,9.41-19.25,9.56q2.31,11.99,17.25,9.11c-1.9,2.73-2.87,5.54-4.15,5.69-3.5.42-7.13-.28-10.52-.53.16,4.67,7.26,8.43,14.02,4.72-.97,2.63-1.68,4.53-2.38,6.44l.06-.04Zm-14.82-32.28c.17.72.33,1.43.5,2.15,3.8-1.02,7.6-2.03,11.41-3.05-.18-.66-.36-1.32-.53-1.99-3.84.76-8.5-1.85-11.37,2.88Z"/>
      <path class="cls-3" d="m142.91,336.67c-1.65,1.38-3.13,3.62-4.99,3.98-6.94,1.37-11.7-2.79-14.97-13.61-1.49,2.12-3.09,3.36-3.24,4.77-1.84,16.71-7.06,30.79-18.26,44.32.71-4.3,1.11-8.68,2.18-12.89,2.76-10.89,5.84-21.69,8.7-32.55.34-1.3.53-3.02-.05-4.1-3.64-6.79,2.29-7.16,5.85-8.21,4.43-1.31,5.48,2.28,6.29,5.77,1.89,8.18,4.93,10.55,13.32,10.69,1.36.02,2.72.16,4.08.24.37.53.73,1.06,1.1,1.59Z"/>
      <path class="cls-3" d="m124.89,366.57c-1.84,10.89-3.68,21.79-5.49,32.49-2.92-1.05-4.37-2.49-3.36-6.5,2.24-8.87,5.15-17.56,7.78-26.33.36.11.72.22,1.07.33Z"/>
      <path class="cls-3" d="m173.14,331.81c-2.55,6.27-8.83,10.15-14.66,8.92-1.18-.25-2.09-1.8-3.13-2.76.96-1.03,1.75-2.67,2.9-2.97,4.74-1.25,9.59-2.1,14.89-3.2Z"/>
      <path class="cls-3" d="m143.21,327.05c0,1.72,0,3.39,0,5.72-6.49-2.47-14.76-.16-17.29-9.7,5.81,1.34,11.45,2.64,17.3,3.99Z"/>
      <path class="cls-3" d="m134.38,375.4c-2.06-4.66-4.12-9.32-6.18-13.98.6-.28,1.2-.57,1.81-.85,2.32,4.53,4.64,9.06,6.96,13.59-.86.41-1.73.83-2.59,1.24Z"/>
      <path class="cls-3" d="m167.71,358.16c1.92,5.79-1.04,9.38-4.99,12.52-.59-.21-1.17-.42-1.76-.63.7-1.82,1.17-3.78,2.15-5.43,1.35-2.28,3.09-4.34,4.66-6.5,0,0-.06.04-.06.04Z"/>
    </g>
    <g>
      <path class="cls-3" d="m428.08,70.24c28.45-1.61,56.78,24.65,55.56,56.78-1.07,28.26-26.51,52.87-59,51.65-26.43-.99-50.77-22.36-50.7-53.59.07-30.04,21.91-55.3,54.14-54.84Zm-1.37,103.61c28.16,1,51.23-21.59,52.06-48.24.87-27.99-23.61-49.64-47.23-50.79-33.31-1.62-52.29,24.04-53.13,47.97-1.05,30.08,24.08,53.11,48.3,51.06Z"/>
      <path class="cls-3" d="m438.37,105.2c2.51-3.96,5.02-7.92,7.53-11.88-.42-.28-.83-.56-1.25-.84-3.7,4.39-7.41,8.78-11.12,13.18-1.02-3.81,1.91-9.69-4.65-12.25-.16,1.85-.32,3.63-.47,5.4-1.56-6.14-1.84-12.11,4.01-16.12,1.49-1.02,4.27-1.67,5.71-.97,6.7,3.25,13.36,6.72,19.62,10.74,4.96,3.18,9.37,7,9.22,14.09-.05,2.59,2.37,5.17,3.38,7.87.72,1.93.97,4.03-.14,5.18-1.69,1.69-3.38,3.37-5.23,5.21,7.34,4.66,7.55,4.74,4.01,13.87-1.73,4.47-4.09,8.8-6.84,12.71-1.29,1.83-4.18,2.53-7.12,4.16,1.11,5.09-3.14,7.03-8.51,8.97,1.05-1.88,1.55-3.34,2.5-4.39,4.41-4.87,4.45-7.89.04-12.72-2.35-2.57-4.61-5.22-6.91-7.83.39-.33.78-.67,1.16-1,2.22,1.89,4.43,3.78,6.86,5.85,2.88-5.85-.94-7.35-4.86-8.78.32-.45.63-.91.95-1.36,2.42,1.33,4.85,2.67,7.5,4.12,7.19-9.78-6.06-6.45-7.55-10.35,3.98-3.99,10.94,7.35,14.06-2.78-2.71-1.43-5.16-2.72-7.57-3.99,3.9-.43,7.81,0,10.79-1.47,2.05-1.01,3.91-4.61,3.92-7.07.02-3.6-3.57-3.33-6.32-3.11-4.58.37-9.15.82-14.24,1.28,1.37-1.48,2.9-3.15,4.75-5.16-1.38-3.02-4.26-6.67-.79-11.41.62-.85-1.98-4.07-4.01-5.86,1.09,7.04,1.12,13.34-4.64,18.36.79-1.69,1.58-3.39,3.09-6.62-2.91,2.43-4.73,3.94-6.55,5.46-.12-.17-.24-.33-.36-.5Zm20.42,45.98c2.61-3.97,4.64-7.04,7.42-11.27-4.9.07-8.27-4.42-11.65,1.33-3,5.12,1.3,6.34,4.22,9.94Zm-1.25-56.7c-.84-.02-1.68-.04-2.52-.05-.62,2.7-2.6,6.82-1.57,7.79,2.14,2.04,5.86,2.43,8.93,3.5.56-.83,1.12-1.65,1.69-2.48-2.17-2.92-4.35-5.84-6.52-8.76Zm-19.62,1.04c5.25-7.49,5.24-7.58-1.17-11.98-5.01,4.5-4.76,8.2,1.17,11.98Zm28.21,42.25c.9-.59,1.8-1.18,2.69-1.78-1.34-2.43-2.43-5.08-4.22-7.12-.42-.48-3.21,1.12-4.9,1.76,2.14,2.38,4.28,4.75,6.43,7.13Z"/>
      <path class="cls-3" d="m410.57,145.46c-.66.89-1.68,1.7-1.9,2.69-1.13,4.89-4.69,8.43-8.97,7.42-3.51-.83-7.3-4.65-8.99-8.11-4.37-8.95-6.34-18.79-4.85-28.72,1.19-7.92,1.54-16.44,7.87-22.65,1.73-1.7,3.76-3.14,5.79-4.48,4.88-3.22,9.77-6.44,14.79-9.43,5.41-3.23,11.59-.05,11.91,6.22.28,5.45.04,10.92.03,18.08-1.87-4.44-3.07-7.28-4.9-11.62-.77,3.06-1.11,4.43-1.59,6.34-4.59-4.43-8.92-8.6-13.99-13.49-1.75,6.74.8,9.26,5.01,11.06,5.6,2.4,9.31,6.44,10.43,11.97-4.04-3.48-8.27-7.12-13.26-11.41-2.41,6.17,2.71,9.84,3.34,14.43-5.73-4.69-11.46-9.39-17.87-14.64-.69,2.34-1.41,4.74-1.97,6.65,4.19,2.11,8.05,3.25,10.81,5.65,2.9,2.53,5.49,3.58,9.03,2.3.9.67,1.81,1.34,2.82,2.09-9.3,4.07-15.53-4.98-24.08-4.94-2.51,5.63.54,8.56,5.5,10.75,1.86-.66,3.93-1.4,6-2.13.23.47.46.94.69,1.41-3.39,2.68-7.05,5.11-10.08,8.15-1.67,1.68-3.62,4.78-3.11,6.59,1.06,3.78,4.46,1.56,6.84.93,4.36-1.16,8.63-2.64,13.98-4.31-1.39,5.53-3.76,5.63-7.39,5.74-3.17.09-6.82,2.3-9.09,4.69-.83.87,1.31,5.21,2.86,7.43.76,1.09,3.85,1.85,4.85,1.19,1.45-.96,2.21-3.26,2.79-5.14.36-1.17-.15-2.61-.28-4.08,3.67-.93,6-.11,6.81,3.57l.18-.19Zm13.9-55.42c-2.72-2.86-4.35-4.57-5.98-6.28-1.63,1.73-4.27,3.3-4.56,5.23-.22,1.44,2.33,4.29,4.1,4.75,1.42.37,3.53-1.91,6.44-3.7Zm-29.2,8.19c3.47,1.84,6.05,3.21,8.63,4.58.49-.64.99-1.29,1.48-1.93-1.57-2.39-3.14-4.77-4.94-7.52-1.76,1.66-2.86,2.69-5.17,4.87Z"/>
      <path class="cls-3" d="m410.39,145.65c3.06-2.71,6.11-5.42,8.33-7.39,1.96,5.74,3.85,11.31,5.75,16.89.79-.17,1.58-.33,2.36-.5,0-4.73.01-9.46.02-14.19.59-.08,1.19-.17,1.78-.25.77,3.77,1.54,7.53,2.31,11.3.43,2.07.3,4.56,1.44,6.12,1.77,2.43,1.22,8.22,6.69,6.13,4.38-1.68,5.62-8.11,3.33-12.49-.94-1.8-.93-4.1-1.66-7.71,3.38,4.43,5.55,7.28,7.84,10.29-1.54,5.87-3.52,12.41-10.45,13.86-7.91,1.65-7.59-8.01-12.93-11.55-.1,1.77.09,2.94-.26,3.92-.95,2.61-1.87,7.12-3.26,7.3-3.09.4-6.67-.97-9.66-2.42-2.29-1.11-3.98-3.46-6.36-5.66,2.64-5.69,14.92-6.44,11.79-17.9-1.63,1.9-2.91,3.59-4.44,5.01-.28.26-1.58-.59-2.42-.92,0,0-.19.2-.19.2Zm8.91,6.3c-3.66,3.34-7.95,5.92-5.29,11.18.66,1.3,5.19,2.35,5.68,1.73,3.04-3.83,3.32-8.13-.4-12.91Z"/>
      <path class="cls-3" d="m440.51,118.24c-1.14,7.89-2.81,16.47-12.82,15.66-8.47-.69-9.04-8.51-9.46-15.98,3.63-1.51,7.68-4.52,11.71-4.5,3.75.03,7.47,3.29,10.58,4.82Z"/>
      <path class="cls-3" d="m435.17,137.96c1.67,5.34,3.33,10.68,5.2,16.65-1.59-.25-4.13-.65-5.79-.91,0-5.67.02-10.68.02-15.69.19-.02.37-.04.56-.06Z"/>
      <path class="cls-3" d="m391.57,131.64c6.43-2.61,12.87-5.22,19.3-7.83.24.52.48,1.04.71,1.56-6.33,2.82-12.66,5.65-18.99,8.47-.34-.73-.69-1.46-1.03-2.19Z"/>
    </g>
    <path class="cls-3" d="m931.01,293.06c-31.53-29.73-64.37-22.96-98.15-4.44,9.21-18.64,44.43-27.56,75.34-18.99-4.11-6.78-7.56-12.85-11.37-18.69-20.42-31.29-45.23-58.99-72.08-84.69-12.08-11.56-26.7-20.58-40.69-29.97-7.45-4.99-15.95-8.45-24.14-12.24-1.43-.66-4.07-.08-5.49.89-4.78,3.3-9.26,7.05-13.86,10.61-2.71,2.09-5.19,2.2-8.48.5-14.16-7.33-28.53-14.27-42.8-21.37-4.35-2.16-2.91-5.64-2.07-10.74,16.24,8.69,31.75,16.8,47.04,25.32,2.9,1.62,4.33,1.98,6.68-.68,3.03-3.43,6.72-6.29,11.1-10.28-18.95-8.78-37.38-17.33-56.33-26.11,1.68-2.92,3.13-5.42,4.75-8.24,63.35,23.72,119.5,57.38,164.53,108,27.05,30.41,51.71,62.39,66.03,101.11Z"/>
    <path class="cls-3" d="m100.99,301.42c31.53-29.73,64.37-22.96,98.15-4.44-9.21-18.64-44.43-27.56-75.34-18.99,4.11-6.78,7.56-12.85,11.37-18.69,20.42-31.29,45.23-58.99,72.08-84.69,12.08-11.56,26.7-20.58,40.69-29.97,7.45-4.99,15.95-8.45,24.14-12.24,1.43-.66,4.07-.08,5.49.89,4.78,3.3,9.26,7.05,13.86,10.61,2.71,2.09,5.19,2.2,8.48.5,14.16-7.33,28.53-14.27,42.8-21.37,4.35-2.16,2.91-5.64,2.07-10.74-16.24,8.69-31.75,16.8-47.04,25.32-2.9,1.62-4.33,1.98-6.68-.68-3.03-3.43-6.72-6.29-11.1-10.28,18.95-8.78,37.38-17.33,56.33-26.11-1.68-2.92-3.13-5.42-4.75-8.24-63.35,23.72-119.5,57.38-164.53,108-27.05,30.41-51.71,62.39-66.03,101.11Z"/>
    <path class="cls-3" d="m767.82,345.84c-27.88-45.19-67.3-76.54-113.39-100.13-.49.55-.98,1.09-1.47,1.64,1.25,1.07,2.39,2.29,3.75,3.18,16.1,10.56,32.71,20.44,48.23,31.78,15.73,11.5,29.01,25.75,41.51,40.83,14.14,17.06,24.3,36.42,33.64,56.1,11.03,23.23,17.75,48.08,21.33,73.6,1.05,7.46.53,15.13.73,22.7-.62.08-1.23.16-1.85.23-1.19-6.92-2.55-13.82-3.54-20.77-2.89-20.29-8.13-40.06-16.07-58.83-7.66-18.09-15.84-36.21-26.16-52.84-8.27-13.33-19.97-24.57-30.37-36.55-11.24-12.94-24.91-23.13-39.08-32.52-10.69-7.08-21.93-13.33-32.88-20.02-3.42-2.09-7.52-3.94-4.59-9.31,2.05-3.75,6.26-4.76,11.15-2.25,22.56,11.6,43.53,25.34,62.82,42.07,17.78,15.42,33.19,32.61,46.87,51.57,2.08,2.88,3.53,5.82-.65,9.52Z"/>
    <path class="cls-3" d="m944.02,434.06c-5.46-5.64-10.92-11.28-16.69-17.25-8.08,9.71-15.17,19.21-23.4,27.6-3.04,3.1-8.77,3.56-13.77,4.23,11.54-8.65,18.64-20.77,27.75-31.08,3.4-3.85,4.42-7.21,1.91-11.65-.41-.73-.34-1.73.11-2.94,10.42,8.51,20.24,17.36,26.45,29.22-.79.63-1.57,1.25-2.36,1.88Z"/>
    <path class="cls-3" d="m206.51,428.03c4.81.17,8.84,4.51,8.64,9.3-.2,4.82-4.44,8.71-9.34,8.59-4.66-.12-8.71-4.18-8.58-8.62.16-5.37,4.25-9.45,9.28-9.27Z"/>
    <path class="cls-3" d="m815.91,322.43c-.27,5.06-3.4,8-8.21,7.69-3.6-.23-8.64-5.56-6.99-8.49,1.87-3.33,5.51-6.43,9.08-7.81,3.3-1.28,6.39,3.6,6.13,8.6Z"/>
    <g>
      <path class="cls-3" d="m695.55,218.08c-6.85-12.78-13.62-25.55-13.41-40.53,7.09,12.67,12.56,25.86,13.41,40.53Z"/>
      <path class="cls-3" d="m645.83,206.33c1.26-3.26,1.45-5.94,2.85-6.99,6.31-4.72,12.97-8.97,19.82-13.6,1.72,3.11,2.99,5.39,4.13,7.45-8.78,4.3-16.98,8.33-26.81,13.15Z"/>
      <path class="cls-3" d="m677.1,218.86c-5.07,1.45-9.67,2.76-14.25,4.06-3.67-6.13-3.18-10.56,1.41-12.97,5.47-2.87,8.72-.68,12.84,8.91Z"/>
    </g>
    <path class="cls-3" d="m800.79,431.39c-3.33-11.39-6.66-22.78-10-34.18.61-.17,1.21-.34,1.82-.51,3.21,11.43,6.42,22.85,9.64,34.28-.49.14-.97.27-1.46.41Z"/>
    <g>
      <path class="cls-3" d="m917.29,356.2q-1.43,1.42,1.15,7.08c-3.43-.79-6.94-6.39-6.42-10.22.73-5.27,8.27-9.24,15.54-8.17-4.87-3.05-8.49-3.3-11.61-.81-5.57,4.44-6.59,10.04-4.33,19.66-1.22-1-3.09-1.76-3.56-3.04-3.37-9.12,1.02-23.95,8.54-29.85,4.88-3.83,12.7-.88,16.94,5.69,4.8,7.45,8.91,15.44,12.42,23.58,1.75,4.05,3.1,9.19-2.72,14.79,2.23-15.16-7.05-19.97-17.29-23.61-1.81-.64-4.39.9-8.25,1.83q11.34,4.36,10.76,9.93c-3.88-2.39-7.44-4.58-11.15-6.87Z"/>
      <path class="cls-3" d="m856.78,357.66c.96-1.36,2.91-3.76,2.73-3.93-2.29-2.2-4.88-5.74-7.41-5.76-11.94-.05-19.8,8-20.63,19.91-.05.73-.21,1.46-.4,2.72-5.05-3.97-5.11-8.93-2.6-13.19,5.42-9.22,10.91-18.58,17.74-26.74,6-7.17,13.67-5.86,18.27,2.37,4.54,8.11,7.02,16.87,1.78,27.1-1.82-8.3-.84-17.33-9.72-20.73-2.44-.93-5.77.46-8.45.76,4.04,1.3,9.11,1.48,11.48,4.1,2.49,2.75,2.59,7.8,3.28,11.92.19,1.14-1.26,2.56-1.95,3.85-1.31-.85-2.63-1.7-3.94-2.55l-.17.16Z"/>
      <path class="cls-3" d="m854.41,377.72c.45,5.66,1.18,9.51-4.78,10.24-2.19.27-4.16,2.31-6.22,3.55.27.48.54.96.82,1.44,2.66-1.47,5.33-2.94,8.94-4.93-.16,3.66.23,6.99-.54,10.03-1.99,7.89-11.75,10.42-16.91,4.1-4.55-5.58-7.94-12.12-11.33-19.44,11.72,9.25,20.37.99,30.02-5Z"/>
      <path class="cls-3" d="m891.62,371.43c2.07-.25,5.72-.05,5.94-.82.83-2.95.9-6.26.46-9.32-.11-.76-3.16-1.11-5.78-1.94,1.64-1.65,3.28-3.29,4.94-4.96,8.38,8.57,7.24,16.41-2.98,20.16-.94,10.56-1.85,21.33-2.93,32.08-.12,1.17-1.26,2.23-2.62,4.49-1.12-12.16-2.12-23.04-3.12-33.91-.47.06-.94.11-1.41.17-.47,10.99-.95,21.99-1.42,32.98-.44.12-.89.23-1.33.35-.79-4.11-2.08-8.19-2.25-12.33-.24-5.72.62-11.48.53-17.22-.06-4.12,1-6.86,6.56-7.34.82,3.11,1.74,6.62,2.54,9.7.34-2.87,4.61-6.39-.42-9.27,1.11-.96,2.28-1.96,3.45-2.98.01,0-.18.17-.18.17Z"/>
      <path class="cls-3" d="m923.47,305.25c.9-.73,1.8-1.46,3.21-2.6.41,1.77,1.33,3.31.89,4.17-3.29,6.53-6.33,13.29-10.6,19.14-1.38,1.88-6.83,2.56-9.34,1.42-3.85-1.75-8.19-4.81-5.9-10.68l-.22-.12c1.5,1.26,2.87,2.7,4.51,3.74,5.72,3.61,12.17.58,13.52-6.03-2.86-.11-5.85.16-8.64-.45-3.14-.69-6.11-2.18-9.16-3.32l.19.13c-1.85-2.21-3.69-4.43-5.54-6.64.61-.69,1.22-1.37,1.83-2.06,2.82,1.43,5.77,2.65,8.44,4.33,5.16,3.26,13.01,2.82,16.9-1.2l-.12.17Z"/>
      <path class="cls-3" d="m895.59,312.13q.88,38.76-4.12,42.09c-3.69-12.85-.26-25.78-.56-38.66-.07-3.16.69-5.11,4.68-3.43Z"/>
      <path class="cls-3" d="m886.23,356c-4.18-.68-5.55-2.84-5.21-7.26.85-11.06,1.02-22.18,1.62-33.26.08-1.56,1.01-3.08,2.47-4.35.56,13.45,3.6,26.78-.91,40.42,1.48.96,3.64,2.36,5.79,3.75-.11.38-.23.77-.34,1.15-1.17-.17-2.34-.33-3.51-.5l.09.05Z"/>
      <path class="cls-3" d="m848.01,360.86c-6.08.82-9.7,2.9-10.85,8.66-.92,4.6-3.52,8.86-6.21,15.25-2.4-4.44-3.98-7.34-5.55-10.24.84.09,1.69.18,2.53.27,1.96-2.54,4.87-4.8,5.7-7.67,2.87-9.95,3.33-10.42,14.39-6.27Z"/>
      <path class="cls-3" d="m886.14,355.96c3.05,3.01,6.09,6.02,9.76,9.64-1.14,1.55-2.7,3.69-4.27,5.82,0,0,.18-.18.17-.17-2.09.03-4.16.05-6.24.06.93-.54,1.94-.99,2.79-1.64,1.34-1.03,2.58-2.19,3.87-3.3-1.33-.87-2.59-1.92-4.03-2.53-.94-.4-2.15-.16-3.77-.23,1.48-1,2.45-1.66,4.71-3.19-2.63.06-3.9-.28-4.73.17-4.69,2.59-4.32,5.57,1.22,10.74q-5.47-1.54-6.93-10.69c2.84-1.74,5.2-3.18,7.55-4.64-.01-.01-.1-.06-.1-.06Z"/>
      <path class="cls-3" d="m928.12,365.03c1.17,1.62,2.73,3.8,4.5,6.26-4.82,3.21-6.86-.62-9.22-3.48-2.74,3.85-13.19,4.38-18.28,1.2,7.19-1.24,14.65-2.54,23-3.98Z"/>
      <path class="cls-3" d="m870.12,369.2c-9-.8-18-1.59-27.07-2.4.3,2.66.51,4.53.72,6.39-.52.14-1.04.27-1.55.41-.89-1.59-1.79-3.19-2.59-4.61,3.45-5.03,7.11-6.96,13.11-4.63,4.23,1.65,9.2,1.36,13.81,2.05,1.33.2,2.59.84,3.88,1.27-.11.5-.21,1.01-.32,1.51Z"/>
      <path class="cls-3" d="m879.3,353.39c-1.16,3.24-3.25,6.47-3.24,9.71,0,3.48,1.96,6.96,3.15,10.7-4.25.91-4.78-3.22-6.04-6.14-2.35-5.42-.73-10.13,6.14-14.27Z"/>
      <path class="cls-3" d="m856.95,357.5c-2.65-.24-5.3-.48-7.95-.72.54-1.77.8-3.7,1.69-5.27.98-1.75,2.42-3.29,4.05-.21,1.07,2.03,5.61,2.85,2.05,6.36,0,0,.17-.16.17-.16Z"/>
      <path class="cls-3" d="m901.74,316.7c-.99-2.06-4.59-4.21.22-6.06l-.19-.13c3.91,2.25,7.82,4.5,11.73,6.75-1.26,1.47-2.92,2.02-4.4,1.72-2.58-.52-5.06-1.57-7.57-2.4l.22.12Z"/>
    </g>
    <g>
      <path class="cls-3" d="m807.04,173.32c-8.59-1.94-17.37-5.27-26.28-5.66-16.16-.7-30.18,5.78-40.56,18.24-12.57,15.1-17.38,33.44-10.85,51.59,9.33,25.98,29.33,44.57,60.72,38.46,12.43-2.42,22.08-10.37,29.63-20.62,10.03-13.63,12.27-27.96,4.46-43.49-2.79-5.55-4.94-11.43-6.68-18.15,1.49,1.02,3.67,1.69,4.37,3.1,5.46,10.99,11.06,22.29,10.7,34.75-.29,9.9-4.13,19.31-10.49,27.32-12.35,15.55-28.07,24.4-48.3,22.51-16.99-1.59-30.37-9.68-40.4-23.92-8.04-11.42-11.29-24.19-10.69-37.4,1.39-30.97,24.55-58.04,58.25-56.33,13.24.67,21.44,3.69,26.14,9.59Z"/>
      <path class="cls-3" d="m776.91,240.13c-.94-5.66-2.62-11.32-2.63-16.99-.02-7.6,1.41-15.2,1.84-22.82.08-1.43-1.56-2.95-1.62-3.05.74-4.07.98-7.04,1.89-9.78.44-1.34,2.12-2.28,3.24-3.39,1.63,1.67,4.4,3.19,4.66,5.05.58,4.16-.09,8.49-.27,12.75-.38,9.09-.57,18.19-1.28,27.25-.29,3.69-1.74,7.29-2.66,10.94-1.06.01-2.12.03-3.18.04Z"/>
      <path class="cls-3" d="m757.61,191.02c3.5.77,7.01,1.55,11.31,2.5,2.08,3.88-2.63,4.25-4.92,5.13-2.7,1.04-9.63-5.3-10.26-8.37-.22-1.09-1.45-1.97-2.5-3.31-1.46,5.19-.36,9.06,5.3,12.79,3.71,2.45,8.66,3.02,13.42,4.55-8.4,6.42-15.05,4.84-21.82-4.64-3.84-5.38-.96-13.85,7.11-18.43,3.93-2.23,8.72-2.96,13.18-4.16.63-.17,1.58.91,3.09,1.85-4.07,1.42-7.31,2.55-10.55,3.68.08.46.17.92.25,1.37,2.97.35,5.95.71,8.98,1.07-1.14,3.42-2.91,4-12.14,4.22-.14.58-.29,1.16-.43,1.74Z"/>
      <path class="cls-3" d="m811.48,245.48c-1.57,6.34-6.41,9.79-12.15,11.99-5.29,2.03-9.27-.85-12.67-4.57-5.11-5.6-5.39-8.93-1.27-17.62,8.52,12.47,18.86,5.8,29.15,2.95-3.51,5.29-8.67,7.22-14.15,9.04-6.72,2.23-10.6-2.38-16-7.34,4.66,12.32,11.96,13.22,27.09,5.54Z"/>
      <path class="cls-3" d="m743.85,235.38c3.23,3.95,5.94,8.53,9.81,11.7,4.63,3.79,9.68,1.6,13.71-1.95,1.71-1.51,2.62-3.93,4.85-5.07,2.48,6.45-1.53,10.06-4.64,12.31-3.23,2.35-8.45,3.38-12.5,2.82-5.95-.82-13.78-12.21-13.64-18.09.01-.57,1.58-1.1,2.42-1.64l-.02-.07Z"/>
      <path class="cls-3" d="m787.78,207.67c4.88-2.13,9.45-3.29,12.95-5.88,3.59-2.65,6.14-6.7,8.84-9.8-3.4-9.19-12.62-8.34-18.96-11.9,9.19-2.35,14.82.41,19.63,8.78,2.31,4.01,3.3,8.36.15,12.29-5.44,6.76-14.25,9.42-22.62,6.52Z"/>
      <path class="cls-3" d="m741.82,196.44c6.84,11.03,15.08,18.64,29.08,14.35.33.5.65,1,.98,1.5-1.31,1.13-2.45,2.66-3.97,3.34-7.42,3.34-19.86-.29-25.77-7.59-2.73-3.37-3.51-7.15-.32-11.6Z"/>
      <path class="cls-3" d="m737.95,220.57c10.71,6.01,20.25,14.07,32.31,5.71.32.91.62,1.41.64,1.93.04,1.16-.07,2.33-.12,3.41-16.84,5.79-31.24,1.53-32.83-11.05Z"/>
      <path class="cls-3" d="m737.94,206.81c8.57,13.33,20.28,14.69,33.19,12.84-5.46,7.27-15.79,6.01-24.69,3.01-6.49-2.19-9.5-7.57-8.5-15.85Z"/>
      <path class="cls-3" d="m813.49,200.43c3.95,5.15,2.21,10.32-4.05,14.23-8.26,5.16-19.11,4.67-22.33-1.48,10.88.34,20.94-.99,26.37-12.75Z"/>
      <path class="cls-3" d="m818.84,223.87c-2.33,9.74-9.69,12.01-17.4,13.54-6.45,1.28-10.59-2.87-15.8-7.31,6.59.28,12.17,1.48,17.33.48,5.3-1.03,10.18-4.21,15.86-6.72Z"/>
      <path class="cls-3" d="m786.52,222.86c11.88-.3,23.04-1.93,31.06-12.97,1.31,6.45-.68,10.14-4.88,12.49-8.33,4.65-16.97,5.97-26.17.48Z"/>
      <path class="cls-3" d="m743.87,235.45c.77-.09,1.72-.53,2.28-.23q12.33,6.61,26.02.47c-1.05,1.71-1.71,4.02-3.23,5.04-10.83,7.26-13.13,6.91-22.07-2.5-.95-1-2.01-1.9-3.01-2.85,0,0,.01.07.01.07Z"/>
      <path class="cls-3" d="m766.84,259.38c-1.37,2.8-4.04,5.08-8.44,4.77-8.43-.6-12.03-7.61-16.77-13.19,3.9,2.37,7.54,5.46,11.76,6.89,4.08,1.39,8.73,1.07,13.46,1.53Z"/>
      <path class="cls-3" d="m809.83,256.73c-4.14,5.01-8.54,9.93-15.78,8.65-2.17-.38-4-2.66-5.56-5.06,7.93,1.83,14.9,1.43,21.34-3.58Z"/>
      <path class="cls-3" d="m806.38,189.27c-.82,1.94-1.47,3.47-1.86,4.38-2.46-1.04-4.61-2.3-6.93-2.82-2.37-.52-4.9-.3-7.53-.42q1.15-4.75,16.32-1.14Z"/>
      <path class="cls-3" d="m791.13,201.95c-.46-2.66-.76-4.41-1.09-6.37,3.99-.45,7.35-.82,10.7-1.2.25.6.5,1.2.75,1.8-3.04,1.69-6.09,3.39-10.35,5.77Z"/>
    </g>
    <g>
      <path class="cls-3" d="m672.17,129.35c-.25,34.03-27.05,52.43-55.32,51.24-30.62-1.29-57.31-23.57-54.2-59.5,2.29-26.43,26.98-51.02,58.87-49.19,28.76,1.65,53,28.28,50.65,57.44Zm-51.14-52.03c-28.4-2.65-53.46,19.58-54.46,48.26-.95,27.21,16.63,47.94,48.56,50.07,32.14,2.14,51.22-16.24,53.01-45,1.77-28.43-18.39-52.29-47.1-53.32Z"/>
      <path class="cls-3" d="m602.61,103.99c10.88-1.14,21.35-1.06,28.81,5.04-3.35-7.75-7.17-16.57-10.99-25.39.76-.6,1.52-1.2,2.28-1.8,1.26,1.08,2.9,1.92,3.7,3.27,7.59,12.7,14.94,25.53,22.57,38.2,2.12,3.53,5.14,6.51,7.36,9.99,4.47,7,4.35,12.22-.05,20-3.67-4.97-7.32-9.92-10.11-13.7-3.67,7.16-7.25,14.51-11.2,21.66-2.27,4.11-6.12,5.6-10.76,4.47-5.22-1.28-5.33-5.89-5.6-9.78-.76-10.97,3.36-20.21,10.99-28,1.22-1.24,2.21-2.7,3.88-4.77,4.1,3.39,8.23,6.79,13.16,10.86-3.17-9.31-16.15-20.36-25.91-23.39-6.14-1.91-12.1-4.4-18.14-6.64Zm33.64,26.41c-1.34,1.5-2.4,2.64-3.4,3.81-4.78,5.62-8.27,11.83-8.13,19.44.03,1.59.84,3.47,1.93,4.63.55.58,2.8.28,3.78-.38,6.85-4.59,10.19-19.94,5.82-27.5Z"/>
      <path class="cls-3" d="m581.79,146.48c1.41,3.67,2.83,7.35,4.73,12.29-13.85-11.95-17.89-32.62-10.98-48.59,7.46-17.25,25.8-27.69,37.95-23.09-3.3,1.28-6.5,3.01-9.91,3.75-13.1,2.83-25.09,16.87-26.22,30.59,2.49-1.08,4.53-1.65,6.21-2.76,3.97-2.64,7.6-5.8,11.67-8.25,4.32-2.6,8.89-2.96,12.79.36-6.24,2.66-12.73,5.42-19.56,8.33,1.85,2.86,2.77,4.27,3.75,5.79,1.81-.72,3.59-1.43,5.08-2.02,7.79,8.33,12.53,17.94,13.63,29.08.31,3.15.16,6.8-1.16,9.57-2.12,4.45-5.9,5.82-10.77,3.1-5.83-3.26-9.12-8.25-11.57-14.25-.83-2.03-3.12-3.46-4.75-5.17-.3.42-.59.85-.89,1.27Zm13.91-16.72c-7.41,6.56-4.37,25.21,4.42,28.56,1.22.46,3.07-.02,4.29-.68.46-.25.2-2.35-.15-3.47-1.09-3.43-2.9-6.97,1.5-7.48-3.16-5.31-6.5-10.95-10.06-16.93Zm-17.6-1.98c-.48,2.35-1.3,3.9-.95,5.13.75,2.67,1.96,5.24,3.3,7.68.22.4,2.87.19,3-.21,1.65-4.82,3.05-9.72,4.51-14.61l-1.8-.81c-2.86,1-5.72,2.01-8.06,2.82Z"/>
      <path class="cls-3" d="m613.69,97.43c-6.53,1.13-12.83,2.23-20.15,3.5,1.96,2.77,2.95,4.16,3.7,5.23-4.06,2.26-8.11,4.52-11.99,6.68-.56-5.98,4.14-13.6,10.32-16.16,7.23-3.01,15.24-2.68,18.12.75Z"/>
    </g>
    <g>
      <path class="cls-3" d="m573.31,973.58c-.03-4.37-.05-7.87-.07-11.32,87.1-10.14,176.28-50.91,242.1-115.69-4.93-2.62-9.8-5.48-14.93-7.76-1.23-.54-3.74.35-4.93,1.4-11.72,10.39-23.27,20.98-34.92,31.45-1.57,1.41-3.43,2.49-5.24,3.78-2.92-6.93,1.97-10.37,5.9-13.94,9.01-8.19,18.29-16.1,27.35-24.25,6.88-6.2,6.97-6.05,15.53-2.28,19.46,8.55,14.9,8.94,29.89-5.11,17.36-16.26,33.36-33.92,46-54.2,6.38-10.22,11.82-21.05,17.25-31.83,3.76-7.47,5.47-8.41,14.59-5.17-4.91,15.63-14.08,28.96-22.85,42.48-13.93,21.47-30.94,40.34-49.08,58.32-27.02,26.79-56.22,50.93-88.4,71.12-33.74,21.16-69.77,37.79-108.35,48.26-17.98,4.88-36.16,9.02-54.33,13.17-4.9,1.12-10.06,1.06-15.51,1.58Z"/>
      <path class="cls-3" d="m455.9,963.26c1.85,12.1,2.77,12.77-10.7,10.12-21.16-4.16-42.4-8.35-63.1-14.28-18.57-5.32-36.92-12-54.54-19.92-18.39-8.27-36.08-18.24-53.55-28.35-24.91-14.41-47.38-32.25-68.93-51.27-18.82-16.61-36.91-33.83-52.37-53.81-13.75-17.78-26.81-35.87-36.46-56.25-.97-2.05-1.81-4.16-2.69-6.2,7.86-4.1,9.72-3.2,13.84,3.51,11.18,18.22,21.41,37.26,34.54,53.99,12.12,15.46,27.52,28.36,41.45,42.4,2.16,2.17,4.2,2.61,7.19,1.14,6.44-3.17,13.13-5.83,20.39-8.99,12.46,10.36,25.42,21.05,38.25,31.89,3.49,2.95,5.74,6.59,2.27,11.91-14.22-12.1-28.37-24.14-42.89-36.5-5.01,2.63-10.63,5.57-16.55,8.68,69.98,62.77,150.35,100.9,243.87,111.94Z"/>
      <path class="cls-3" d="m212.2,788.93c-3.14,2.2-5.16,3.61-6.58,4.6-3.77-2.99-7.05-5.59-10.26-8.13-4.4,4.25-4.56,8.42-.96,12.61,4.02,4.7,7.63,5.18,12.24,1.84,1.25-.91,2.83-1.37,4.26-2.03-.14,1.77.13,3.7-.49,5.29-1.33,3.41-3.11,6.64-4.99,10.55-18.7,3.66-49.62-24.99-43.97-47.45,4.82,20.67,15.88,34.92,34.97,42.29-3.27-2.86-7.3-5.23-9.58-8.74-2.03-3.11-3.51-7.8-2.76-11.24,1.49-6.75,1.3-9.39-4.77-12.51-2.72-1.4-5.65-2.73-8.63-3.24-4.27-.73-5.1-3.48-4.17-6.65,3-10.17.45-18.98-4.95-27.75-4.45-7.23-2.89-13.49,4-18.45,9.57-6.89,17.42-9.06,28.77-2.63,3.4,1.92,3.78,3.68,2.72,7.37-2.95,10.21-5.68,20.54-7.65,30.97-2.36,12.5,4.89,20.61,14.2,27.35,2.48,1.8,5.04,3.5,8.6,5.96Z"/>
      <path class="cls-3" d="m231.74,809.54c19.59-6.72,31.88-20.08,36.36-40.48,2.14,9.67,1.19,13.77-7.16,25.35-7.01,9.73-15.72,17.42-28.39,18.74-7.39.77-11.22-4.41-14.48-9.68-1.31-2.11-.98-5.23-1.57-9.03,6.44,2.53,9.23,12.01,15.59,5.33,5.44-5.72,6.59-8.44,1.43-14.84-3.45,2.82-6.9,5.63-10.84,8.85-1.86-1.3-3.98-2.79-5.41-3.79,6.51-6.93,13.15-13.03,18.57-20.06,4.34-5.63,5.61-12.46,3.86-19.95-.81-3.45.02-7.94,1.65-11.18,4.57-9.05,3.58-15.22-4.55-21.31,7.42-8.01,27.94-5.17,29.86,7.71.59,3.98-.43,8.93-2.46,12.43-4.77,8.22-6.37,16.36-3.23,25.42,2.34,6.73,1.77,7.58-4.79,9.02-1.51.33-2.99.78-4.48,1.18-7.15,1.92-10.5,8.43-7.15,14.85,2.28,4.36,1.16,7.72-1.68,10.98-1.69,1.94-3.54,3.75-5.42,5.51-1.84,1.72-3.81,3.3-5.72,4.95Z"/>
      <path class="cls-3" d="m450.76,941.84c-18.57,1.05-37.13,3.81-55.46-1.64-1.29-.39-2.76-.55-3.83-1.28-4.96-3.39-9.42-4.2-13.61,1.32-.59.77-2.93.2-4.46.26.26-1.55.47-3.11.8-4.65.07-.32.5-.62.82-.83,5.14-3.44,10.66-6.44,15.35-10.41,4.59-3.88,8.34-8.75,12.59-13.33,5.17,3.26,3.1,6.32.41,9.37-3.62,4.09-7.26,8.16-12.26,13.79,14.69.9,27.51,1.69,41.15,2.52-.54-5.64-.51-10.34-1.51-14.8-3.72-16.53-1.65-32.65,3.89-48.25,2.51-7.06,7.03-13.42,10.9-19.94.61-1.03,2.61-1.23,3.97-1.82.43,1.8,1.74,3.99,1.14,5.33-2.64,5.84-6.16,11.29-8.76,17.15-6.61,14.91-7.95,30.48-5.12,46.51.85,4.8,1.12,9.7,1.69,14.86,1.79-.01,3.45-.02,5.22-.03-.38-2.97-.53-5.84-1.13-8.6-3.91-17.88-3.01-35.38,4.62-52.15,1.27-2.79,6.09-6.97,6.65-6.6,4.44,2.97.8,6.49-.65,9.42-7.46,15.02-6.24,30.84-4.72,46.7.54,5.6,1.5,11.16,2.32,17.11Z"/>
      <path class="cls-3" d="m635.92,933.01c-4.88-7.2-9.15-13.35-13.15-19.66-.36-.57.96-2.21,1.8-3.97,2.67,2.98,4.78,5.45,7.02,7.79,5.86,6.14,11.82,12.11,20.11,15.07,4.51,1.61,4.22,4.35,1.09,7.8-1.39-1.2-2.62-2.14-3.7-3.22-2.63-2.65-5.03-2.33-8.72-1.32-10.07,2.76-20.4,5.01-30.77,6.04-10.35,1.03-20.87.35-31.78.42,1.07-13.4,3.51-25.89,2.65-38.14-.86-12.11-5.05-23.98-6.61-36.98,1.53,1.58,3.49,2.93,4.52,4.79,7.64,13.88,11.18,28.57,8.64,44.51-.97,6.12-1.15,12.37-1.85,20.45,1.94-1.78,3.82-2.66,4.13-3.92,6.07-25.13,3.93-49.09-10.55-71.2-3.48-5.31-3.55-6.48-.85-11.08,11.43,10.91,16.64,24.64,19.52,39.43,2.93,15.05,1.33,30.01-2.32,45.85,13.94-.91,27.27-1.78,40.82-2.67Z"/>
      <path class="cls-3" d="m683.98,806.08c30.93.07,53.49,22.15,53.6,52.33.13,32.66-23.96,57.39-57.54,57.07-31.85-.3-53.64-24.76-53.79-54.32-.16-30.98,23.03-54.64,57.73-55.08Zm-1.59,6.03c-18.69-1.27-33.16,5.66-43.36,21.94-15.32,24.45-8.42,52.34,14.57,68.56,10.67,7.53,23.05,9.51,36.21,7.17,13.23-2.36,24.58-8.25,32.63-18.64,12.69-16.37,13.56-35.11,5.37-53.42-8.5-19.01-24.43-27.26-45.41-25.61Z"/>
      <path class="cls-3" d="m399.59,862.15c-.22,32.58-25.09,54.73-54.33,55.4-31.43.72-57.33-25.46-57.22-57.14.11-33.78,24.28-52.7,54.58-52.64,31.82.07,56.7,23.62,56.97,54.37Zm-57.6-49.04c-28.09-.96-50.13,20.87-49.33,48.14.77,26.34,20,51.93,53.28,51.37,25.71-.44,47.73-19.52,48.97-48.71,1.25-29.37-25.42-52.6-52.93-50.8Z"/>
      <path class="cls-3" d="m290.36,714.25c16.11,20.29,35.23,37.05,56.72,51.21,21.39,14.09,44.02,25.24,69.27,30.79-14.11-6.53-28.59-12.38-42.22-19.79-13.75-7.48-27.12-15.86-39.82-25.02-12.81-9.25-25.64-18.87-33.43-33.53,5.93,4.89,12.06,9.57,17.76,14.71,18.23,16.45,38.27,30.24,60.35,40.94,10.82,5.24,22.05,9.63,33.01,14.59,2.61,1.18,5.38,2.73,7.14,4.88,1.26,1.53,1.6,4.5,1.09,6.51-.29,1.13-3.27,2.48-4.8,2.23-5.87-.96-11.87-1.94-17.43-3.98-22.37-8.19-43.15-19.73-62.21-33.76-15.25-11.23-29.07-24.46-43.1-37.27-2.62-2.39-3.24-6.99-4.78-10.57.81-.65,1.62-1.29,2.42-1.94Z"/>
      <path class="cls-3" d="m866.99,754.66c1.25,33.71-25.93,57.18-55.82,57.71-32.11.57-58.77-24.89-58.49-59.32.24-29.53,25.84-55.13,57.91-54.81,31.21.31,56.7,23.51,56.39,56.42Zm-57.09,52.97c30.55-.5,53.47-22.05,53.18-52.08-.29-30.34-21.73-52.17-52.57-52.71-29.65-.52-54.77,24.3-53.95,51.65.89,30.06,21.63,51.77,53.34,53.14Z"/>
      <path class="cls-3" d="m609.24,796.29c51.18-14.09,91.71-45.9,126.18-86.86.71.7,1.43,1.39,2.14,2.09-2.97,5.02-5.22,10.7-9.08,14.92-7.44,8.14-15.39,15.94-23.86,22.99-9.73,8.1-19.96,15.68-30.51,22.68-17.41,11.55-35.91,21.16-55.8,27.76-3.42,1.13-7.35.7-10.95.99-2.16-9.01-2.02-9.52,5.54-13.17,14.02-6.77,28.25-13.12,42.1-20.21,18.31-9.38,33.93-22.66,49.67-35.71,5.45-4.52,10.83-9.11,16.67-14.02-6.04,10.89-29.25,32.87-51.93,46.5-19.67,11.82-40.52,21.67-60.16,32.04Z"/>
      <path class="cls-3" d="m513.78,1006.58c-4.71,1.38-8.63,2.53-13.28,3.9-.08-11.82-.15-23.37-.23-34.91-.13-.03-.26-.05-.39-.08.74,3.9,1.48,7.8,2.22,11.71.28-.04.55-.08.83-.12-.47-4.38-.98-8.76-1.4-13.15-1.3-13.45-2.69-26.89-3.8-40.36-1.01-12.17-1.95-24.35-2.44-36.55-.25-6.25.64-12.54.83-18.82.27-8.9-1.52-16.87-10.79-20.86.9-5.35,3.35-6.65,8.3-5.51,3.56.82,7.47.12,12.27.08,0-.03.66,1.66.18,2.92-6.43,17.01-4.12,34.42-2.65,51.82.59,7.05.73,14.15,1.44,21.19,1.53,15.17,3.26,30.33,4.97,45.48,1.25,11.04,2.61,22.07,3.94,33.26Z"/>
      <path class="cls-3" d="m514.72,851.12c7.91,6.37,7.95,13.07,5.28,21.09-1.87,5.61-2.25,11.92-2.19,17.91.17,17.38.29,34.8,1.57,52.13,1.4,19.09,3.97,38.1,6.26,57.11.39,3.2,1.95,6.26,3.16,9.96-3.87-.85-7.46-1.64-11.95-2.63-1.58-19.37-3.31-38.85-4.71-58.36-1.12-15.5-2.24-31.02-2.61-46.55-.3-12.8.19-25.65,1-38.44.26-4.05,2.67-7.97,4.2-12.22Z"/>
      <path class="cls-3" d="m502.25,847.24c-8.54,1.83-15.13-.66-20.83-6.06-2.3-2.18-4.33-4.67-6.8-6.62-5.53-4.37-5.4-8.34-1.71-13.92,6.18-9.34,10.42-18.9,10.89-30.14.05-1.16,1.98-3.1,3.17-3.21,4.67-.4,9.38-.21,13.75-.24,3.44,12.36.43,23.68-2.73,34.81-2,7.06.59,13,2.43,19.29.58,1.97,1.17,3.94,1.81,6.09Z"/>
      <path class="cls-3" d="m527.84,786.9c2.42,11.33,5.33,22.59,7.12,34.02,1.64,10.51-3.65,18.5-12.2,24-4.48,2.88-7.42-1.42-9.91-4.26-6.67-7.61-6.82-16.4-3.81-25.58,2.93-8.94,5.79-17.9,9.69-26.77.06,9.15.12,18.3.18,27.96,1.31.12,2.98.28,6.17.59-.07-10.21-.13-19.99-.19-29.77.99-.06,1.98-.13,2.97-.19Zm-.4,32.55c-1.69-.33-3.22-.57-4.73-.93-7.25-1.74-11.4,2.42-9.12,9.62,1.69,5.36,4.11,10.49,6.65,16.82,5.35-8.56,11.35-15.36,7.2-25.5Z"/>
      <path class="cls-3" d="m530.2,959.63c-.89-6.15-2.31-12.24-2.56-18.36-.8-19.34-1.72-38.71-1.42-58.04.12-7.96.72-17.36,11.28-20.17,1.67-.44,4.65-.66,5.15.16,1.18,1.94,1.72,4.6,1.57,6.91-.11,1.76-1.3,3.82-2.65,5.07-6.2,5.76-6.61,13.41-7.14,20.98-1.48,21.09-2.82,42.19-4.23,63.47Z"/>
      <path class="cls-3" d="m216.99,764.39c-5.57-8.38-11.33-15.94-15.81-24.2-2.84-5.24-2.78-11.32,2.19-16.19,5.21-5.1,11.24-6.66,18.18-4.53,4.06,1.25,8.12,2.54,12.1,4.04,4.43,1.67,5.23,9.44,1.33,15.18-3.49,5.13-7.47,9.92-11.08,14.97-2.24,3.13-4.18,6.47-6.91,10.73Zm-7.68-24.05c-1.6,1.89-1.14,5.67,2.43,9.71,3.71,4.21,8.33,3.54,10.71-1.47,1.89-3.98,4.24-7.77,5.72-11.89.72-2.02.73-5.98-.37-6.62-2.13-1.24-6.07-1.89-7.76-.69-2.02,1.44-2.79.41-4.37.36-3.23-.11-6.5,1.12-9.75,1.79.96,2.49,1.92,4.99,3.39,8.79Z"/>
      <path class="cls-3" d="m494.93,982.03c-.62-9-.98-18.04-1.91-27.01-1.38-13.38-3.28-26.7-4.73-40.07-.78-7.22-1.01-14.5-1.61-21.74-.52-6.38-1.03-12.56-5.26-18.18-1.76-2.34-.85-6.84-.63-10.33.03-.51,3.68-1.71,4.36-1.12,2.74,2.4,5.31,5.17,7.24,8.25.9,1.43.12,3.87.21,5.85.91,20.86,1.29,41.76,2.98,62.55,1.13,13.95,1.65,27.73-.65,41.81Z"/>
      <path class="cls-3" d="m535.95,849.4c8.08-10.74,10.99-22,6.58-35.49-2.72-8.33-2.61-17.58-3.77-26.42.79-.42,1.58-.84,2.37-1.25,1.1,1.1,3.02,2.11,3.17,3.32,1.31,10.79,4.68,20.74,10.93,29.68,5.84,8.35,3.82,13.96-3.79,18.97-4.05,2.67-7.33,6.48-11.15,9.54-1.16.93-2.93,1.09-4.42,1.6l.07.05Z"/>
      <path class="cls-3" d="m735.53,826.2c2.22-14.6-8.97-21.82-15.74-31.15-3.96-5.46-9.14-10.02-13.86-15.08,5.45.4,10.81,1.12,14.58,6.04,7.39,9.66,14.8,19.3,22.44,29.25,3.59-3,8.23-7.1,13.15-10.85,1.39-1.06,3.56-1.08,5.38-1.58-.49,1.96-.33,4.64-1.57,5.76-6.4,5.77-13.11,11.2-19.86,16.57-1.02.81-2.79.67-4.52,1.04Z"/>
      <path class="cls-3" d="m289.77,829.5c-9.66-4.36-17.16-11.7-24.32-19.41-.77-.83.07-3.15.23-5.87,7,5.94,12.87,10.92,18.38,15.6,10.85-14.5,16.08-32.77,35.79-37.36-11.09,14.42-26.79,25.78-30.08,47.05Z"/>
      <path class="cls-3" d="m435.43,829.14c5.41.03,8.01,2.5,8.07,7.67.06,5.4-3.36,9.07-8.43,9.05-4.27-.02-8.24-4.28-8.28-8.88-.04-5.13,2.97-7.87,8.64-7.84Z"/>
      <path class="cls-3" d="m584,835.73c.03-5.17,2.69-7.68,8.07-7.61,4.45.05,8.66,4.27,8.51,8.51-.15,4.39-4.49,8.34-9,8.2-4.71-.15-7.61-3.63-7.58-9.09Z"/>
      <path class="cls-3" d="m746.06,771.19c-2.07-1.69-4.13-3.38-6.21-5.06-1.95-1.58-3.93-3.13-6.9-5.49,5.25-1.31,9.54-2.38,14.98-3.74.03,4.54.06,8.97.09,13.41-.65.3-1.3.59-1.95.89Z"/>
      <path class="cls-3" d="m277.4,760.36c5.67.89,10.15,1.59,15.82,2.47-3.78,3.34-6.9,6.43-10.38,9.06-3.18,2.4-5.13,1.04-5.35-2.74-.17-2.82-.07-5.67-.09-8.79Z"/>
      <path class="cls-3" d="m535.88,849.35c1.9.9,3.8,1.8,6.52,3.09-.51,4.58-4.6,6.16-8.89,6.94-3.67.66-6.82-.54-7.77-3.98,3.77-2.2,7-4.08,10.22-5.98-.01-.02-.08-.06-.08-.06Z"/>
      <path class="cls-3" d="m527.24,1014.67c-7.38.05-14.76.1-22.14.14,0-.54,0-1.08,0-1.62,7.4-1.88,14.78-1.74,22.13,1.47Z"/>
      <path class="cls-3" d="m656.78,850.34c5.75-1.5,11.49-3,17.24-4.49.31.32.63.64.94.97-1.26,1.13-2.33,2.7-3.8,3.3-4.47,1.8-9.23,2.93-13.61,4.92-2.19,1-3.79,3.3-5.66,5.01.48.79.95,1.57,1.43,2.36,1.58-.74,3.16-1.47,4.73-2.22,4.42-2.12,8.76-4.44,13.31-6.21.88-.34,2.6,1.44,3.93,2.25-.26.52-.52,1.04-.77,1.56-2-.13-4-.26-8.04-.52,10.52,3.44-3.23,5.13,1.92,7.89,1.63-1.36,3.47-2.89,5.31-4.43.49.4.99.8,1.48,1.2-2.48,3.42-4.95,6.84-7.43,10.26.72.59,1.44,1.18,2.15,1.77,1.76-2.07,3.51-4.14,5.27-6.21l1.15.39c-.93,2.38-1.9,4.74-2.78,7.14-.75,2.05-1.39,4.14-2.08,6.21.63.21,1.25.42,1.88.63.75-1.35,1.5-2.7,2.62-4.7.28,4.81.53,8.89.77,12.97-.28.32-.56.63-.84.95-1.03-1.98-2.06-3.96-3.1-5.94-.57.44-1.15.87-1.72,1.31.46,1.61.82,3.25,1.4,4.82,1.29,3.49-1.5,10.05-4.93,10.32-1.17.09-2.54-2.43-3.82-3.75.47-.47.95-.94,1.42-1.41.9.79,1.81,1.57,2.15,1.88.75-5.53,1.51-11.17,2.31-17.06-1.73.01-3.42.02-6.36.04,2.25,1.83,3.69,3,6.15,5-3.41.32-5.79.54-8.32.78,1.46-8.05,1.27-8.15-5.49-9.15-2.52-.37-4.55-1.84-2.33-4.86,1.59-2.17,3.23-4.29,4.95-6.56-7.34-.79-8.26-1.95-8.79-11.53-2.01.25-4.07.97-5.94.62-1.99-.38-3.8-1.77-5.68-2.71,1.31-1.69,2.48-4.61,3.95-4.78,2.47-.27,5.13,1.22,7.71,1.97,2.43,0,4.86,0,7.29.01Z"/>
      <path class="cls-3" d="m687.05,849.56c-.48,12.25-1.12,24.49-1.33,36.75-.05,3.14,1.6,6.29,1.78,9.47.13,2.28-.22,5.19-1.57,6.79-1.15,1.36-4.03,1.26-6.15,1.81-.55-2.26-1.53-4.51-1.59-6.78-.32-11.84-.48-23.69-.56-35.53-.08-13.01-.14-26.03.19-39.03.04-1.67,2.46-3.27,3.78-4.9,1.6,2.14,4.41,4.18,4.57,6.42.6,8.29.33,16.65.38,24.99.16,0,.33.01.49.02Z"/>
      <path class="cls-3" d="m656.78,850.34c-2.43,0-4.86,0-7.29-.01,2.43-6.94,7.01-11.88,13.8-15.05-1.55-3.42-3.19-7.06-4.84-10.7-.5.2-1.01.4-1.51.61.87,2.33,1.73,4.67,2.92,7.86-2.55.71-5.4,1.5-8.31,2.3-1.5-8.17,1.62-11.48,9.08-11.95,2.5-.16,4.91-2.7,7.25-4.3,3.33-2.28,4.33-.53,4.8,1.97-3.24.97-6.44,1.44-9.04,2.95-1.07.62-.85,3.48-1.13,4.87,3.46-1.18,6.71-2.28,9.96-3.39.24.66.47,1.33.71,1.99-3.05,1.4-6.1,2.81-9.22,4.24,1.56,7.62,6.74-2.27,9.17,2.73-3.61,2.19-7.3,4.43-10.99,6.67.34.54.67,1.07,1.01,1.61,3.45-1.26,6.91-2.51,10.36-3.77.26.53.51,1.06.77,1.6-5.83,3.25-11.65,6.51-17.48,9.76Z"/>
      <path class="cls-3" d="m691.06,870.27c2.38.61,4.75,1.23,7.5,1.94-.12-1.86-.22-3.54-.35-5.49-2.67.55-4.89,1-7.11,1.46-.43-.57-.86-1.15-1.29-1.72,1.6-1.47,3.19-2.93,4.6-4.22-.43-.1-1.64-.34-2.82-.7-.31-.09-.49-.58-.78-.95,6.12-3.81,7.28,4.09,11.37,5.04,1.61-5.85-1.59-7.99-12.41-8.54,0-1.07-.01-2.14-.02-3.76,7.07,1.31,14.26,1.69,19.57,7.02,1.57,1.57,2.03,4.24,1.81,7.1-1.59-1.75-3.19-3.49-4.78-5.24-.43.28-.86.56-1.29.84,1.33,2.31,2.67,4.62,4,6.93-.27.14-1.19.61-2.14,1.1,1.43,1.99,2.67,3.72,3.92,5.45-.73.47-1.46.95-2.19,1.42-1.91-3.17-3.83-6.35-6.51-10.81.9,6.65,1.58,11.72,2.26,16.8-.79.09-1.58.18-2.37.27-.47-2.87-.94-5.74-1.36-8.31-3.59-1.33-8.01-.71-10.44-3.87.28-.58.56-1.16.84-1.75Z"/>
      <path class="cls-3" d="m703.68,820.86c4.74.27,9.48,7.36,8.37,14.53-3.7-.95-7.52-1.59-11.08-2.94-3.44-1.3-6.6-3.32-10.29-5.23.17-2.67,2.83-2.81,10.1.78-1.21-4.07-1.16-8.63-8.16-8.83,1.3,1.71,1.88,2.46,2.96,3.87-2.29-.8-3.71-1.3-6.54-2.29,2.45-1.49,4.1-3.34,5.61-3.24,4.15.3,6.57,2.99,7.23,7.21.33,2.13.91,4.22,1.37,6.33.71-.18,1.42-.35,2.14-.53-.59-3.31-1.19-6.62-1.73-9.66Z"/>
      <path class="cls-3" d="m709.93,849.58c-5.94-2.29-11.53-4.4-17.07-6.64-1.02-.41-1.83-1.33-2.73-2.02,1.28-.46,2.89-1.67,3.77-1.27,4.48,2.03,8.77,4.48,13.63,7.05-2.4-9.62-13.06-7.56-18.34-13.63,12.16-2.06,23.07,7.01,20.73,16.51Z"/>
      <path class="cls-3" d="m712.26,860.93c-5.13-9.6-15.22-9.07-23.15-13.35,6.42-2.43,12.02,2.01,18.01,2.78,3.83.49,6,5.67,5.14,10.57Z"/>
      <path class="cls-3" d="m724.9,851.17c-3.19,3.96-6.59,6.35-10.97,2.75-1.77-1.46-3.67-3.78-.66-6.3,3.25-2.72,7.04-1.72,11.63,3.55Z"/>
      <path class="cls-3" d="m690.19,877.98c9.66.4,9.94.56,10.76,7.99.12,1.06-.71,3.12-1.29,3.19-1.3.16-3.12-.25-4-1.14-1.31-1.32-2.02-3.24-2.93-4.94-.8-1.5-1.53-3.05-2.54-5.09Z"/>
      <path class="cls-3" d="m689.26,882.46q10.86,15.85,6.54,18.28c-2.77-5.92-5.54-11.84-8.31-17.77.59-.17,1.18-.34,1.77-.51Z"/>
      <path class="cls-3" d="m336.07,843.67c.03,4.08.05,7.19.07,10.64-1.67-.53-3.26-1.28-4.91-1.48-1.7-.21-4.18-.52-5,.4-.85.94-.78,3.95.11,4.89,1.07,1.13,3.83,1.93,5.19,1.33,10.86-4.8,10.81-4.91,10.73-16.94-.02-2.54-.03-5.08-.05-7.76q3.79.98,1.74,20.58c6.47-.16,8.3-2.22,8.01-8.73-.05-1.03.77-3.04,1.03-3.01,4.14.4,8.45.55,12.28,1.95,1.31.48,2.23,4.4,1.91,6.54-1.13,7.48-9.78,13.5-18.68,12.28,1.68-.84,3.59-1.41,4.99-2.59,2.76-2.31,6.02-4.58,7.51-7.63.71-1.45-2.17-4.65-3.34-6.9-2.93,3.85-4.66,7.58-7.58,9.53-2.85,1.89-6.94,1.84-10.43,2.85-2.13.62-4.18,1.56-6.2,2.48-.68.31-1.09,1.25-1.77,1.54-2.59,1.11-10.3-4.96-11.82-9.49-1.34-3.99-.64-7.57,3.95-8.71,3.88-.96,7.94-1.17,12.28-1.77Z"/>
      <path class="cls-3" d="m321.09,865.4c-5.12.68-10.23,1.79-15.34,1.79-1.58,0-3.19-3.01-4.71-4.7-.24-.27-.12-.85-.17-1.29-5.8,1.36-3.98-3.25-3.47-5.28.89-3.52,1.49-7.85,6.81-8.11,2.86-.14,5.69-.91,7.72-1.26,2.92,6.01,5.57,11.48,9.15,18.85Z"/>
      <path class="cls-3" d="m390.7,852.57c-.89,2.48-1.6,4.46-2.53,7.08-.06-.02,1.02.42,2.1.85-.28.78-.55,1.55-.83,2.33-5.78-.21-11.56-.43-17.34-.64-.02.27-.05.55-.07.82,4.11.51,8.23,1.01,12.34,1.52-4.28,4.33-14.35,4.11-19.22.08,2.83-5.83,5.58-11.5,8.92-18.37,3.63.53,8.78,1.29,13.94,2.04-.06.49-.12.98-.19,1.47-4.73-.4-9.46-.8-14.19-1.2-.09.58-.19,1.16-.28,1.74,5.5.72,10.99,1.45,17.35,2.28Z"/>
      <path class="cls-3" d="m310.16,870.21c4.12-1.35,8.47-2.77,13.95-4.56,1.04,1.05,3.21,3.25,5.48,5.55-8.87,4.53-15.43,3.97-19.43-.99Z"/>
      <path class="cls-3" d="m359.58,873.56c-1.01-3.89-.08-6.15,4.08-5.79,4.58.4,9.13,1.07,13.89,1.64-4.89,6.79-11.56,4.37-17.97,4.15Z"/>
      <path class="cls-3" d="m351.72,873.82c-2.73,2.41-3.56,2.06-12.15-5.44-.8,1.64-1.58,3.25-2.42,4.96,4.3,1.78,10.69.77,11.21,6.89-3.59-1.15-7.5-1.99-10.96-3.74-1.24-.63-1.99-3.48-1.86-5.25.13-1.78,1.61-3.47,2.56-5.33,4.43,2.58,8.87,5.15,13.6,7.9Z"/>
      <path class="cls-3" d="m799.84,778.87c3.83-14.73,7.37-29.44,6.46-44.93-.3-5.06-2.03-7.73-6.71-8.31-5.55-.69-9.71,2.39-10.1,7.17-.14,1.75.06,3.56.29,5.31.2,1.55.67,3.06.38,4.76-3.6-4.98-6.13-10.4-5.46-16.58.76-7.03,9.95-10.67,18.05-6.9,3.94,1.84,7.28,4.94,10.04,6.88,5.38-2.63,10.68-6.11,16.49-7.65,2.56-.68,6.67,2.02,9.2,4.19,6.7,5.75,6.19,15.71-1.01,25.05-.61-7.16,3.14-15.48-4.66-20-2.69-1.56-7.07-.21-12.25-.17,1.88,2.39,2.45,3.11,3.01,3.83.44.57.88,1.15.86,2.36-.74-.41-1.49-.8-2.2-1.25-.65-.4-1.26-.86-2.86-1.97-1.98,1.86-3.92,3.69-5.85,5.5,4.83,5.04,11.52,7.52,7.34,15.77-2.06-3.47-3.67-6.71-5.81-9.55-1.1-1.47-3.15-2.23-4.76-3.3-.21,1.75-.56,3.49-.57,5.24,0,1.36-.04,3.5.73,3.96,7.64,4.59,2.17,9.74.86,14.72-2.22,8.49-4.4,16.98-6.6,25.47.49.13.99.26,1.48.39,3.21-9.93,6.33-19.89,9.71-29.76.64-1.87,1.99-4.26,3.57-4.81,1.58-.56,4.53.31,5.65,1.61.95,1.1.73,3.97,0,5.61-4.86,10.93-10.44,21.57-14.83,32.68-1.89,4.79-3.84,7.23-9.04,6.43-2.12-.33-4.33-.16-6.45-.48-5.34-.8-6.57-4.13-4.6-8.66,4.33-9.99,2.8-20.46,2.85-30.8,0-1.48-.43-3.37-1.39-4.36-4.73-4.9.43-7.04,2.7-9.8.48-.58,3.25-.4,3.53.15,1.43,2.83,3.45,5.95,3.3,8.88-.39,7.75-1.78,15.44-2.78,23.16.48.05.96.11,1.44.16Z"/>
      <path class="cls-3" d="m827.51,746.84c5.77,5.47,6.45,9.82,2.9,16.03-3.14,5.51-6.06,11.14-9.07,16.72-.46-.2-.92-.4-1.38-.6,2.57-5.92,4.9-11.97,7.85-17.7,1.13-2.19,1.79-3.57-.05-5.51-2.68-2.83-3.54-5.84-.24-8.94Z"/>
      <path class="cls-3" d="m800.48,741.35c-4.69-1.14-6.73-6.02-3.5-9.59.5-.56,1.66-.93,2.36-.76.5.12,1,1.29,1.04,2.02.14,2.81.08,5.62.1,8.33Z"/>
      <path class="cls-3" d="m523.78,823.13c-.81,5.21-1.56,9.96-2.3,14.72-5.74-14.69-4.92-15.81,2.3-14.72Z"/>
    </g>
    <circle class="cls-4" cx="522.99" cy="529.84" r="505.87"/>
    <path class="cls-3" d="m269.44,340.38c27.88-45.19,67.3-76.54,113.39-100.13.49.55.98,1.09,1.47,1.64-1.25,1.07-2.39,2.29-3.75,3.18-16.1,10.56-32.71,20.44-48.23,31.78-15.73,11.5-29.01,25.75-41.51,40.83-14.14,17.06-24.3,36.42-33.64,56.1-11.03,23.23-17.75,48.08-21.33,73.6-1.05,7.46-.53,15.13-.73,22.7.62.08,1.23.16,1.85.23,1.19-6.92,2.55-13.82,3.54-20.77,2.89-20.29,8.13-40.06,16.07-58.83,7.66-18.09,15.84-36.21,26.16-52.84,8.27-13.33,19.97-24.57,30.37-36.55,11.24-12.94,24.91-23.13,39.08-32.52,10.69-7.08,21.93-13.33,32.88-20.02,3.42-2.09,7.52-3.94,4.59-9.31-2.05-3.75-6.26-4.76-11.15-2.25-22.56,11.6-43.53,25.34-62.82,42.07-17.78,15.42-33.19,32.61-46.87,51.57-2.08,2.88-3.53,5.82.65,9.52Z"/>
  </g>
</svg>