<?xml version="1.0" encoding="UTF-8"?>
<svg id="Layer_1" data-name="Layer 1" xmlns="http://www.w3.org/2000/svg" viewBox="0 0 195.88 49.72">
  <defs>
    <style>
      .cls-1, .cls-2, .cls-3 {
        fill: #fbfae4;
      }

      .cls-2 {
        font-family: 'UniQAIDAR_Hemin', UniQAIDAR_Hemin;
        font-size: 11.81px;
      }

      .cls-3 {
        font-size: 3.82px;
      }

      .cls-3, .cls-4 {
        font-family: Algerian, Algerian;
      }

      .cls-4 {
        fill: #10202a;
        font-size: 3.24px;
      }
    </style>
  </defs>
  <g>
    <path class="cls-1" d="m194.49,24.85c0,12.96-10.51,23.47-23.47,23.47s-23.47-10.51-23.47-23.47S158.05,1.38,171.02,1.38s23.47,10.51,23.47,23.47Zm-23.47-22.57c-12.47,0-22.57,10.11-22.57,22.57s10.11,22.57,22.57,22.57,22.57-10.11,22.57-22.57-10.11-22.57-22.57-22.57Z"/>
    <g>
      <path class="cls-1" d="m149.77,32.61s5.13,14.92,21.1,15.05c16.94.14,21.39-15.15,21.39-15.15l-2.49-.71s-.26-.06-.52-.06-.39.58-.39.58c0,0-4.19,11.64-17.6,11.91-12.49.26-18.05-11.91-18.05-11.91,0,0-.2-.45-.39-.58s-.78.13-.78.13l-2.26.74Z"/>
      <g>
        <path class="cls-1" d="m190.08,21.89c.71.45,1.24.94,1.48,1.68.06.19.06.42.03.62-.01.09-.14.19-.24.23-.07.03-.22-.02-.25-.08-.25-.41-.52-.81-.71-1.25-.15-.35-.19-.74-.3-1.19Z"/>
        <path class="cls-1" d="m191.48,18.78c-.71-.69-.85-2.09-.41-2.88.69.58.91,2.13.41,2.88Z"/>
        <path class="cls-1" d="m190.5,19.68c-1.03-.51-1.17-1.51-1.47-2.49.65.48,1.22.93,1.6,1.59.18.32.14.61-.13.91Z"/>
        <path class="cls-1" d="m189.72,19.78c.59.29,1.15.62,1.43,1.27.06.13.12.27.11.4,0,.14-.05.31-.14.41-.15.15-.34.04-.45-.09-.26-.35-.53-.7-.74-1.08-.14-.26-.19-.56-.28-.85l.07-.05Z"/>
        <path class="cls-1" d="m193.16,21.87c.31.73-.02,2.15-.59,2.5-.45-.72-.35-1.35.59-2.5Z"/>
        <path class="cls-1" d="m190.09,26.09c.46.54.92,1,1.11,1.64.12.39.04.68-.27.84-.74-.64-.81-1.52-.84-2.48Z"/>
        <path class="cls-1" d="m192.32,22.29c-.64-.99.03-1.72.4-2.53.4.77.2,2.05-.4,2.53Z"/>
        <path class="cls-1" d="m190.23,24.35c.52.34.91.68,1.13,1.18.21.48.2.62-.16,1.1-.72-.56-.8-1.4-.97-2.28Z"/>
        <path class="cls-1" d="m193.31,24.22c.05.89-.04,1.72-.77,2.34-.07-.11-.15-.2-.2-.3-.23-.48.07-.85.29-1.22.18-.3.45-.54.67-.81Z"/>
        <path class="cls-1" d="m192.31,28.6c-.51-.7-.11-1.19.31-1.66.19-.21.42-.39.69-.63-.11.92-.27,1.72-1,2.29Z"/>
        <path class="cls-1" d="m192.01,30.58c-.42-.62-.31-.68.05-1.15.32-.42.71-.8,1.11-1.15-.14.9-.37,1.73-1.16,2.3Z"/>
        <path class="cls-1" d="m190.06,28.2c.28.49.59.97.84,1.47.15.3.04.59-.22.85-.7-.61-.73-1.44-.75-2.26.04-.02.08-.04.12-.06Z"/>
        <path class="cls-1" d="m192.06,20.22c-.35-.11-.34-.4-.28-.67.12-.52.27-1.04.42-1.6.41.74.33,1.71-.14,2.27Z"/>
      </g>
      <g>
        <path class="cls-1" d="m152.27,21.89c-.26,1.04-.32,2.09-1.32,2.67-.43-.48-.25-.94-.01-1.39.29-.55.75-.93,1.34-1.29Z"/>
        <path class="cls-1" d="m151.27,15.85c.25.53.34,1.06.21,1.59-.12.49-.34.96-.53,1.5-.57-.84-.42-2.14.32-3.09Z"/>
        <path class="cls-1" d="m153.33,17.28c-.28.9-.36,1.91-1.4,2.37-.32-.39-.37-.65-.07-1.01.42-.51.9-.97,1.35-1.45l.12.09Z"/>
        <path class="cls-1" d="m152.73,19.69c-.2.82-.43,1.52-1,2.06-.18.17-.37.21-.52.06-.1-.11-.15-.34-.12-.49.09-.45.36-.8.73-1.06.27-.19.56-.35.91-.56Z"/>
        <path class="cls-1" d="m151.49,28.54c-.46-.26-.46-.29-.38-.77.13-.7.65-1.13,1.12-1.69-.01.94-.1,1.77-.74,2.45Z"/>
        <path class="cls-1" d="m150.8,26.18c-.01-.83.56-1.35,1.25-1.85-.07.77-.14,1.49-.66,2.08-.18.2-.32.19-.43-.06-.02-.04-.07-.07-.17-.17Z"/>
        <path class="cls-1" d="m149.78,24.45c-.72-.73-.81-1.63-.67-2.64.63.81,1.18,1.57.67,2.64Z"/>
        <path class="cls-1" d="m150.33,30.59c-.8-.57-1.08-1.39-1.26-2.25.02-.02.05-.04.07-.06.4.43.81.85,1.2,1.29.28.32.26.66,0,1.02Z"/>
        <path class="cls-1" d="m149.89,22.21c-.58-.73-.56-1.57-.37-2.48.67,1,.86,1.73.65,2.38-.09.03-.16.06-.28.1Z"/>
        <path class="cls-1" d="m150.02,28.55c-.69-.56-.93-1.32-1.02-2.22.61.44,1.09.9,1.28,1.59.06.23.02.48-.26.62Z"/>
        <path class="cls-1" d="m149.04,24.19c.3.44.61.88.89,1.33.14.23.21.49-.03.73-.05.05,0,.2,0,.34-.82-.62-.95-1.46-.95-2.35.03-.02.07-.03.1-.05Z"/>
        <path class="cls-1" d="m152.38,28.26c-.02.62-.03,1.24-.35,1.8-.07.12-.15.25-.26.32-.07.04-.29-.02-.29-.06-.04-.26-.2-.53-.02-.8.28-.43.55-.86.82-1.3.04.02.07.03.11.05Z"/>
        <path class="cls-1" d="m150.1,17.99c.13.42.28.81.37,1.22.08.38.22.79-.13,1.13-.42-.32-.69-1.67-.24-2.35Z"/>
      </g>
      <g>
        <text class="cls-3" transform="translate(155.01 13.83) rotate(-48.58)"><tspan x="0" y="0">D</tspan></text>
        <text class="cls-3" transform="translate(156.49 12.14) rotate(-43.39)"><tspan x="0" y="0">r</tspan></text>
        <text class="cls-3" transform="translate(158.24 10.52) rotate(-39.51)"><tspan x="0" y="0"> </tspan></text>
        <text class="cls-3" transform="translate(158.93 9.91) rotate(-35.35)"><tspan x="0" y="0">R</tspan></text>
        <text class="cls-3" transform="translate(160.85 8.55) rotate(-28.93)"><tspan x="0" y="0">e</tspan></text>
        <text class="cls-3" transform="translate(162.86 7.42) rotate(-21.63)"><tspan x="0" y="0">b</tspan></text>
        <text class="cls-3" transform="translate(165.05 6.52) rotate(-12.65)"><tspan x="0" y="0">w</tspan></text>
        <text class="cls-3" transform="translate(167.92 5.87) rotate(-2.29)"><tspan x="0" y="0">a</tspan></text>
        <text class="cls-3" transform="translate(170.72 5.78) rotate(5.1)"><tspan x="0" y="0">r</tspan></text>
        <text class="cls-3" transform="translate(173.11 6.02) rotate(9.59)"><tspan x="0" y="0"> </tspan></text>
        <text class="cls-3" transform="translate(174 6.12) rotate(14.69)"><tspan x="0" y="0">A</tspan></text>
        <text class="cls-3" transform="translate(176.72 6.88) rotate(19.85)"><tspan x="0" y="0">.</tspan></text>
        <text class="cls-3" transform="translate(177.67 7.22) rotate(22.49)"><tspan x="0" y="0"> </tspan></text>
        <text class="cls-3" transform="translate(178.51 7.52) rotate(27.39)"><tspan x="0" y="0">A</tspan></text>
        <text class="cls-3" transform="translate(181.02 8.84) rotate(33.56)"><tspan x="0" y="0">l</tspan></text>
        <text class="cls-3" transform="translate(182.72 9.97) rotate(38.52)"><tspan x="0" y="0">l</tspan></text>
        <text class="cls-3" transform="translate(184.33 11.22) rotate(44.31)"><tspan x="0" y="0">a</tspan></text>
        <text class="cls-3" transform="translate(186.34 13.21) rotate(50.49)"><tspan x="0" y="0">f</tspan></text>
      </g>
      <path class="cls-1" d="m174.86,25.79c.29-.49.57-.98.88-1.46.19-.31.41-.6.64-.88.21-.25.47-.45.81-.34.34.11.52.4.6.77.07.34.11.69.2,1.01.2.72.61.88,1.13.37.47-.46.86-1.02,1.28-1.55.13-.16.21-.37.34-.51.13-.13.34-.32.45-.28.18.07.38.28.45.48.21.62.2.64.8.67.92.04,1.77-.31,2.57-.76.73-.41,1.42-.92,2.13-1.39.27-.18.51-.43.93-.37-.09.23-.15.44-.25.61-.45.73-1.08,1.23-1.77,1.6-.79.42-1.59.84-2.42,1.12-.89.3-1.78.27-2.49-.57-.32.43-.62.84-.94,1.22-.17.2-.35.39-.55.56-.82.66-1.77.38-2.22-.67-.17-.41-.28-.85-.43-1.32-.08.08-.19.15-.25.25-.42.67-.82,1.35-1.24,2.03-.13.21-.28.39-.43.59-.16.21-.38.42-.6.26-.2-.14-.42-.42-.44-.66-.05-.57-.01-1.17.04-1.75.11-1.05.26-2.11.39-3.16,0-.06,0-.12-.05-.2-.1.25-.21.49-.29.74-.44,1.29-.85,2.6-1.31,3.88-.44,1.21-1.14,2.23-2.03,3.08-.21.21-.43.41-.67.58-.78.54-1.26.39-1.75-.6-.1-.21-.15-.46-.24-.74-.24.12-.46.24-.7.34-.82.34-1.58.13-2.18-.46-.63-.62-1.18-1.35-1.72-2.08-.53-.73-.5-.74-1.29-.35-.43.21-.87.41-1.33.53-.57.15-.91-.05-1.26-.62-.17.51-.32.99-.49,1.45-.63,1.74-1.24,3.49-2.41,4.91-.15.19-.32.36-.5.51-.23.19-.47.12-.62-.14-.27-.46-.23-.96-.11-1.44.27-1.1.58-2.19.89-3.28.74-2.61,1.72-5.1,3.06-7.4.72-1.23,1.41-2.51,2.5-3.4.72-.59,1.46-1.16,2.36-1.32.65-.12,1.16.07,1.58.66.51.71.73,1.54.71,2.42-.02,1.14-.03,2.29-.5,3.37-.4.92-1,1.64-1.7,2.27-.25.22-.5.42-.67.56.52.83,1.02,1.64,1.55,2.42.14.21.39.34.61.48.63.39,1.8-.22,2.2-.86.07-.12.08-.29.1-.43.17-1.1.44-2.15,1.05-3.07.17-.26.3-.63.7-.52.31.09.53.41.52.89-.01.36-.05.76-.2,1.08-.36.82-.78,1.61-1.2,2.41-.24.46-.2,1.39.13,1.85.6-.21,1.02-.71,1.46-1.18.89-.95,1.51-2.11,1.98-3.36.67-1.79,1.31-3.58,1.95-5.38.12-.35.17-.73.27-1.09.03-.11.09-.27.16-.29.1-.03.28.03.31.11.11.26.25.55.23.81-.08.94-.22,1.88-.34,2.82-.17,1.3-.34,2.6-.5,3.9,0,.07,0,.14,0,.21.03.02.07.03.1.05Zm-15.03-.56s.04.02.06.03c.05-.06.1-.12.16-.17.78-.7,1.58-1.29,2.63-.85.1.04.27,0,.37-.07,1.55-1.04,2.61-2.43,2.73-4.52.05-.89.16-1.77-.21-2.6-.25-.55-.48-.67-1.03-.5-1.18.36-2.18,1.06-2.99,2.11-.36.46-.68.87-.73,1.58-.07,1.12-.36,2.23-.59,3.35-.11.55-.28,1.09-.42,1.64Zm.29-4.3c-1.95,3-2.84,6.44-3.63,9.93,1.91-3.01,2.76-6.47,3.63-9.93Z"/>
      <g>
        <text class="cls-4" transform="translate(150.71 34.62) rotate(61.25) scale(1.04 1)"><tspan x="0" y="0">O</tspan></text>
        <text class="cls-4" transform="translate(151.79 36.57) rotate(56.17) scale(1.04 1)"><tspan x="0" y="0">r</tspan></text>
        <text class="cls-4" transform="translate(153.06 38.45) rotate(51.3) scale(1.04 1)"><tspan x="0" y="0">t</tspan></text>
        <text class="cls-4" transform="translate(154.36 40.08) rotate(46.21) scale(1.04 1)"><tspan x="0" y="0">h</tspan></text>
        <text class="cls-4" transform="translate(155.93 41.71) rotate(40.64) scale(1.04 1)"><tspan x="0" y="0">o</tspan></text>
        <text class="cls-4" transform="translate(157.65 43.17) rotate(34.89) scale(1.04 1)"><tspan x="0" y="0">p</tspan></text>
        <text class="cls-4" transform="translate(159.41 44.39) rotate(28.95) scale(1.04 1)"><tspan x="0" y="0">e</tspan></text>
        <text class="cls-4" transform="translate(161.4 45.48) rotate(22.77) scale(1.04 1)"><tspan x="0" y="0">d</tspan></text>
        <text class="cls-4" transform="translate(163.38 46.28) rotate(18.27) scale(1.04 1)"><tspan x="0" y="0">i</tspan></text>
        <text class="cls-4" transform="translate(164.48 46.66) rotate(13.89) scale(1.04 1)"><tspan x="0" y="0">c</tspan></text>
        <text class="cls-4" transform="translate(166.49 47.13) rotate(9.94) scale(1.04 1)"><tspan x="0" y="0"> </tspan></text>
        <text class="cls-4" transform="translate(167.43 47.33) rotate(5.42) scale(1.04 1)"><tspan x="0" y="0">a</tspan></text>
        <text class="cls-4" transform="translate(170.14 47.57) rotate(-1.03) scale(1.04 1)"><tspan x="0" y="0">n</tspan></text>
        <text class="cls-4" transform="translate(172.28 47.55) rotate(-5.3) scale(1.04 1)"><tspan x="0" y="0">d</tspan></text>
        <text class="cls-4" transform="translate(174.39 47.33) rotate(-9.12) scale(1.04 1)"><tspan x="0" y="0"> </tspan></text>
        <text class="cls-4" transform="translate(175.34 47.2) rotate(-13.25) scale(1.04 1)"><tspan x="0" y="0">H</tspan></text>
        <text class="cls-4" transform="translate(177.58 46.67) rotate(-20.07) scale(1.04 1)"><tspan x="0" y="0">a</tspan></text>
        <text class="cls-4" transform="translate(180.15 45.7) rotate(-26.87) scale(1.04 1)"><tspan x="0" y="0">n</tspan></text>
        <text class="cls-4" transform="translate(182.08 44.71) rotate(-32.77) scale(1.04 1)"><tspan x="0" y="0">d</tspan></text>
        <text class="cls-4" transform="translate(183.86 43.54) rotate(-36.82) scale(1.04 1)"><tspan x="0" y="0"> </tspan></text>
        <text class="cls-4" transform="translate(184.63 42.98) rotate(-40.67) scale(1.04 1)"><tspan x="0" y="0">C</tspan></text>
        <text class="cls-4" transform="translate(186.22 41.6) rotate(-45.67) scale(1.04 1)"><tspan x="0" y="0">l</tspan></text>
        <text class="cls-4" transform="translate(187.56 40.2) rotate(-49.26) scale(1.04 1)"><tspan x="0" y="0">i</tspan></text>
        <text class="cls-4" transform="translate(188.31 39.35) rotate(-52.95) scale(1.04 1)"><tspan x="0" y="0">n</tspan></text>
        <text class="cls-4" transform="translate(189.56 37.67) rotate(-56.52) scale(1.04 1)"><tspan x="0" y="0">i</tspan></text>
        <text class="cls-4" transform="translate(190.19 36.74) rotate(-60.18) scale(1.04 1)"><tspan x="0" y="0">c</tspan></text>
      </g>
    </g>
  </g>
  <text class="cls-2" transform="translate(1 44.33) scale(.83 1)"><tspan x="0" y="0">ديلا ةحارجو روـــســكلاو ماظعلا ةحارج ةدايع</tspan></text>
  <rect class="cls-1" x="1.38" y="34.48" width="140.82" height=".7"/>
  <g>
    <path class="cls-1" d="m28.54,16.08c-.05.11-.12.24-.22.4s-.2.31-.3.45c-.1.14-.2.27-.3.37-.09.1-.16.15-.2.15-.07,0-.19-.03-.38-.09-.18-.06-.39-.14-.6-.24s-.43-.21-.63-.34c-.2-.13-.35-.26-.45-.41,0-.01.02-.05.05-.12s.07-.14.12-.23c.06-.09.11-.18.18-.29.06-.11.13-.21.19-.3.07-.1.13-.18.2-.26.06-.08.12-.13.17-.17.19.14.38.27.58.38s.39.22.58.31c.19.09.37.17.54.23.17.06.33.11.47.14h0Z"/>
    <path class="cls-1" d="m8.33,19.46s-.04.07-.11.11c-1.01.51-1.89,1.02-2.62,1.54-.73.52-1.34,1.05-1.82,1.59-.48.54-.83,1.09-1.06,1.64-.23.55-.34,1.11-.34,1.68s.12,1.12.35,1.61c.24.49.57.94.99,1.34.42.4.93.76,1.52,1.07.59.31,1.23.57,1.94.78.7.21,1.45.37,2.24.47s1.61.16,2.45.16,1.7-.05,2.6-.14c.9-.09,1.81-.23,2.73-.41s1.84-.4,2.76-.66c.92-.26,1.82-.56,2.7-.9.88-.34,1.73-.71,2.55-1.13.82-.41,1.59-.86,2.32-1.34.49-.32.92-.64,1.3-.97.38-.33.71-.64.98-.94.27-.3.47-.57.61-.82.14-.25.21-.46.21-.62,0-.11-.03-.22-.08-.33-.05-.11-.15-.22-.29-.33h-.07c-.33.17-.63.3-.92.37s-.57.12-.85.12c-.36,0-.65-.05-.89-.16s-.43-.23-.57-.38c-.14-.14-.25-.3-.31-.45-.06-.16-.09-.28-.09-.39,0-.08.02-.2.05-.34.03-.14.07-.3.12-.47.05-.17.1-.34.15-.51.05-.18.09-.34.13-.49.09-.33.23-.59.44-.79.21-.2.52-.29.92-.29.31,0,.61.07.88.21s.53.32.77.56c.21.24.39.49.56.76.16.27.3.56.41.88.11.32.2.66.26,1.04.06.37.09.78.09,1.22s-.07.85-.2,1.27c-.13.42-.34.83-.62,1.25-.28.42-.65.84-1.09,1.27-.45.43-.98.87-1.61,1.32-.74.53-1.53,1.02-2.37,1.45-.84.44-1.7.83-2.6,1.17-.89.34-1.8.64-2.73.9-.93.25-1.86.46-2.78.63-.93.17-1.84.29-2.75.38s-1.78.12-2.63.12c-.95,0-1.87-.06-2.76-.18s-1.73-.31-2.51-.56-1.5-.56-2.15-.94c-.65-.38-1.21-.81-1.68-1.32-.47-.5-.83-1.07-1.09-1.7-.26-.63-.39-1.33-.39-2.09,0-.57.09-1.13.26-1.68.17-.55.44-1.09.8-1.61.36-.53.83-1.04,1.39-1.54s1.23-.99,2.01-1.46c.58-.35,1.08-.61,1.5-.77s.68-.24.81-.24c.05,0,.09,0,.13,0,.04,0,.06.02.06.04Z"/>
    <path class="cls-1" d="m37.32,28.59c-.22.34-.44.63-.68.88-.24.25-.48.47-.72.66-.24.19-.5.35-.79.48-.29.13-.59.23-.9.31-.31.08-.62.14-.94.18-.32.04-.62.08-.9.1s-.55.05-.8.07c-.25.02-.45.04-.63.07-.22.04-.42.08-.6.12-.18.04-.29.05-.34.05-.04,0-.07,0-.11-.01-.04,0-.06-.03-.06-.05s.05-.06.14-.09c.09-.04.16-.07.23-.11,1.48-.6,2.71-1.16,3.67-1.68.97-.52,1.67-1.01,2.12-1.47v-.03c-.34-.15-.65-.34-.92-.58-.27-.23-.49-.5-.68-.79-.18-.29-.32-.61-.42-.96-.1-.34-.14-.71-.14-1.08,0-.83.24-1.69.71-2.59s1.13-1.83,1.99-2.8h.09c.06.2.15.44.28.7.13.27.27.55.42.86.15.31.31.64.48.98.17.34.32.68.45,1.02.14.34.25.68.34,1.02.09.34.13.66.13.96,0,.64-.18,1.33-.55,2.08l.07.05c.66,0,1.07.23,1.24.7-.06.18-.16.33-.28.45-.13.12-.28.21-.46.29-.18.07-.39.12-.62.15-.23.03-.48.05-.74.05h-.07Zm0-1.69c.1-.13.19-.27.25-.43.06-.16.1-.35.1-.59,0-.27-.04-.56-.13-.86-.09-.3-.19-.6-.32-.9-.13-.3-.27-.59-.42-.88-.15-.29-.29-.56-.43-.82s-.25-.49-.34-.7c-.09-.21-.15-.39-.17-.53h-.07c-.42.58-.73,1.1-.92,1.57-.19.47-.28.91-.28,1.3s.07.74.22,1.07c.14.33.34.62.59.87.25.25.53.45.85.61.32.16.65.26,1,.3l.07-.03Z"/>
    <path class="cls-1" d="m44.15,25.39c-.33,0-.62-.04-.89-.14-.27-.09-.51-.25-.71-.47h-.07c-.03.26-.08.54-.15.82s-.17.56-.3.84c-.19.43-.44.78-.74,1.07-.3.29-.63.52-.98.7-.35.18-.7.31-1.05.38-.35.08-.67.12-.95.12-.36,0-.66-.04-.9-.12-.25-.09-.43-.22-.55-.39s-.17-.36-.17-.58c.12-.21.31-.37.56-.49.25-.12.59-.18,1.03-.18.22,0,.46-.03.72-.08.26-.05.52-.12.77-.22.26-.1.51-.22.75-.36.24-.14.45-.3.64-.47.18-.18.33-.37.44-.58.11-.21.17-.43.17-.67,0-.2-.04-.45-.13-.76-.09-.31-.2-.64-.33-1-.13-.36-.28-.74-.43-1.14-.15-.4-.3-.78-.43-1.16-.13-.38-.24-.74-.33-1.08-.09-.34-.13-.64-.13-.89,0-.22.07-.49.21-.8.14-.31.36-.68.68-1.09l.09.04s-.02.09-.02.14v.15c0,.26.04.57.13.95.09.37.2.77.34,1.21s.29.89.46,1.38c.17.48.34.97.51,1.45.18.51.39.95.61,1.32s.46.66.7.87c.17.15.28.33.35.53s.11.39.11.57v.13Z"/>
    <path class="cls-1" d="m41.25,19.84c.18.15.33.3.43.43.1.13.18.26.21.37.02.06.05.15.09.28s.1.27.16.44c.06.17.13.35.2.54.07.19.15.38.23.57.15.38.32.7.51.97.19.27.4.48.64.65s.52.28.83.36c.31.07.68.11,1.1.11.29,0,.6-.04.93-.12s.69-.2,1.07-.38c.38-.17.79-.39,1.23-.66.44-.27.9-.6,1.4-.98v-.04c-.56-.07-1.06-.17-1.51-.3-.45-.13-.83-.29-1.14-.47s-.55-.39-.72-.62c-.17-.23-.25-.47-.25-.74,0-.17.03-.36.09-.59.06-.23.17-.51.33-.85.26-.54.62-.96,1.1-1.26.47-.29,1.09-.44,1.83-.44.28,0,.59.02.93.06.34.04.65.11.93.2s.52.21.71.35c.19.14.29.32.29.52,0,.08,0,.18,0,.32,0,.13,0,.27,0,.41,0,.2,0,.36,0,.48,0,.12,0,.22,0,.3,0,.03,0,.06-.01.1,0,.04-.04.06-.1.07-.07,0-.11-.04-.14-.12-.03-.08-.09-.2-.18-.36-.05-.11-.15-.21-.3-.32-.15-.11-.36-.21-.6-.29s-.54-.16-.88-.21c-.34-.05-.73-.08-1.16-.08-.28,0-.53.02-.77.07-.23.04-.44.1-.61.17-.17.07-.31.14-.4.23s-.14.16-.14.24c0,.2.11.4.32.58.21.19.51.35.88.5.37.14.79.26,1.28.35.48.09.99.13,1.53.13.28,0,.6-.02.94-.07.34-.05.7-.12,1.08-.22.38-.1.78-.23,1.18-.39.41-.16.82-.34,1.24-.56l.05.07c-.15.2-.28.38-.38.56s-.21.35-.32.53c-.12.21-.31.41-.58.58s-.57.35-.89.53c-.33.18-.67.36-1.01.54-.34.19-.64.39-.89.62-.58.52-1.12,1-1.62,1.42s-1,.78-1.49,1.08c-.49.3-.99.53-1.5.69s-1.06.24-1.65.24c-.46,0-.89-.05-1.3-.14-.4-.1-.77-.25-1.11-.45s-.63-.47-.9-.79c-.26-.32-.49-.71-.68-1.17-.12-.3-.24-.6-.34-.91-.1-.31-.19-.59-.27-.85-.07-.26-.13-.49-.18-.69s-.06-.34-.06-.42c0-.21.02-.41.06-.61.04-.2.09-.38.17-.55h.11Z"/>
    <path class="cls-1" d="m71.21,25.26s0,.05-.03.07c-.02.02-.05.03-.08.03-.06,0-.09-.02-.11-.07-.14-.27-.3-.48-.48-.63-.18-.15-.33-.22-.46-.22-.05,0-.09.02-.12.06-.03.04-.05.09-.06.15s-.03.13-.04.2c0,.07-.02.14-.02.19-.07.64-.18,1.19-.3,1.66-.13.47-.28.88-.47,1.23-.18.35-.39.65-.62.9-.23.25-.48.47-.75.67-.32.23-.69.42-1.1.58-.41.16-.84.29-1.29.41-.44.11-.88.2-1.32.28-.44.07-.84.14-1.19.19-.2.03-.36.06-.5.11-.14.04-.22.07-.26.07-.09,0-.13-.02-.13-.05,0-.01.03-.04.08-.07.06-.03.12-.07.21-.11s.17-.08.27-.13c.09-.04.18-.08.25-.12.47-.22.97-.48,1.51-.76.54-.28,1.07-.62,1.59-1,.52-.39,1.01-.84,1.47-1.35.46-.51.84-1.11,1.15-1.8.09-.19.16-.39.23-.6.06-.2.12-.41.17-.6.05-.2.09-.39.12-.58.04-.18.07-.36.11-.53.07-.36.16-.64.27-.86.11-.22.25-.33.43-.33.15,0,.31.05.49.15s.35.26.52.48c.1.13.18.3.24.52.06.22.11.44.14.68.03.23.06.46.06.68,0,.22.01.39.01.52Z"/>
    <path class="cls-1" d="m74.06,29.28s.02-.07.06-.09c.04-.03.09-.05.14-.08.29-.18.59-.36.9-.56.31-.2.6-.42.86-.67.26-.25.47-.52.64-.82.17-.3.25-.65.25-1.03,0-.28-.04-.61-.12-.97-.08-.37-.21-.78-.38-1.23-.18-.45-.4-.96-.67-1.51s-.59-1.16-.97-1.82h-.07c-.17.22-.28.43-.35.64s-.1.41-.1.62c0,.14.02.27.06.39.04.12.06.19.06.22s0,.05,0,.08c0,.03-.03.04-.06.04-.05,0-.09-.02-.12-.06-.03-.04-.07-.09-.1-.15-.1-.21-.19-.42-.24-.63s-.09-.44-.09-.69c0-.23.05-.45.15-.67.1-.22.23-.44.38-.67s.33-.46.53-.71c.19-.24.38-.5.56-.77h.07c.26.55.55,1.12.87,1.7.31.59.61,1.18.88,1.77.27.59.5,1.17.68,1.75s.27,1.13.27,1.66c0,.2,0,.39-.03.56-.02.17-.05.34-.08.5-.04.16-.08.32-.14.47-.06.15-.13.31-.21.47-.2.44-.53.85-.98,1.22s-1.02.66-1.71.87c-.2.05-.37.11-.51.16-.14.05-.23.08-.29.08-.04,0-.07,0-.09,0-.02,0-.04-.02-.04-.05Z"/>
    <path class="cls-1" d="m88.7,24.11c-.18.22-.38.41-.61.57-.23.16-.48.29-.76.39.03.13.05.25.05.37,0,.12,0,.24,0,.37,0,.47-.06.91-.17,1.3-.11.4-.28.76-.49,1.09s-.48.63-.79.9c-.31.27-.66.52-1.06.74-.35.18-.69.33-1.01.43-.33.11-.67.2-1.04.28-.37.08-.78.15-1.23.22-.45.07-.97.14-1.57.24-.19.03-.37.06-.54.1-.17.04-.32.07-.46.11-.14.03-.25.06-.33.09-.09.02-.14.03-.17.03-.05,0-.09,0-.13-.01-.04,0-.06-.03-.06-.07,0-.04.07-.09.2-.14.14-.06.33-.14.59-.26.96-.36,1.81-.73,2.55-1.08.74-.36,1.39-.7,1.94-1.03.55-.33,1.01-.64,1.39-.94.38-.29.68-.56.91-.81s.4-.46.5-.64.15-.33.15-.43c0-.08-.02-.16-.06-.24s-.11-.17-.2-.26c-.33.05-.61.09-.87.12-.25.03-.48.04-.68.04-.31,0-.59-.03-.83-.1-.24-.07-.44-.15-.61-.26-.17-.11-.29-.23-.37-.37-.08-.14-.12-.28-.12-.43,0-.07.01-.17.04-.31.02-.14.06-.28.09-.44.03-.16.06-.32.1-.48s.06-.32.09-.45c.03-.2.09-.37.18-.51.09-.14.19-.26.32-.35.13-.09.28-.16.44-.2s.34-.07.53-.07c.31,0,.58.05.81.14.23.09.44.22.62.4.18.18.35.4.51.67.16.27.31.58.47.93.38.05.71.1.99.16s.5.12.67.2Z"/>
    <path class="cls-1" d="m93.45,27.72c-.05.11-.12.24-.22.4s-.19.31-.3.45-.2.27-.3.37c-.09.1-.16.15-.2.15-.07,0-.19-.03-.38-.09-.18-.06-.39-.14-.6-.24s-.43-.21-.63-.34c-.2-.13-.35-.26-.45-.41,0-.01.02-.05.05-.12.03-.07.07-.14.12-.23.06-.09.11-.18.18-.29s.13-.21.19-.3c.07-.1.13-.18.2-.26.06-.08.12-.13.17-.17.19.14.38.27.58.38.2.11.39.22.58.31.19.09.37.17.54.23s.33.11.47.14h0Z"/>
    <path class="cls-1" d="m83,24.64c.08-.13.18-.26.3-.38.12-.12.26-.23.41-.32.15-.09.31-.17.47-.22.17-.06.33-.08.49-.08.18,0,.39,0,.63.03.24.02.46.03.66.03.41,0,.82-.04,1.23-.11.41-.07.82-.19,1.23-.35.41-.16.83-.36,1.24-.6s.84-.54,1.27-.88c.13-.11.25-.23.35-.36s.2-.26.28-.4c.08-.14.15-.3.21-.47.06-.17.1-.36.13-.57.01-.09.04-.16.09-.21.05-.05.12-.08.21-.08.09,0,.15.03.18.08.04.05.06.11.07.19.01.12.03.23.06.32.03.09.09.18.17.27.08.09.2.17.35.27.15.09.35.2.6.32.42.21.73.42.91.62s.27.41.27.6v.17c-.15.07-.3.13-.47.15-.16.03-.33.04-.49.04-.2,0-.4-.03-.61-.1-.21-.06-.46-.17-.75-.31h-.06c-.09.2-.24.41-.46.64s-.47.46-.78.7c-.31.24-.66.47-1.06.69-.39.22-.82.42-1.27.6-.45.18-.94.32-1.44.43-.51.11-1.03.16-1.55.16-.68,0-1.26-.06-1.76-.19-.5-.13-.88-.35-1.13-.67Z"/>
    <path class="cls-1" d="m97.04,25.73c-.03.12-.08.25-.16.41-.08.15-.16.3-.24.43-.09.14-.17.25-.24.34-.07.09-.12.14-.15.14-.08,0-.18-.02-.31-.06-.13-.04-.26-.09-.42-.14s-.3-.13-.46-.2c-.15-.07-.3-.15-.43-.23-.13-.08-.24-.15-.34-.22-.09-.07-.15-.14-.18-.19,0-.03.04-.1.11-.23.07-.13.15-.27.24-.42.09-.15.19-.29.29-.42.1-.13.18-.2.23-.23.1.08.23.17.39.27.16.1.34.2.53.29.19.09.38.18.58.27s.38.15.55.19Zm.96-1.42c.25.22.56.42.94.6s.75.31,1.13.42c-.13.24-.24.44-.35.61s-.19.29-.26.39c-.07.1-.13.17-.18.21s-.08.07-.1.07c-.05,0-.13-.01-.23-.04-.1-.03-.22-.07-.36-.12-.14-.05-.28-.11-.43-.18s-.29-.14-.43-.22c-.14-.08-.26-.16-.36-.24-.1-.08-.18-.17-.22-.25,0-.03.03-.1.09-.21.06-.11.13-.23.21-.36.08-.13.17-.26.27-.39.1-.13.19-.22.28-.29Z"/>
    <path class="cls-1" d="m94.12,22.73c-.26,0-.52-.04-.8-.12-.27-.08-.52-.19-.74-.32-.22-.13-.4-.29-.55-.46-.14-.17-.22-.35-.22-.53,0-.11.03-.25.1-.41.07-.16.18-.35.32-.57h.09c.37.26.7.45,1,.55.3.1.57.15.83.15.2,0,.43-.04.71-.13.27-.08.54-.21.8-.37.26-.16.49-.36.7-.59.21-.23.35-.5.41-.79.03-.35.09-.6.17-.74.08-.14.17-.22.25-.22.02,0,.05.01.07.04.02.03.04.06.06.11s.03.09.03.14c0,.05,0,.09,0,.13,0,.11,0,.24-.02.38-.01.14-.02.29-.02.45,0,.25,0,.47-.03.65s-.05.35-.08.49c-.04.14-.08.27-.13.38-.05.11-.1.22-.17.32-.17.26-.36.49-.58.68-.22.19-.45.34-.7.46s-.5.21-.76.26c-.26.06-.52.08-.77.08Z"/>
    <path class="cls-1" d="m103.95,25.26s0,.05-.03.07c-.02.02-.05.03-.08.03-.06,0-.09-.02-.11-.07-.14-.27-.3-.48-.48-.63-.18-.15-.33-.22-.46-.22-.05,0-.09.02-.12.06-.03.04-.05.09-.06.15s-.03.13-.04.2c0,.07-.02.14-.02.19-.07.64-.18,1.19-.3,1.66-.13.47-.28.88-.47,1.23-.18.35-.39.65-.62.9-.23.25-.48.47-.75.67-.32.23-.69.42-1.1.58-.41.16-.84.29-1.29.41-.44.11-.88.2-1.32.28-.44.07-.84.14-1.19.19-.2.03-.36.06-.5.11-.14.04-.22.07-.26.07-.09,0-.13-.02-.13-.05,0-.01.03-.04.08-.07.06-.03.12-.07.21-.11s.17-.08.27-.13c.09-.04.18-.08.25-.12.47-.22.97-.48,1.51-.76.54-.28,1.07-.62,1.59-1,.52-.39,1.01-.84,1.47-1.35.46-.51.84-1.11,1.15-1.8.09-.19.16-.39.23-.6.06-.2.12-.41.17-.6.05-.2.09-.39.12-.58.04-.18.07-.36.11-.53.07-.36.16-.64.27-.86.11-.22.25-.33.43-.33.15,0,.31.05.49.15s.35.26.52.48c.1.13.18.3.24.52.06.22.11.44.14.68.03.23.06.46.06.68,0,.22.01.39.01.52Z"/>
    <path class="cls-1" d="m115.87,25.26s0,.05-.03.07c-.02.02-.05.03-.08.03-.06,0-.09-.02-.11-.07-.14-.27-.3-.48-.48-.63-.18-.15-.33-.22-.46-.22-.05,0-.09.02-.12.06-.03.04-.05.09-.06.15s-.03.13-.04.2c0,.07-.02.14-.02.19-.07.64-.18,1.19-.3,1.66-.13.47-.28.88-.47,1.23-.18.35-.39.65-.62.9-.23.25-.48.47-.75.67-.32.23-.69.42-1.1.58-.41.16-.84.29-1.29.41-.44.11-.88.2-1.32.28-.44.07-.84.14-1.19.19-.2.03-.36.06-.5.11-.14.04-.22.07-.26.07-.09,0-.13-.02-.13-.05,0-.01.03-.04.08-.07.06-.03.12-.07.21-.11s.17-.08.27-.13c.09-.04.18-.08.25-.12.47-.22.97-.48,1.51-.76.54-.28,1.07-.62,1.59-1,.52-.39,1.01-.84,1.47-1.35.46-.51.84-1.11,1.15-1.8.09-.19.16-.39.23-.6.06-.2.12-.41.17-.6.05-.2.09-.39.12-.58.04-.18.07-.36.11-.53.07-.36.16-.64.27-.86.11-.22.25-.33.43-.33.15,0,.31.05.49.15s.35.26.52.48c.1.13.18.3.24.52.06.22.11.44.14.68.03.23.06.46.06.68,0,.22.01.39.01.52Z"/>
    <path class="cls-1" d="m123.13,24.11c-.18.22-.38.41-.61.57-.23.16-.48.29-.76.39.03.13.05.25.05.37,0,.12,0,.24,0,.37,0,.47-.06.91-.17,1.3-.11.4-.28.76-.49,1.09s-.48.63-.79.9c-.31.27-.66.52-1.06.74-.35.18-.69.33-1.01.43-.33.11-.67.2-1.04.28-.37.08-.78.15-1.23.22-.45.07-.97.14-1.57.24-.19.03-.37.06-.54.1-.17.04-.32.07-.46.11-.14.03-.25.06-.33.09-.09.02-.14.03-.17.03-.05,0-.09,0-.13-.01-.04,0-.06-.03-.06-.07,0-.04.07-.09.2-.14.14-.06.33-.14.59-.26.96-.36,1.81-.73,2.55-1.08.74-.36,1.39-.7,1.94-1.03.55-.33,1.01-.64,1.39-.94.38-.29.68-.56.91-.81s.4-.46.5-.64.15-.33.15-.43c0-.08-.02-.16-.06-.24s-.11-.17-.2-.26c-.33.05-.61.09-.87.12-.25.03-.48.04-.68.04-.31,0-.59-.03-.83-.1-.24-.07-.44-.15-.61-.26-.17-.11-.29-.23-.37-.37-.08-.14-.12-.28-.12-.43,0-.07.01-.17.04-.31.02-.14.06-.28.09-.44.03-.16.06-.32.1-.48s.06-.32.09-.45c.03-.2.09-.37.18-.51.09-.14.19-.26.32-.35.13-.09.28-.16.44-.2s.34-.07.53-.07c.31,0,.58.05.81.14.23.09.44.22.62.4.18.18.35.4.51.67.16.27.31.58.47.93.38.05.71.1.99.16s.5.12.67.2Z"/>
    <path class="cls-1" d="m124.91,17.1c-.03.12-.08.25-.16.41-.08.15-.16.3-.24.43s-.17.25-.24.34c-.07.09-.12.14-.15.14-.08,0-.18-.02-.31-.06s-.26-.09-.42-.14-.3-.13-.46-.2c-.15-.07-.3-.15-.43-.23-.13-.08-.24-.15-.34-.22-.09-.07-.15-.14-.18-.19,0-.03.04-.1.11-.23.07-.13.15-.27.24-.42.09-.15.19-.29.29-.42.1-.13.18-.2.23-.23.1.08.23.17.39.27.16.1.34.2.53.29.19.09.38.18.58.27.2.08.38.15.55.19Zm.96-1.42c.25.22.56.42.94.6.37.18.75.31,1.13.42-.13.24-.24.44-.35.61s-.19.29-.26.39c-.07.1-.13.17-.18.21-.05.04-.08.07-.1.07-.05,0-.13-.01-.23-.04-.1-.03-.22-.07-.36-.12-.14-.05-.28-.11-.43-.18-.15-.07-.29-.14-.43-.22s-.26-.16-.36-.24c-.1-.09-.18-.17-.22-.25,0-.03.03-.1.09-.21.06-.11.13-.23.21-.36.08-.13.17-.26.27-.39.1-.13.19-.22.28-.29Z"/>
    <path class="cls-1" d="m117.43,24.64c.08-.13.18-.26.3-.38.12-.12.26-.23.41-.32.15-.09.31-.17.47-.22.17-.06.33-.08.49-.08.18,0,.39,0,.63.03.24.02.46.03.66.03.41,0,.82-.04,1.23-.11.41-.07.82-.19,1.23-.35.41-.16.83-.36,1.24-.6s.84-.54,1.27-.88c.13-.11.25-.23.35-.36s.2-.26.28-.4c.08-.14.15-.3.21-.47.06-.17.1-.36.13-.57.01-.09.04-.16.09-.21.05-.05.12-.08.21-.08.09,0,.15.03.18.08.04.05.06.11.07.19.01.12.03.23.06.32.03.09.09.18.17.27.08.09.2.17.35.27.15.09.35.2.6.32.42.21.73.42.91.62s.27.41.27.6v.17c-.15.07-.3.13-.47.15-.16.03-.33.04-.49.04-.2,0-.4-.03-.61-.1-.21-.06-.46-.17-.75-.31h-.06c-.09.2-.24.41-.46.64s-.47.46-.78.7c-.31.24-.66.47-1.06.69-.39.22-.82.42-1.27.6-.45.18-.94.32-1.44.43-.51.11-1.03.16-1.55.16-.68,0-1.26-.06-1.76-.19-.5-.13-.88-.35-1.13-.67Z"/>
    <path class="cls-1" d="m126.76,20.32c.37.26.7.45,1,.55.3.1.57.15.83.15.39,0,.78-.06,1.18-.19.4-.13.8-.34,1.2-.63.41-.29.71-.57.92-.85.21-.27.31-.56.31-.87,0-.12-.03-.29-.09-.5-.06-.21-.14-.44-.23-.7-.09-.26-.19-.53-.3-.81s-.21-.57-.3-.85-.17-.55-.23-.81c-.06-.26-.09-.48-.09-.68,0-.14,0-.28,0-.42,0-.14.02-.28.04-.43.02-.15.05-.32.09-.5.04-.18.09-.4.16-.64.06-.42.15-.83.28-1.24.13-.4.33-.75.61-1.06.11-.12.31-.29.6-.5.29-.21.64-.46,1.04-.74.41-.28.86-.59,1.36-.92.49-.33,1-.69,1.53-1.05.53-.37,1.05-.75,1.58-1.14.53-.39,1.02-.79,1.49-1.18.47-.39.89-.78,1.27-1.17s.68-.76.92-1.11c.03-.04.06-.07.07-.1.02-.02.04-.03.07-.03s.05,0,.05.02c0,.01,0,.03,0,.05s0,.07-.02.14c-.02.07-.04.15-.06.24-.02.09-.05.19-.08.29-.03.1-.05.19-.08.26-.07.25-.15.48-.25.7-.1.22-.22.43-.36.63-.14.2-.29.4-.46.6-.17.2-.36.39-.57.6-.66.66-1.34,1.27-2.01,1.81-.68.54-1.33,1.04-1.96,1.49s-1.22.86-1.77,1.23-1.03.71-1.44,1.02c-.41.31-.73.6-.96.87-.24.27-.35.52-.35.76,0,.12.02.27.06.45.04.18.1.4.18.67.08.27.19.58.32.95.13.37.29.8.47,1.3.13.34.23.64.29.9s.1.48.1.67c0,.13,0,.25-.01.36,0,.11-.02.23-.04.34-.02.12-.04.24-.07.36s-.07.26-.11.4c-.09.34-.19.64-.28.9-.1.26-.2.49-.31.69-.11.2-.23.38-.37.54-.14.16-.29.32-.46.47-.44.37-.91.66-1.4.85-.49.19-1,.29-1.53.29-.26,0-.52-.04-.8-.12-.27-.08-.52-.19-.74-.32-.22-.13-.4-.29-.55-.46-.14-.17-.22-.35-.22-.53,0-.11.03-.25.1-.41.07-.16.18-.35.32-.57h.09Z"/>
    <path class="cls-1" d="m136.98,26.43s-.05,0-.06-.02c0-.02-.01-.03-.01-.06,0-.12-.06-.24-.18-.36-.12-.12-.25-.24-.4-.38-.15-.13-.28-.27-.4-.43-.12-.15-.18-.32-.18-.5,0-.14.01-.27.05-.41.03-.13.07-.26.11-.39.04-.13.08-.25.12-.38.04-.12.08-.23.11-.34.09-.32.21-.61.39-.84.17-.23.38-.43.61-.58.24-.15.5-.26.78-.33.29-.07.59-.11.91-.11.41,0,.8.06,1.15.19.36.13.67.31.93.53s.47.48.62.78c.15.29.23.61.23.94,0,.2-.03.41-.1.63s-.13.43-.2.61c-.17.51-.35.94-.54,1.29-.2.35-.42.65-.66.9-.24.25-.51.46-.81.63-.3.17-.62.33-.98.48-.23.1-.48.18-.77.25-.28.07-.57.13-.87.17s-.59.09-.88.12c-.29.03-.56.06-.81.08-.25.02-.47.04-.65.05-.19.01-.33.03-.42.04-.18.02-.34.05-.48.09-.14.04-.25.05-.31.05s-.11,0-.12-.02c-.02-.01-.02-.03-.02-.06,0-.01.02-.03.06-.05s.08-.04.14-.07.11-.05.17-.07c.06-.02.12-.04.17-.07.43-.16.91-.34,1.43-.54s1.05-.41,1.58-.64,1.05-.46,1.54-.71.94-.5,1.32-.76c.38-.26.69-.52.93-.79.23-.27.35-.53.35-.79,0-.18-.05-.36-.15-.56s-.25-.39-.46-.56c-.2-.17-.46-.31-.77-.43-.31-.11-.67-.17-1.09-.17-.24,0-.46.02-.67.07s-.39.11-.54.18c-.15.07-.27.15-.36.24-.09.09-.13.18-.13.26s.05.16.14.25.2.18.32.28c.12.11.22.22.32.35.09.13.14.26.14.42,0,.2-.04.42-.12.67-.08.25-.2.5-.36.76-.02.03-.04.05-.05.07-.02.02-.04.03-.08.03Z"/>
  </g>
</svg>