<?xml version="1.0" encoding="UTF-8"?>
<svg id="Layer_1" data-name="Layer 1" xmlns="http://www.w3.org/2000/svg" viewBox="0 0 335.73 200.7">
  <defs>
    <style>
      .cls-1 {
        fill: #fff;
      }
    </style>
  </defs>
  <path class="cls-1" d="m200.03,85.34c2.48-4.98,4.86-10.02,7.48-14.93,1.69-3.15,3.58-6.23,5.69-9.12,1.95-2.67,4.44-4.84,8.18-4.18,3.8.68,6.06,3.2,7.38,6.64,1.2,3.13,2.06,6.4,3.46,9.43,3.05,6.59,7.65,7.64,12.55,2.2,4.43-4.92,7.88-10.74,11.66-16.23,1.15-1.67,1.72-3.76,3.01-5.28,1.2-1.41,3.26-3.47,4.46-3.19,2.05.48,4.4,2.2,5.42,4.05,3.07,5.65,2.99,5.89,9.46,5.46,9.89-.66,18.51-4.93,26.54-10.19,7.28-4.77,14.02-10.36,20.94-15.67,2.62-2.01,4.85-4.64,9.48-4.58-.69,2.3-.99,4.38-1.89,6.15-3.82,7.48-9.95,12.96-16.88,17.31-7.88,4.94-15.92,9.83-24.44,13.46-9.09,3.88-18.68,4.58-27.35-2.54-2.91,4.42-5.55,8.67-8.43,12.74-1.51,2.14-3.27,4.17-5.21,5.93-7.94,7.2-18.4,5.62-24.57-3.86-2.38-3.67-4.07-7.78-6.28-12.1-.78.86-1.84,1.65-2.4,2.7-3.61,6.88-7.06,13.85-10.67,20.73-1.11,2.11-2.53,4.06-3.84,6.07-1.45,2.22-3.53,4.47-6.11,3.21-2.3-1.12-5.01-3.48-5.53-5.76-1.24-5.42-1.66-11.11-1.77-16.7-.19-10.18.08-20.36.15-30.54,0-.56-.06-1.11-.77-1.82-.73,2.46-1.57,4.89-2.16,7.38-3.03,12.82-5.7,25.73-9.05,38.46-3.16,12-9.35,22.51-17.7,31.71-2,2.21-4.05,4.44-6.38,6.28-7.66,6.08-12.93,5.15-19.43-3.73-1.39-1.9-2.2-4.23-3.47-6.73-2.37,1.37-4.62,2.83-7,4.02-8.32,4.14-16.7,3.08-23.9-1.9-7.53-5.21-14.38-11.49-21.03-17.83-6.62-6.32-6.26-6.46-14.2-1.87-4.33,2.5-8.83,4.87-13.53,6.52-5.85,2.06-9.84.59-14.25-4.42-1.18,5.06-2.17,9.77-3.38,14.43-4.51,17.28-8.82,34.65-19.46,49.52-1.39,1.94-2.96,3.78-4.67,5.44-2.16,2.1-4.86,1.68-6.83-.59-3.48-4.03-3.67-8.92-3.02-13.64,1.48-10.79,3.4-21.52,5.29-32.25,4.54-25.68,11.88-50.55,23.22-74.06,6.06-12.56,11.81-25.48,22.36-35.3,6.97-6.48,14.08-12.68,23.56-15.31,6.81-1.89,12.52-.64,17.78,4.45,6.39,6.18,9.74,13.8,10.71,22.2,1.25,10.88,2.64,21.82-1.06,32.73-3.13,9.25-8.55,16.77-15.26,23.57-2.34,2.37-4.84,4.58-6.42,6.07,6.67,7.27,12.98,14.43,19.66,21.25,1.81,1.85,4.64,2.82,7.14,3.87,7.25,3.02,18.99-4.2,22.42-10.75.62-1.18.46-2.81.51-4.23.4-10.64,1.92-21.03,7.23-30.47,1.48-2.63,2.4-6.39,6.8-5.73,3.44.51,6.23,3.32,6.68,7.87.35,3.48.42,7.32-.7,10.56-2.84,8.25-6.31,16.28-9.72,24.32-1.96,4.62-.32,13.44,3.74,17.53,6.11-2.71,10.03-7.92,14.09-12.89,8.25-10.11,13.44-21.8,16.84-34.27,4.85-17.78,9.44-35.63,13.98-53.5.88-3.46.93-7.11,1.52-10.65.18-1.07.63-2.69,1.34-2.94,1.01-.35,3.01-.07,3.49.66,1.51,2.32,3.42,4.93,3.52,7.49.36,9.09.06,18.2-.03,27.3-.12,12.58-.26,25.16-.37,37.75,0,.67.19,1.34.29,2.01.38.11.76.22,1.14.32Zm-161.36,11.88c.23.07.47.15.7.22.5-.61.94-1.27,1.49-1.83,7.42-7.55,15.21-14.11,27.03-11.1,1.14.29,2.86-.31,3.86-1.08,15.2-11.64,24.81-26.12,23.42-46.23-.58-8.49-.51-17.06-5.62-24.49-3.39-4.93-6.03-5.78-11.63-3.58-12.17,4.81-21.91,12.62-29.22,23.48-3.26,4.83-6.2,9.03-5.74,15.93.71,10.76-1,21.71-1.96,32.56-.47,5.4-1.54,10.75-2.34,16.12Zm-2.45-41.28c-17,30.78-22.05,64.63-26.01,98.77,16.61-30.84,21.21-64.86,26.01-98.77Z"/>
  <path class="cls-1" d="m27.99,191.77c3.39-.73,6.83-1.25,10.15-2.22,22.07-6.42,44.04-13.21,66.2-19.28,9.62-2.63,19.57-4.21,29.47-5.59,7.74-1.08,15.62-1.44,23.45-1.51,8.64-.08,17.68,7.02,19.77,14.97.47,1.81.55,3.81.36,5.67-.1.99-1.03,2.46-1.85,2.67-1.05.27-2.72-.16-3.49-.92-1.04-1.03-2.03-2.64-2.09-4.04-.29-6.92-6.57-9.71-12.44-9.83-6.77-.14-13.62.39-20.32,1.42-11.86,1.82-23.78,3.6-35.39,6.56-14.4,3.66-28.46,8.62-42.74,12.78-9.68,2.82-19.4,5.6-29.26,7.67-5.06,1.06-10.55,1.07-14.45-3.86-2.76-3.49-2.98-7.18.75-9.54,6.91-4.37,13.89-8.96,21.45-11.93,21.48-8.44,43-16.9,64.99-23.83,18.78-5.92,38.16-10.06,57.41-14.38,22.88-5.13,45.88-9.7,68.86-14.34,18.42-3.72,36.88-7.25,55.35-10.72,11.24-2.11,22.52-3.98,33.79-5.86,2.21-.37,4.78-.74,5.64,2.28.67,2.32-1.6,4.63-5.13,5.29-7.72,1.44-15.46,2.8-23.18,4.22-10.77,1.98-21.55,3.9-32.29,6.01-20.29,3.98-40.6,7.9-60.83,12.19-17.55,3.72-35.02,7.82-52.48,11.94-28.74,6.78-57,15.22-84.54,25.9-11.63,4.51-22.91,9.9-34.32,14.96-1.16.52-2.12,1.5-3.17,2.26.11.35.22.7.33,1.06Z"/>
</svg>